<svg width="128" height="180" viewBox="0 0 128 180" fill="none" xmlns="http://www.w3.org/2000/svg">
<path d="M0.596998 81.6896C-0.788586 85.3998 0.294076 89.5845 3.30459 92.1468C9.01147 97.8752 20.7487 118.557 26.5585 133.129C30.5226 143.069 39.2288 152.825 45.8332 159.26C48.6754 162.066 50.2723 165.902 50.263 169.903V171C50.263 175.969 54.2776 179.998 59.2328 179.998H107.068C112.021 179.998 116.038 175.971 116.038 171V161.787C116.01 161.025 116.3 160.284 116.836 159.746C127.871 149.625 127.998 132.726 127.998 132.013V84.5351C128.108 78.1126 123.282 72.6824 116.909 72.0634C114.514 71.9058 112.128 72.4742 110.06 73.6972V69.0341C110.084 64.7125 107.777 60.7153 104.028 58.5863C100.279 56.4574 95.6749 56.5287 91.9931 58.7739C91.6098 54.728 89.1883 51.1622 85.5757 49.324C81.9631 47.4858 77.6642 47.6302 74.1825 49.7085V44.7416C81.6022 40.5175 86.1741 32.6057 86.1423 24.0487C86.1423 10.7985 75.4335 0.056282 62.2227 0.056282C49.0139 0.056282 38.3051 10.7985 38.3051 24.0487C38.2733 32.6076 42.8451 40.5175 50.2648 44.7416V93.0265C50.349 96.5679 49.8703 100.096 48.8418 103.486C48.5221 104.487 47.705 105.249 46.6859 105.5C45.7285 105.744 44.7131 105.476 43.9951 104.791C41.6596 102.557 39.5859 100.064 37.8133 97.3594C32.6244 89.5733 19.5707 75.0308 11.3974 75.0308C6.80688 74.9351 2.58468 77.5368 0.596998 81.6896ZM44.2849 24.0468C44.2849 14.1092 52.3161 6.05297 62.2227 6.05297C72.1294 6.05297 80.1605 14.1092 80.1605 24.0468C80.1886 29.1788 78.0101 34.0725 74.1806 37.477V24.0468C74.1806 17.4217 68.8272 12.0515 62.2209 12.0515C55.6164 12.0515 50.2611 17.4217 50.2611 24.0468V37.477C46.4334 34.0725 44.2532 29.1769 44.2812 24.0468H44.2849ZM32.8282 100.689C34.8551 103.773 37.2261 106.614 39.8926 109.161C42.0916 111.249 45.2031 112.063 48.1388 111.319C51.1306 110.57 53.5334 108.338 54.5076 105.404C55.7455 101.398 56.3326 97.2187 56.2447 93.0265V24.0487C56.2447 20.7361 58.9224 18.0501 62.2246 18.0501C65.5268 18.0501 68.2045 20.7343 68.2045 24.0487V87.0298C68.2045 88.6879 69.5433 90.0291 71.1944 90.0291C72.8455 90.0291 74.1844 88.6861 74.1844 87.0298V60.0381C74.1844 56.7256 76.862 54.0396 80.1643 54.0396C83.4665 54.0396 86.1441 56.7256 86.1441 60.0381V87.0298C86.1441 88.6879 87.483 90.0291 89.1341 90.0291C90.7852 90.0291 92.124 88.6861 92.124 87.0298V69.036C92.124 65.7235 94.8017 63.0374 98.1039 63.0374C101.406 63.0374 104.084 65.7235 104.084 69.036V90.0291C104.084 91.6835 105.423 93.0265 107.074 93.0265C108.727 93.0265 110.064 91.6835 110.064 90.0291V84.0305C110.06 82.4399 110.692 80.9131 111.818 79.7933C113.05 78.5665 114.75 77.9325 116.481 78.0488C119.71 78.4709 122.1 81.2713 122.022 84.5388V132.017C122.022 132.163 121.87 147.014 112.801 155.327C111.029 157.004 110.036 159.348 110.062 161.792V171.006C110.062 172.664 108.723 174.005 107.072 174.005H59.2365C57.5854 174.005 56.2466 172.662 56.2466 171.006V169.909C56.2503 164.287 53.999 158.9 50.0012 154.961C44.9357 150.028 35.8779 140.338 32.1157 130.903C25.962 115.481 13.789 94.1838 7.53426 87.9095C6.11128 86.4821 5.63446 85.1616 6.11876 83.9874C7.20329 82.1042 9.23212 80.9675 11.3993 81.0331C15.4626 81.0331 26.4799 91.1376 32.83 100.693L32.8282 100.689Z" fill="#1F1A1A"/>
<path d="M38.305 49.656C39.498 49.656 40.5769 48.947 41.05 47.8478C41.5231 46.7505 41.3025 45.4732 40.4853 44.6028C30.1262 33.6205 29.5633 16.6114 39.1764 4.96317C39.887 4.1416 40.0983 2.99741 39.728 1.97514C39.3578 0.952873 38.464 0.211963 37.3925 0.0375205C36.3211 -0.135046 35.2403 0.286992 34.569 1.14232C23.0393 15.1183 23.7087 35.5243 36.1285 48.7107C36.6932 49.3128 37.4823 49.656 38.3069 49.656H38.305Z" fill="#1F1A1A"/>
<path d="M90.127 41.7123C90.8319 42.0744 91.6528 42.1419 92.4064 41.898C93.1618 41.6542 93.7882 41.1196 94.1491 40.4106C100.686 27.6425 99.0052 12.196 89.8764 1.14421C89.2051 0.288876 88.1243 -0.133162 87.0529 0.039405C85.9833 0.211972 85.0895 0.952882 84.7174 1.97703C84.3472 2.9993 84.5566 4.14349 85.269 4.96505C92.8757 14.1711 94.2762 27.0404 88.8293 37.6758C88.0757 39.1482 88.6554 40.9564 90.1251 41.7123H90.127Z" fill="#1F1A1A"/>
<path fill-rule="evenodd" clip-rule="evenodd" d="M74.1825 37.4788C78.012 34.0744 80.1904 29.1788 80.1623 24.0487C80.1623 14.1111 72.1312 6.05484 62.2245 6.05484C52.3179 6.05484 44.2868 14.1111 44.2868 24.0487C44.2587 29.1806 46.439 34.0744 50.2667 37.4788V24.0487C50.2667 17.4236 55.6201 12.0534 62.2245 12.0534C68.829 12.0534 74.1843 17.4236 74.1843 24.0487V37.4788H74.1825Z" fill="url(#paint0_radial_95_4)"/>
<defs>
<radialGradient id="paint0_radial_95_4" cx="0" cy="0" r="1" gradientUnits="userSpaceOnUse" gradientTransform="translate(83.7318 37.547) rotate(-146.68) scale(50.0893 46.6598)">
<stop stop-color="#4CB752"/>
<stop offset="0.937339" stop-color="#B0D353"/>
</radialGradient>
</defs>
</svg>
