<svg width="300" height="230" viewBox="0 0 300 230" fill="none" xmlns="http://www.w3.org/2000/svg">
<g clip-path="url(#clip0_62_99)">
<path d="M300 203.044H0V203.194H300V203.044Z" fill="#E0E0E0"/>
<path d="M267.348 206.882H247.698V207.032H267.348V206.882Z" fill="#E0E0E0"/>
<path d="M198.162 210.123H173.61V210.273H198.162V210.123Z" fill="#E0E0E0"/>
<path d="M207.528 210.123H201.84V210.273H207.528V210.123Z" fill="#E0E0E0"/>
<path d="M79.002 208.41H55.902V208.56H79.002V208.41Z" fill="#E0E0E0"/>
<path d="M125.1 208.41H104.502V208.56H125.1V208.41Z" fill="#E0E0E0"/>
<path d="M241.89 206.882H220.938V207.032H241.89V206.882Z" fill="#E0E0E0"/>
<path d="M51 208.41H30.99V208.56H51V208.41Z" fill="#E0E0E0"/>
<path d="M142.206 176.422H26.346C24.456 176.422 22.92 174.894 22.92 173.013V10.995C22.92 9.11476 24.456 7.58668 26.346 7.58668H142.206C144.096 7.58668 145.632 9.11476 145.632 10.995V173.013C145.632 174.894 144.096 176.422 142.206 176.422ZM26.346 7.73591C24.54 7.73591 23.07 9.19833 23.07 10.995V173.013C23.07 174.81 24.54 176.272 26.346 176.272H142.206C144.012 176.272 145.482 174.81 145.482 173.013V10.995C145.482 9.19833 144.012 7.73591 142.206 7.73591H26.346Z" fill="#E0E0E0"/>
<path d="M271.986 176.422H156.126C154.236 176.422 152.7 174.894 152.7 173.013V10.995C152.7 9.11476 154.236 7.58668 156.126 7.58668H271.986C273.876 7.58668 275.412 9.11476 275.412 10.995V173.013C275.412 174.894 273.876 176.422 271.986 176.422ZM156.126 7.73591C154.32 7.73591 152.85 9.19833 152.85 10.995V173.013C152.85 174.81 154.32 176.272 156.126 176.272H271.986C273.792 176.272 275.262 174.81 275.262 173.013V10.995C275.262 9.19833 273.792 7.73591 271.986 7.73591H156.126Z" fill="#E0E0E0"/>
<path d="M91.44 60.3173L103.554 48.4329L101.022 43.5443C101.25 43.0548 101.454 42.5653 101.652 42.0699L106.932 40.4642L107.052 23.5419L101.79 21.8646C101.604 21.3632 101.406 20.8678 101.184 20.3783L103.782 15.5255L91.836 3.47393L86.928 5.98691C86.436 5.76008 85.944 5.55714 85.446 5.36613L83.832 0.10738L66.822 -0.012001L65.136 5.22287C64.632 5.40791 64.134 5.60489 63.642 5.82574L58.764 3.24114L46.65 15.1255L49.182 20.0142C48.954 20.4977 48.75 20.9931 48.558 21.4886L43.272 23.0942L43.152 40.0165L48.414 41.6939C48.6 42.1953 48.798 42.6907 49.02 43.1801L46.422 48.027L58.368 60.0786L63.276 57.5656C63.768 57.7924 64.26 57.9954 64.758 58.1864L66.372 63.4451L83.382 63.5645L85.068 58.3296C85.572 58.1446 86.07 57.9416 86.556 57.7268L91.434 60.3114L91.44 60.3173ZM83.994 40.7507C79.014 45.6394 70.998 45.5857 66.084 40.6314C61.176 35.677 61.23 27.7024 66.21 22.8137C71.19 17.931 79.206 17.9847 84.114 22.9391C89.022 27.8934 88.968 35.868 83.988 40.7507H83.994Z" fill="#F0F0F0"/>
<path d="M45.438 91.7982L53.394 83.9967L51.732 80.7853C51.882 80.463 52.014 80.1466 52.146 79.8183L55.614 78.7678L55.692 67.6534L52.236 66.5551C52.11 66.2268 51.984 65.8985 51.84 65.5821L53.544 62.3946L45.702 54.4796L42.48 56.1331C42.156 55.9839 41.832 55.8525 41.502 55.7272L40.446 52.2771L29.274 52.1995L28.17 55.6376C27.84 55.757 27.516 55.8883 27.192 56.0316L23.988 54.3364L16.032 62.138L17.694 65.3493C17.544 65.6657 17.412 65.994 17.28 66.3163L13.812 67.3669L13.734 78.4813L17.19 79.5796C17.316 79.9079 17.442 80.2362 17.586 80.5525L15.882 83.74L23.724 91.655L26.946 90.0016C27.27 90.1508 27.594 90.2821 27.924 90.4075L28.98 93.8576L40.152 93.9352L41.256 90.497C41.586 90.3776 41.91 90.2463 42.234 90.103L45.438 91.7982ZM40.548 78.9468C37.278 82.1582 32.01 82.1224 28.788 78.8692C25.566 75.6161 25.602 70.3812 28.872 67.1699C32.142 63.9645 37.404 64.0003 40.626 67.2534C43.848 70.5066 43.812 75.7415 40.542 78.9528L40.548 78.9468Z" fill="#E0E0E0"/>
<path d="M276.432 190.694L282.21 185.029L281.004 182.701C281.112 182.468 281.208 182.236 281.304 181.997L283.824 181.233L283.878 173.163L281.37 172.363C281.28 172.124 281.184 171.885 281.082 171.652L282.318 169.342L276.624 163.594L274.284 164.794C274.05 164.686 273.816 164.591 273.576 164.495L272.808 161.988L264.696 161.935L263.892 164.43C263.652 164.519 263.418 164.615 263.178 164.716L260.85 163.487L255.072 169.151L256.278 171.479C256.17 171.712 256.074 171.945 255.978 172.184L253.458 172.948L253.404 181.018L255.912 181.818C256.002 182.056 256.098 182.295 256.2 182.528L254.964 184.838L260.658 190.586L262.998 189.386C263.232 189.494 263.466 189.589 263.706 189.685L264.474 192.192L272.586 192.246L273.39 189.751C273.63 189.661 273.864 189.566 274.098 189.464L276.426 190.694H276.432ZM272.88 181.364C270.504 183.692 266.682 183.668 264.342 181.304C262.002 178.941 262.026 175.138 264.402 172.81C266.778 170.482 270.6 170.506 272.94 172.87C275.28 175.234 275.256 179.036 272.88 181.364Z" fill="#F0F0F0"/>
<path d="M205.554 181.842H29.19C27.09 181.842 25.386 180.146 25.386 178.057V46.3319C25.386 44.2427 27.09 42.5475 29.19 42.5475H205.554C207.654 42.5475 209.358 44.2427 209.358 46.3319V178.063C209.358 180.152 207.654 181.848 205.554 181.848V181.842ZM29.19 42.84C27.258 42.84 25.686 44.4039 25.686 46.3259V178.057C25.686 179.979 27.258 181.543 29.19 181.543H205.554C207.486 181.543 209.058 179.979 209.058 178.057V46.3319C209.058 44.4098 207.486 42.8459 205.554 42.8459H29.19V42.84Z" fill="#E0E0E0"/>
<path d="M33.552 49.5014C32.4 49.5014 31.458 48.5643 31.458 47.4182C31.458 46.2722 32.4 45.335 33.552 45.335C34.704 45.335 35.646 46.2722 35.646 47.4182C35.646 48.5643 34.704 49.5014 33.552 49.5014ZM33.552 45.6335C32.562 45.6335 31.758 46.4333 31.758 47.4182C31.758 48.4031 32.562 49.203 33.552 49.203C34.542 49.203 35.346 48.4031 35.346 47.4182C35.346 46.4333 34.542 45.6335 33.552 45.6335Z" fill="#E0E0E0"/>
<path d="M40.4399 49.5014C39.2879 49.5014 38.3459 48.5643 38.3459 47.4182C38.3459 46.2722 39.2879 45.335 40.4399 45.335C41.5919 45.335 42.5339 46.2722 42.5339 47.4182C42.5339 48.5643 41.5919 49.5014 40.4399 49.5014ZM40.4399 45.6335C39.4499 45.6335 38.6459 46.4333 38.6459 47.4182C38.6459 48.4031 39.4499 49.203 40.4399 49.203C41.4299 49.203 42.2339 48.4031 42.2339 47.4182C42.2339 46.4333 41.4299 45.6335 40.4399 45.6335Z" fill="#E0E0E0"/>
<path d="M47.328 49.5014C46.176 49.5014 45.234 48.5643 45.234 47.4182C45.234 46.2722 46.176 45.335 47.328 45.335C48.48 45.335 49.422 46.2722 49.422 47.4182C49.422 48.5643 48.48 49.5014 47.328 49.5014ZM47.328 45.6335C46.338 45.6335 45.534 46.4333 45.534 47.4182C45.534 48.4031 46.338 49.203 47.328 49.203C48.318 49.203 49.122 48.4031 49.122 47.4182C49.122 46.4333 48.318 45.6335 47.328 45.6335Z" fill="#E0E0E0"/>
<path d="M275.598 17.4834H99.234C97.2159 17.4834 95.58 19.1109 95.58 21.1186V152.85C95.58 154.857 97.2159 156.485 99.234 156.485H275.598C277.616 156.485 279.252 154.857 279.252 152.85V21.1186C279.252 19.1109 277.616 17.4834 275.598 17.4834Z" fill="#E0E0E0"/>
<path d="M275.598 157.082H99.234C96.888 157.082 94.98 155.184 94.98 152.85V21.1185C94.98 18.7846 96.888 16.8865 99.234 16.8865H275.598C277.944 16.8865 279.852 18.7846 279.852 21.1185V152.844C279.852 155.178 277.944 157.076 275.598 157.076V157.082ZM99.234 18.0803C97.548 18.0803 96.18 19.4412 96.18 21.1185V152.844C96.18 154.521 97.548 155.882 99.234 155.882H275.598C277.284 155.882 278.652 154.521 278.652 152.844V21.1185C278.652 19.4412 277.284 18.0803 275.598 18.0803H99.234Z" fill="#E0E0E0"/>
<path d="M95.58 26.8847V152.85C95.58 154.849 97.224 156.485 99.234 156.485H275.598C277.608 156.485 279.252 154.849 279.252 152.85V26.8847H95.58Z" fill="#F0F0F0"/>
<path d="M278.58 31.7196H96.2579V151.65H278.58V31.7196Z" fill="white"/>
<path d="M272.13 140.679H102.708C102.672 140.679 102.648 140.649 102.648 140.619V39.4973C102.648 39.4615 102.678 39.4376 102.708 39.4376H272.13C272.166 39.4376 272.19 39.4615 272.19 39.4973V140.619C272.19 140.655 272.16 140.679 272.13 140.679ZM102.768 140.56H272.07V39.557H102.768V140.554V140.56Z" fill="#E6E6E6"/>
<path d="M103.596 24.3896C102.39 24.3896 101.412 23.4166 101.412 22.2169C101.412 21.0171 102.39 20.0441 103.596 20.0441C104.802 20.0441 105.78 21.0171 105.78 22.2169C105.78 23.4166 104.802 24.3896 103.596 24.3896ZM103.596 20.5216C102.66 20.5216 101.898 21.2797 101.898 22.2109C101.898 23.1421 102.66 23.9061 103.596 23.9061C104.532 23.9061 105.294 23.148 105.294 22.2109C105.294 21.2737 104.532 20.5216 103.596 20.5216Z" fill="white"/>
<path d="M110.484 24.3896C109.278 24.3896 108.3 23.4166 108.3 22.2169C108.3 21.0171 109.278 20.0441 110.484 20.0441C111.69 20.0441 112.668 21.0171 112.668 22.2169C112.668 23.4166 111.69 24.3896 110.484 24.3896ZM110.484 20.5216C109.548 20.5216 108.786 21.2797 108.786 22.2109C108.786 23.1421 109.548 23.9061 110.484 23.9061C111.42 23.9061 112.182 23.148 112.182 22.2109C112.182 21.2737 111.42 20.5216 110.484 20.5216Z" fill="white"/>
<path d="M117.372 24.3896C116.166 24.3896 115.188 23.4166 115.188 22.2169C115.188 21.0171 116.166 20.0441 117.372 20.0441C118.578 20.0441 119.556 21.0171 119.556 22.2169C119.556 23.4166 118.578 24.3896 117.372 24.3896ZM117.372 20.5216C116.436 20.5216 115.674 21.2797 115.674 22.2109C115.674 23.1421 116.436 23.9061 117.372 23.9061C118.308 23.9061 119.07 23.148 119.07 22.2109C119.07 21.2737 118.308 20.5216 117.372 20.5216Z" fill="white"/>
<path d="M279.252 26.6399H95.58V27.1234H279.252V26.6399Z" fill="#E0E0E0"/>
<path d="M178.872 128.83H262.896V43.6339L178.872 43.6339V128.83Z" fill="#F0F0F0"/>
<path d="M106.86 71.3482H162.336V43.6339L106.86 43.6339V71.3482Z" fill="#F0F0F0"/>
<path d="M106.86 151.65H162.336V81.7105H106.86V151.65Z" fill="#F0F0F0"/>
<path d="M150 230C214.249 230 266.334 226.975 266.334 223.243C266.334 219.511 214.249 216.486 150 216.486C85.7505 216.486 33.666 219.511 33.666 223.243C33.666 226.975 85.7505 230 150 230Z" fill="#F5F5F5"/>
<path d="M257.634 32.5612H42.372C39.198 32.5612 36.6 35.1399 36.6 38.2975V181.233C36.6 184.39 39.198 186.969 42.372 186.969H257.634C260.802 186.969 263.4 184.39 263.4 181.233V38.2975C263.4 35.1399 260.802 32.5612 257.634 32.5612Z" fill="#669933"/>
<path opacity="0.3" d="M257.634 32.5612H42.372C39.198 32.5612 36.6 35.1399 36.6 38.2975V181.233C36.6 184.39 39.198 186.969 42.372 186.969H257.634C260.802 186.969 263.4 184.39 263.4 181.233V38.2975C263.4 35.1399 260.802 32.5612 257.634 32.5612Z" fill="white"/>
<path d="M79.464 42.1356H48.99C47.832 42.1356 46.89 41.1985 46.89 40.0465C46.89 38.8944 47.832 37.9573 48.99 37.9573H79.464C80.622 37.9573 81.564 38.8944 81.564 40.0465C81.564 41.1985 80.622 42.1356 79.464 42.1356ZM48.99 38.5542C48.162 38.5542 47.49 39.2227 47.49 40.0465C47.49 40.8702 48.162 41.5387 48.99 41.5387H79.464C80.292 41.5387 80.964 40.8702 80.964 40.0465C80.964 39.2227 80.292 38.5542 79.464 38.5542H48.99Z" fill="#FAFAFA"/>
<path d="M89.352 42.1356H87.318C86.16 42.1356 85.218 41.1985 85.218 40.0465C85.218 38.8944 86.16 37.9573 87.318 37.9573H89.352C90.51 37.9573 91.452 38.8944 91.452 40.0465C91.452 41.1985 90.51 42.1356 89.352 42.1356ZM87.318 38.5542C86.49 38.5542 85.818 39.2227 85.818 40.0465C85.818 40.8702 86.49 41.5387 87.318 41.5387H89.352C90.18 41.5387 90.852 40.8702 90.852 40.0465C90.852 39.2227 90.18 38.5542 89.352 38.5542H87.318Z" fill="#FAFAFA"/>
<path d="M97.854 42.1356H95.82C94.662 42.1356 93.72 41.1985 93.72 40.0465C93.72 38.8944 94.662 37.9573 95.82 37.9573H97.854C99.012 37.9573 99.954 38.8944 99.954 40.0465C99.954 41.1985 99.012 42.1356 97.854 42.1356ZM95.82 38.5542C94.992 38.5542 94.32 39.2227 94.32 40.0465C94.32 40.8702 94.992 41.5387 95.82 41.5387H97.854C98.682 41.5387 99.354 40.8702 99.354 40.0465C99.354 39.2227 98.682 38.5542 97.854 38.5542H95.82Z" fill="#FAFAFA"/>
<path d="M36.6 47.4003V181.233C36.6 184.39 39.198 186.969 42.372 186.969H257.634C260.802 186.969 263.4 184.39 263.4 181.233V47.4003H36.6Z" fill="#669933"/>
<path opacity="0.6" d="M36.6 47.4003V181.233C36.6 184.39 39.198 186.969 42.372 186.969H257.634C260.802 186.969 263.4 184.39 263.4 181.233V47.4003H36.6Z" fill="white"/>
<path d="M37.668 47.4003V176.081C37.668 177.878 39.132 179.341 40.944 179.341H259.062C260.868 179.341 262.338 177.884 262.338 176.081V47.4003H37.668Z" fill="#FAFAFA"/>
<path d="M48.0239 54.9751V78.8693H202.17V54.9751H48.0239Z" fill="#669933"/>
<path opacity="0.9" d="M48.0239 54.9751V78.8693H202.17V54.9751H48.0239Z" fill="white"/>
<path d="M201.576 85.7754V149.167H48.6239V85.7754H201.57M202.17 85.1785H48.0239V149.764H202.17V85.1785Z" fill="#669933"/>
<path opacity="0.9" d="M201.576 85.7754V149.167H48.6239V85.7754H201.57M202.17 85.1785H48.0239V149.764H202.17V85.1785Z" fill="white"/>
<path d="M219.498 217.692H214.968L213.762 207.264H218.292L219.498 217.692Z" fill="#FF8B7B"/>
<path d="M246.948 217.692H242.424L238.896 207.264H243.42L246.948 217.692Z" fill="#FF8B7B"/>
<path d="M241.818 217.167H247.338C247.524 217.167 247.686 217.292 247.722 217.477L248.616 221.482C248.706 221.9 248.382 222.288 247.956 222.282C246.18 222.252 244.884 222.151 242.646 222.151C241.272 222.151 238.434 222.294 236.538 222.294C234.642 222.294 234.39 220.426 235.17 220.258C238.656 219.5 239.97 218.456 241.086 217.453C241.29 217.274 241.548 217.178 241.818 217.178V217.167Z" fill="#424242"/>
<path d="M214.998 217.167H219.942C220.128 217.167 220.29 217.292 220.326 217.477L221.22 221.482C221.31 221.9 220.998 222.288 220.566 222.282C218.784 222.252 216.204 222.151 213.966 222.151C211.344 222.151 209.082 222.294 206.01 222.294C204.15 222.294 203.634 220.426 204.414 220.258C207.954 219.488 210.846 219.405 213.906 217.531C214.236 217.328 214.608 217.178 214.998 217.178V217.167Z" fill="#424242"/>
<path d="M222.09 105.957C221.64 109.443 221.148 112.947 220.626 116.433L219.06 127.034C218.82 128.353 218.274 129.612 217.542 130.633C216.816 131.66 215.952 132.483 215.07 133.158C213.288 134.495 211.41 135.301 209.562 135.928C207.708 136.542 205.848 136.948 204 137.229C203.076 137.366 202.146 137.462 201.216 137.545C200.28 137.623 199.38 137.671 198.396 137.671L198.09 134.304C199.704 133.934 201.414 133.504 203.016 132.973C204.63 132.46 206.208 131.875 207.66 131.176C209.112 130.49 210.45 129.672 211.434 128.759C211.92 128.305 212.304 127.833 212.556 127.38C212.802 126.92 212.928 126.502 212.97 126.073L213.144 123.56C213.204 122.664 213.288 121.775 213.366 120.885C213.528 119.107 213.702 117.334 213.9 115.561C214.29 112.015 214.752 108.5 215.31 104.972L222.102 105.945L222.09 105.957Z" fill="#FF8B7B"/>
<path d="M223.584 103.695C225.108 107.724 221.454 121.226 221.454 121.226L211.398 116.224C211.398 116.224 211.872 109.491 214.17 104.315C216.492 99.0865 221.904 99.2715 223.578 103.695H223.584Z" fill="#669933"/>
<path opacity="0.3" d="M223.584 103.695C225.108 107.724 221.454 121.226 221.454 121.226L211.398 116.224C211.398 116.224 211.872 109.491 214.17 104.315C216.492 99.0865 221.904 99.2715 223.578 103.695H223.584Z" fill="black"/>
<path d="M200.49 133.874L195.552 134.202L197.862 139.479C197.862 139.479 201.03 139.479 201.93 136.321L200.496 133.88L200.49 133.874Z" fill="#FF8B7B"/>
<path d="M191.094 136.274L193.836 139.963L197.862 139.473L195.552 134.202L191.094 136.274Z" fill="#FF8B7B"/>
<path d="M213.768 207.264L214.464 213.316L218.964 213.048L218.292 207.264H213.768Z" fill="#EA7063"/>
<path d="M243.426 207.264H238.896L241.26 214.254L245.472 213.31L243.426 207.264Z" fill="#EA7063"/>
<path d="M218.208 100.615C218.208 100.615 212.868 114.212 217.938 139.539H242.148C242.316 135.844 239.982 117.805 243.564 100.388C243.564 100.388 239.412 99.558 235.458 99.367C232.362 99.2178 227.886 99.1223 225.168 99.367C221.58 99.6953 218.208 100.615 218.208 100.615Z" fill="#669933"/>
<path opacity="0.3" d="M218.208 100.615C218.208 100.615 212.868 114.212 217.938 139.539H242.148C242.316 135.844 239.982 117.805 243.564 100.388C243.564 100.388 239.412 99.558 235.458 99.367C232.362 99.2178 227.886 99.1223 225.168 99.367C221.58 99.6953 218.208 100.615 218.208 100.615Z" fill="black"/>
<path d="M227.052 113.341C226.728 116.367 225.06 118.671 223.32 118.486C221.58 118.301 220.434 115.704 220.752 112.678C221.076 109.652 222.744 107.348 224.484 107.533C226.224 107.718 227.37 110.314 227.052 113.341Z" fill="#669933"/>
<path opacity="0.1" d="M227.052 113.341C226.728 116.367 225.06 118.671 223.32 118.486C221.58 118.301 220.434 115.704 220.752 112.678C221.076 109.652 222.744 107.348 224.484 107.533C226.224 107.718 227.37 110.314 227.052 113.341Z" fill="white"/>
<path d="M238.632 108.709C239.418 104.733 240.96 105.42 242.424 107.377C241.728 112.982 241.536 118.444 241.56 123.261C240.564 121.572 237.312 115.37 238.632 108.709Z" fill="#669933"/>
<path opacity="0.4" d="M238.632 108.709C239.418 104.733 240.96 105.42 242.424 107.377C241.728 112.982 241.536 118.444 241.56 123.261C240.564 121.572 237.312 115.37 238.632 108.709Z" fill="black"/>
<path d="M234.444 87.8348C233.796 91.1297 233.148 97.1644 235.464 99.361C235.464 99.361 234.558 102.704 228.408 102.704C221.64 102.704 225.174 99.361 225.174 99.361C228.864 98.4836 228.774 95.7557 228.126 93.201L234.444 87.8348Z" fill="#FF8B7B"/>
<path d="M231.864 90.0254L228.126 93.201C228.282 93.8038 228.402 94.4187 228.444 95.0156C229.854 94.8126 231.792 93.2726 231.942 91.8042C232.014 91.07 231.984 90.3657 231.864 90.0254Z" fill="#EA7063"/>
<path d="M225.018 75.5027C222.528 77.4247 222.546 85.1248 226.32 85.286C230.094 85.4472 229.734 71.8616 225.018 75.5027Z" fill="#424242"/>
<path d="M235.404 83.943C234.09 88.2168 233.538 90.7835 230.802 92.4847C226.68 95.0454 221.778 91.7744 221.784 87.1961C221.784 83.0774 223.938 76.7801 228.618 76.0698C233.232 75.3714 236.718 79.6691 235.404 83.943Z" fill="#FF8B7B"/>
<path d="M234.072 88.1213C231.54 88.5153 230.166 75.5743 236.19 78.4454C244.752 82.5223 238.164 87.4886 234.072 88.1213Z" fill="#424242"/>
<path d="M234.312 79.6333C231.204 79.3647 226.698 79.502 225.72 75.6698C224.358 70.3275 230.766 69.5456 232.356 73.6284C236.172 72.3809 246.684 78.8931 239.682 82.206L234.318 79.6333H234.312Z" fill="#424242"/>
<path d="M236.22 89.1957C235.362 90.0433 234.186 90.4194 233.19 90.4015C231.696 90.3716 231.372 88.9391 232.146 87.7572C232.842 86.6947 234.462 85.4233 235.794 86.0262C237.102 86.6171 237.198 88.2228 236.214 89.1957H236.22Z" fill="#FF8B7B"/>
<path d="M217.938 139.539C217.938 139.539 200.286 163.875 200.778 177.604C201.288 191.888 212.682 211.597 212.682 211.597L220.044 209.914C220.044 209.914 212.718 192.717 213.06 178.69C213.432 163.397 233.844 151.328 233.844 139.533H217.932L217.938 139.539Z" fill="#424242"/>
<path d="M226.53 139.539C226.53 139.539 217.536 164.621 220.356 177.514C223.446 191.631 238.932 212.493 238.932 212.493L246.348 210.463C246.348 210.463 236.316 192.514 234.552 178.535C232.638 163.361 242.154 150.826 242.154 139.539H226.53Z" fill="#424242"/>
<path d="M237.828 213.507L248.484 211.538L247.95 208.69L236.004 210.702L237.828 213.507Z" fill="#669933"/>
<path opacity="0.4" d="M237.828 213.507L248.484 211.538L247.95 208.69L236.004 210.702L237.828 213.507Z" fill="white"/>
<path d="M211.152 212.236L221.934 211.18L221.646 208.255L209.574 209.287L211.152 212.236Z" fill="#669933"/>
<path opacity="0.4" d="M211.152 212.236L221.934 211.18L221.646 208.255L209.574 209.287L211.152 212.236Z" fill="white"/>
<path d="M228.498 83.5789C228.414 83.931 228.156 84.1758 227.922 84.1161C227.688 84.0564 227.568 83.7281 227.658 83.3759C227.742 83.0237 228 82.779 228.234 82.8387C228.468 82.8924 228.588 83.2267 228.498 83.5789Z" fill="#424242"/>
<path d="M224.484 82.6178C224.4 82.97 224.142 83.2147 223.908 83.155C223.674 83.0953 223.554 82.7671 223.644 82.4149C223.728 82.0627 223.986 81.818 224.22 81.8777C224.454 81.9314 224.574 82.2656 224.484 82.6178Z" fill="#424242"/>
<path d="M225.714 83.1013C225.714 83.1013 224.418 84.9458 223.29 85.7158C223.776 86.45 224.91 86.438 224.91 86.438L225.714 83.1013Z" fill="#FF5652"/>
<path d="M226.512 87.7572C226.266 87.7572 225.996 87.7273 225.708 87.6617C225.648 87.6497 225.618 87.59 225.63 87.5304C225.642 87.4707 225.696 87.4348 225.762 87.4528C227.322 87.8228 228.306 86.9155 228.318 86.9096C228.36 86.8678 228.426 86.8678 228.468 86.9096C228.51 86.9514 228.504 87.023 228.468 87.0588C228.432 87.0946 227.712 87.7572 226.518 87.7572H226.512Z" fill="#424242"/>
<path d="M230.064 82.588C229.98 82.588 229.902 82.5402 229.866 82.4626C229.482 81.5911 228.708 81.4539 228.696 81.4539C228.576 81.4359 228.498 81.3225 228.522 81.2091C228.54 81.0957 228.654 81.0121 228.768 81.036C228.81 81.042 229.782 81.2151 230.256 82.2955C230.304 82.4029 230.256 82.5283 230.148 82.576C230.118 82.588 230.088 82.5939 230.064 82.5939V82.588Z" fill="#424242"/>
<path d="M223.11 80.8331C223.062 80.8331 223.014 80.8152 222.972 80.7853C222.882 80.7137 222.87 80.5764 222.942 80.4869C223.698 79.5736 224.682 79.6751 224.724 79.6751C224.844 79.687 224.928 79.7945 224.916 79.9079C224.904 80.0273 224.796 80.1049 224.682 80.0989C224.646 80.0989 223.878 80.0332 223.278 80.7555C223.236 80.8092 223.176 80.8331 223.11 80.8331Z" fill="#424242"/>
<path d="M164.093 167.163L147.852 169.087L147.923 169.68L164.164 167.756L164.093 167.163Z" fill="#669933"/>
<path d="M176.574 165.667L169.885 166.466L169.956 167.059L176.646 166.259L176.574 165.667Z" fill="#669933"/>
<path d="M269.242 127.49L125.194 144.578L128.23 169.905L272.277 152.817L269.242 127.49Z" fill="#669933"/>
<path d="M247.974 136.955L181.8 144.805L183.195 156.44L249.368 148.59L247.974 136.955Z" fill="#669933"/>
<path opacity="0.2" d="M247.974 136.955L181.8 144.805L183.195 156.44L249.368 148.59L247.974 136.955Z" fill="white"/>
<path d="M149.688 154.515C150.174 158.586 147.252 162.287 143.16 162.77C139.068 163.254 135.348 160.347 134.862 156.276C134.376 152.205 137.298 148.504 141.39 148.021C145.482 147.537 149.202 150.444 149.688 154.515Z" fill="#669933"/>
<path opacity="0.2" d="M149.688 154.515C150.174 158.586 147.252 162.287 143.16 162.77C139.068 163.254 135.348 160.347 134.862 156.276C134.376 152.205 137.298 148.504 141.39 148.021C145.482 147.537 149.202 150.444 149.688 154.515Z" fill="white"/>
<path d="M169.302 157.435C171.814 154.184 171.202 149.522 167.934 147.022C164.665 144.523 159.979 145.133 157.467 148.384C154.955 151.635 155.567 156.297 158.836 158.797C162.104 161.296 166.79 160.686 169.302 157.435Z" fill="#669933"/>
<path opacity="0.2" d="M169.302 157.435C171.814 154.184 171.202 149.522 167.934 147.022C164.665 144.523 159.979 145.133 157.467 148.384C154.955 151.635 155.567 156.297 158.836 158.797C162.104 161.296 166.79 160.686 169.302 157.435Z" fill="white"/>
<path d="M245.292 103.886C245.682 104.721 246.006 105.461 246.324 106.255C246.642 107.037 246.942 107.825 247.236 108.613C247.812 110.195 248.334 111.807 248.784 113.442C249.252 115.072 249.624 116.749 249.93 118.45L250.146 119.733L250.302 121.041C250.362 121.47 250.386 121.924 250.416 122.366L250.464 123.034L250.476 123.201L250.488 123.476C250.494 123.691 250.488 123.876 250.47 124.067C250.332 125.541 249.894 126.52 249.462 127.428C249.018 128.323 248.526 129.105 248.022 129.851C247.008 131.331 245.904 132.639 244.77 133.898C242.49 136.405 240.066 138.637 237.45 140.751L235.062 138.345C237.024 135.862 238.974 133.289 240.744 130.728C241.626 129.451 242.454 128.15 243.15 126.872C243.492 126.24 243.798 125.607 244.014 125.022C244.23 124.455 244.35 123.882 244.314 123.733C244.314 123.721 244.314 123.703 244.302 123.715C244.302 123.703 244.302 123.751 244.296 123.691L244.272 123.554L244.188 123.016C244.134 122.658 244.086 122.3 244.002 121.936L243.786 120.85L243.534 119.751C243.168 118.289 242.754 116.821 242.28 115.358C241.8 113.896 241.29 112.433 240.744 110.977C240.474 110.249 240.198 109.52 239.91 108.804L239.046 106.703L245.292 103.874V103.886Z" fill="#FF8B7B"/>
<path d="M244.512 100.68C248.55 102.226 251.448 116.922 251.448 116.922L241.83 120.694C241.83 120.694 238.608 113.311 237.522 107.849C236.382 102.101 239.928 98.9313 244.506 100.68H244.512Z" fill="#669933"/>
<path opacity="0.3" d="M244.512 100.68C248.55 102.226 251.448 116.922 251.448 116.922L241.83 120.694C241.83 120.694 238.608 113.311 237.522 107.849C236.382 102.101 239.928 98.9313 244.506 100.68H244.512Z" fill="black"/>
<path d="M240.324 217.954C239.982 217.954 239.658 217.895 239.454 217.728C239.292 217.59 239.22 217.399 239.232 217.167C239.244 216.987 239.34 216.904 239.418 216.868C239.922 216.611 241.38 217.507 241.542 217.608C241.578 217.632 241.596 217.674 241.59 217.716C241.584 217.757 241.548 217.793 241.512 217.805C241.2 217.883 240.744 217.966 240.33 217.966L240.324 217.954ZM239.652 217.023C239.598 217.023 239.55 217.029 239.514 217.047C239.484 217.059 239.454 217.089 239.448 217.172C239.436 217.34 239.484 217.471 239.592 217.56C239.838 217.769 240.432 217.793 241.2 217.644C240.69 217.352 240 217.023 239.652 217.023Z" fill="#669933"/>
<path d="M241.482 217.799C241.482 217.799 241.446 217.799 241.434 217.787C240.966 217.537 240.06 216.546 240.156 216.044C240.174 215.955 240.24 215.794 240.498 215.764C240.66 215.746 240.816 215.788 240.954 215.901C241.482 216.331 241.59 217.626 241.59 217.686C241.59 217.728 241.572 217.763 241.542 217.781C241.524 217.793 241.506 217.799 241.482 217.799ZM240.57 215.973C240.57 215.973 240.54 215.973 240.522 215.973C240.384 215.991 240.372 216.05 240.366 216.08C240.312 216.379 240.888 217.125 241.35 217.471C241.296 217.089 241.152 216.331 240.816 216.062C240.738 215.997 240.66 215.967 240.57 215.967V215.973Z" fill="#669933"/>
<path d="M213.12 217.954C212.67 217.954 212.256 217.883 212.022 217.68C211.872 217.549 211.806 217.375 211.824 217.161C211.836 217.035 211.896 216.934 211.998 216.874C212.544 216.57 214.368 217.489 214.572 217.59C214.614 217.614 214.638 217.656 214.626 217.698C214.62 217.745 214.584 217.775 214.542 217.787C214.158 217.865 213.618 217.948 213.12 217.948V217.954ZM212.298 217.023C212.214 217.023 212.148 217.035 212.1 217.065C212.058 217.089 212.034 217.125 212.034 217.178C212.022 217.322 212.064 217.435 212.166 217.519C212.442 217.763 213.192 217.805 214.188 217.644C213.564 217.346 212.73 217.023 212.304 217.023H212.298Z" fill="#669933"/>
<path d="M214.518 217.799C214.518 217.799 214.488 217.799 214.476 217.787C213.93 217.543 212.85 216.57 212.928 216.062C212.946 215.943 213.03 215.794 213.324 215.764C213.546 215.74 213.744 215.806 213.918 215.949C214.494 216.42 214.614 217.632 214.62 217.686C214.62 217.722 214.608 217.757 214.578 217.781C214.56 217.793 214.536 217.799 214.518 217.799ZM213.414 215.973C213.414 215.973 213.372 215.973 213.348 215.973C213.156 215.991 213.144 216.068 213.138 216.092C213.09 216.396 213.822 217.161 214.38 217.495C214.32 217.143 214.158 216.414 213.78 216.104C213.666 216.009 213.546 215.967 213.408 215.967L213.414 215.973Z" fill="#669933"/>
<path d="M236.1 137.754L231.66 138.93L235.344 143.365C235.344 143.365 238.902 141.532 238.134 139.545L236.106 137.754H236.1Z" fill="#FF8B7B"/>
<path d="M228.444 142.619L231.66 146.093L235.338 143.365L231.66 138.93L228.444 142.619Z" fill="#FF8B7B"/>
<path d="M84.978 89.9956C83.976 91.0103 82.902 92.1385 81.918 93.2607C80.916 94.3888 79.932 95.5349 79.002 96.7108C78.072 97.8867 77.19 99.0984 76.344 100.316L75.726 101.241L75.15 102.184C74.952 102.495 74.772 102.817 74.604 103.134L74.13 104.005C73.974 104.321 73.854 104.924 73.806 105.557C73.752 106.196 73.764 106.9 73.806 107.61C73.896 109.037 74.106 110.523 74.376 112.01C74.634 113.496 74.958 114.988 75.318 116.48C75.66 117.973 76.056 119.471 76.446 120.939L74.25 121.757C72.906 118.856 71.82 115.901 70.914 112.809C70.482 111.257 70.098 109.682 69.87 108.016C69.756 107.181 69.678 106.327 69.684 105.408C69.696 104.488 69.768 103.521 70.2 102.387C70.332 102.059 70.41 101.928 70.5 101.731L70.77 101.17C70.95 100.794 71.13 100.424 71.334 100.065L71.922 98.979L72.546 97.9225C73.392 96.5258 74.298 95.1708 75.282 93.8874C76.254 92.5981 77.262 91.3386 78.324 90.1269C79.404 88.9152 80.46 87.7572 81.696 86.5932L84.978 89.9956Z" fill="#B55B52"/>
<path d="M85.2299 82.8805C82.0139 83.0237 78.9659 88.3302 78.9659 88.3302L82.7579 96.0422C82.7579 96.0422 88.9619 92.1862 89.0339 87.5005C89.0819 84.4563 88.3919 82.7372 85.2299 82.8805Z" fill="#669933"/>
<path opacity="0.5" d="M85.2299 82.8805C82.0139 83.0237 78.9659 88.3302 78.9659 88.3302L82.7579 96.0422C82.7579 96.0422 88.9619 92.1862 89.0339 87.5005C89.0819 84.4563 88.3919 82.7372 85.2299 82.8805Z" fill="black"/>
<path d="M75.834 120.008L79.746 121.166L77.142 123.786C77.142 123.786 74.328 122.921 73.932 121.017L75.834 120.008Z" fill="#B55B52"/>
<path d="M82.11 124.157L81.456 126.664L77.142 123.786L79.746 121.166L82.11 124.157Z" fill="#B55B52"/>
<path d="M171.784 98.2087L76.903 100.466L77.7585 136.055L172.639 133.798L171.784 98.2087Z" fill="#669933"/>
<path opacity="0.6" d="M171.784 98.2087L76.903 100.466L77.7585 136.055L172.639 133.798L171.784 98.2087Z" fill="white"/>
<path d="M167.015 101.157L131.643 101.999L131.962 115.264L167.334 114.423L167.015 101.157Z" fill="#669933"/>
<path opacity="0.7" d="M167.015 101.157L131.643 101.999L131.962 115.264L167.334 114.423L167.015 101.157Z" fill="white"/>
<path d="M148.056 117.672L112.684 118.514L113.003 131.779L148.374 130.938L148.056 117.672Z" fill="#669933"/>
<path opacity="0.7" d="M148.056 117.672L112.684 118.514L113.003 131.779L148.374 130.938L148.056 117.672Z" fill="white"/>
<path d="M107.37 71.1214C107.31 71.4855 107.454 71.8198 107.694 71.8675C107.934 71.9153 108.18 71.6586 108.24 71.2885C108.3 70.9244 108.156 70.5902 107.916 70.5424C107.676 70.4947 107.43 70.7513 107.37 71.1214Z" fill="#424242"/>
<path d="M107.808 70.5424L108.738 70.4588C108.738 70.4588 108.168 71.0557 107.808 70.5424Z" fill="#424242"/>
<path d="M107.622 71.5333C107.622 71.5333 107.988 73.2225 108.552 74.1179C107.988 74.476 107.196 74.1059 107.196 74.1059L107.622 71.5333Z" fill="#A02724"/>
<path d="M108.27 68.7815C108.234 68.7815 108.198 68.7756 108.168 68.7577C107.298 68.2921 106.584 68.6442 106.554 68.6562C106.446 68.7099 106.314 68.6681 106.26 68.5607C106.206 68.4532 106.248 68.3219 106.356 68.2682C106.392 68.2503 107.304 67.7966 108.378 68.3697C108.486 68.4294 108.528 68.5607 108.468 68.6681C108.426 68.7398 108.354 68.7815 108.276 68.7815H108.27Z" fill="#424242"/>
<path d="M95.646 74.1298C95.73 76.9174 95.448 81.9373 93.252 83.364C93.252 83.364 93.54 86.2291 98.586 87.2021C104.13 88.2705 101.688 84.9875 101.688 84.9875C98.778 83.6923 99.228 81.4837 100.098 79.496L95.646 74.1238V74.1298Z" fill="#B55B52"/>
<path d="M110.754 90.3955C111.096 91.7863 111.534 93.3084 112.02 94.735C112.512 96.1736 113.04 97.6061 113.646 98.979C114.252 100.352 114.936 101.683 115.704 102.907C116.466 104.136 117.324 105.276 118.296 106.172C118.782 106.619 119.286 107.007 119.814 107.312C120.078 107.467 120.342 107.598 120.618 107.706C120.792 107.771 120.798 107.783 120.864 107.801C120.924 107.819 120.99 107.837 121.074 107.837C121.386 107.873 121.908 107.777 122.466 107.539C123.024 107.3 123.618 106.954 124.2 106.554C126.546 104.912 128.754 102.584 130.77 100.274L132.72 101.57C132.312 102.322 131.886 103.008 131.43 103.701C130.98 104.393 130.506 105.073 129.996 105.73C128.976 107.049 127.884 108.344 126.534 109.502C125.856 110.087 125.118 110.637 124.242 111.108C123.366 111.562 122.328 111.998 121.026 112.015C120.708 112.015 120.372 111.992 120.042 111.932C119.718 111.878 119.34 111.759 119.142 111.687C118.662 111.52 118.2 111.317 117.762 111.09C116.88 110.637 116.088 110.07 115.374 109.467C112.53 107.001 110.79 103.951 109.356 100.913C108.648 99.3849 108.024 97.827 107.502 96.2512C106.974 94.6574 106.512 93.1174 106.134 91.3983L110.766 90.4015L110.754 90.3955Z" fill="#B55B52"/>
<path d="M130.536 100.507L131.892 98.024L135.672 99.0208C135.672 99.0208 133.41 102.453 131.466 102.459L130.536 100.507Z" fill="#B55B52"/>
<path d="M134.976 97.1286L137.85 99.0208H135.672L131.898 98.024L134.976 97.1286Z" fill="#B55B52"/>
<path d="M83.58 217.369L88.212 217.71L89.586 207.127L84.954 206.786L83.58 217.369Z" fill="#B55B52"/>
<path d="M47.136 194.615L50.334 198.036L59.016 191.852L55.812 188.431L47.136 194.615Z" fill="#B55B52"/>
<path d="M51.738 197.504L49.068 192.968C48.972 192.801 48.78 192.735 48.612 192.801L44.808 194.329C44.412 194.49 44.256 195.009 44.49 195.385C45.45 196.949 45.99 197.66 47.16 199.653C47.88 200.883 48.816 202.745 49.812 204.44C50.79 206.1 52.5 205.27 52.23 204.482C51.03 200.931 51.654 199.898 51.894 198.322C51.936 198.036 51.882 197.749 51.738 197.504Z" fill="#424242"/>
<path d="M88.5 217.053H83.292C83.1 217.053 82.944 217.184 82.914 217.369L82.218 221.464C82.146 221.888 82.5 222.294 82.938 222.282C84.756 222.252 85.632 222.145 87.918 222.145C89.328 222.145 92.238 222.288 94.182 222.288C96.126 222.288 96.282 220.372 95.472 220.199C91.86 219.423 90.462 218.348 89.262 217.328C89.046 217.143 88.77 217.047 88.494 217.047L88.5 217.053Z" fill="#424242"/>
<path d="M89.586 207.127L88.824 213.012L84.246 212.248L84.954 206.792L89.586 207.127Z" fill="#9E4541"/>
<path d="M55.812 188.431L59.016 191.852L55.422 194.412L52.11 191.07L55.812 188.431Z" fill="#9E4541"/>
<path d="M83.928 110.947C87.522 111.639 95.136 113.108 102.504 114.528C111.282 88.8197 109.182 87.984 109.182 87.984C109.182 87.984 107.316 86.9514 104.964 86.0381C104.874 86.0023 104.79 85.9724 104.712 85.9426C103.524 85.5128 103.272 85.4472 101.682 84.9875C98.946 84.3429 96.396 83.8176 93.246 83.364C93.042 83.3341 92.838 83.3043 92.646 83.2804C92.076 83.2088 91.512 83.1491 90.96 83.0953C90.588 83.0536 90.222 83.0297 89.874 83.0058C89.46 82.9819 89.052 82.9581 88.674 82.9401C86.64 82.8387 85.188 82.8685 85.188 82.8685C86.25 98.9134 85.476 103.521 83.922 110.941L83.928 110.947Z" fill="#669933"/>
<path opacity="0.5" d="M83.928 110.947C87.522 111.639 95.136 113.108 102.504 114.528C111.282 88.8197 109.182 87.984 109.182 87.984C109.182 87.984 107.316 86.9514 104.964 86.0381C104.874 86.0023 104.79 85.9724 104.712 85.9426C103.524 85.5128 103.272 85.4472 101.682 84.9875C98.946 84.3429 96.396 83.8176 93.246 83.364C93.042 83.3341 92.838 83.3043 92.646 83.2804C92.076 83.2088 91.512 83.1491 90.96 83.0953C90.588 83.0536 90.222 83.0297 89.874 83.0058C89.46 82.9819 89.052 82.9581 88.674 82.9401C86.64 82.8387 85.188 82.8685 85.188 82.8685C86.25 98.9134 85.476 103.521 83.922 110.941L83.928 110.947Z" fill="black"/>
<path d="M105.426 95.8094C104.7 99.4267 105.468 102.435 105.972 103.874C107.514 98.8477 108.39 95.4095 108.864 93.0577C107.442 92.8727 105.924 93.3323 105.426 95.8094Z" fill="#669933"/>
<path opacity="0.6" d="M105.426 95.8094C104.7 99.4267 105.468 102.435 105.972 103.874C107.514 98.8477 108.39 95.4095 108.864 93.0577C107.442 92.8727 105.924 93.3323 105.426 95.8094Z" fill="black"/>
<path d="M109.026 87.9004C112.128 89.912 114.102 94.3888 114.624 96.9555L107.436 102.787C107.436 102.787 103.518 94.0844 104.802 91.8639C106.14 89.5479 107.856 87.1424 109.026 87.9064V87.9004Z" fill="#669933"/>
<path opacity="0.5" d="M109.026 87.9004C112.128 89.912 114.102 94.3888 114.624 96.9555L107.436 102.787C107.436 102.787 103.518 94.0844 104.802 91.8639C106.14 89.5479 107.856 87.1424 109.026 87.9064V87.9004Z" fill="black"/>
<path d="M95.19 67.7369C94.722 72.2734 94.428 74.1776 96.336 76.9233C99.204 81.048 104.928 80.7913 106.752 76.5234C108.396 72.6853 108.882 65.9104 104.742 63.2721C100.662 60.6755 95.658 63.2005 95.19 67.7369Z" fill="#B55B52"/>
<path d="M95.256 58.4789C92.454 60.5442 94.248 61.0397 93.054 63.1229C91.77 65.3553 90.432 62.8125 87.888 65.2717C86.238 66.8655 89.052 68.5547 87.006 71.3602C85.416 73.5389 83.682 71.6526 84.354 76.1175C84.81 79.1677 82.938 78.7857 81.672 80.5107C79.86 82.9819 81.486 84.7547 86.118 85.6859C90.75 86.6171 87.45 91.2491 91.806 91.3923C96.558 91.5416 95.454 85.3815 97.776 86.8797C100.008 88.3242 104.304 87.0111 104.052 83.3281C103.818 79.9497 100.05 80.069 103.104 77.759C105.492 75.9504 106.23 75.9743 104.538 72.1242C103.104 68.8532 108.372 69.3486 108.276 66.5133C108.102 61.3978 104.538 62.9318 103.422 60.3114C102.696 58.6102 98.856 55.8287 95.262 58.4789H95.256Z" fill="#424242"/>
<path d="M104.052 70.1007C104.046 70.9304 104.406 71.8078 104.874 72.4465C105.582 73.4076 106.41 73.1509 106.62 72.2734C106.806 71.4795 106.662 70.0231 105.756 69.3546C104.868 68.698 104.058 69.1516 104.046 70.1007H104.052Z" fill="#B55B52"/>
<path d="M97.602 113.585C97.602 113.585 88.554 143.735 84.132 161.099C79.47 179.418 57.21 194.353 57.21 194.353L52.458 189.649C52.458 189.649 67.338 177.156 71.856 160.055C81.03 125.35 76.614 117.996 83.928 110.941L97.602 113.573V113.585Z" fill="#669933"/>
<path opacity="0.8" d="M97.602 113.585C97.602 113.585 88.554 143.735 84.132 161.099C79.47 179.418 57.21 194.353 57.21 194.353L52.458 189.649C52.458 189.649 67.338 177.156 71.856 160.055C81.03 125.35 76.614 117.996 83.928 110.941L97.602 113.573V113.585Z" fill="white"/>
<path d="M57.612 195.039L51.684 189.172L53.298 187.393L60.516 193.505L57.612 195.039Z" fill="#669933"/>
<path d="M93.354 120.008C87.414 124.562 87.018 141.926 87.156 149.764C90.174 138.799 93.744 126.604 95.832 119.542C95.262 119.065 94.446 119.166 93.354 120.002V120.008Z" fill="#669933"/>
<path opacity="0.6" d="M93.354 120.008C87.414 124.562 87.018 141.926 87.156 149.764C90.174 138.799 93.744 126.604 95.832 119.542C95.262 119.065 94.446 119.166 93.354 120.002V120.008Z" fill="white"/>
<path d="M52.698 199.964C52.644 199.964 52.584 199.958 52.53 199.94C51.966 199.767 51.564 198.74 51.378 198.143C51.366 198.101 51.378 198.054 51.414 198.03C51.45 198 51.498 197.994 51.534 198.018C51.708 198.107 53.208 198.883 53.268 199.474C53.28 199.605 53.232 199.719 53.118 199.814C52.986 199.922 52.848 199.976 52.704 199.976L52.698 199.964ZM51.672 198.334C51.954 199.122 52.29 199.635 52.596 199.731C52.722 199.773 52.842 199.737 52.974 199.635C53.046 199.582 53.046 199.528 53.046 199.492C53.016 199.182 52.266 198.668 51.672 198.34V198.334Z" fill="#669933"/>
<path d="M102.228 114.528C102.228 114.528 103.386 151.011 100.794 164.752C98.1 179.042 89.892 211.556 89.892 211.556L83.214 210.696C83.214 210.696 87.438 177.854 89.232 163.654C91.188 148.17 88.626 111.908 88.626 111.908L102.228 114.528Z" fill="#669933"/>
<path opacity="0.8" d="M102.228 114.528C102.228 114.528 103.386 151.011 100.794 164.752C98.1 179.042 89.892 211.556 89.892 211.556L83.214 210.696C83.214 210.696 87.438 177.854 89.232 163.654C91.188 148.17 88.626 111.908 88.626 111.908L102.228 114.528Z" fill="white"/>
<path d="M91.314 211.938L81.792 210.714L81.906 208.464L92.268 208.911L91.314 211.938Z" fill="#669933"/>
<path d="M52.848 198.525C52.332 198.525 51.702 198.37 51.42 198.203C51.384 198.185 51.366 198.149 51.366 198.107C51.366 198.071 51.384 198.036 51.42 198.012C51.468 197.982 52.596 197.331 53.232 197.54C53.406 197.594 53.532 197.707 53.604 197.874C53.718 198.131 53.604 198.28 53.532 198.352C53.388 198.477 53.136 198.525 52.848 198.525ZM51.72 198.101C52.242 198.31 53.148 198.4 53.388 198.185C53.43 198.149 53.466 198.095 53.406 197.958C53.358 197.851 53.28 197.779 53.166 197.743C52.782 197.624 52.104 197.898 51.714 198.095L51.72 198.101Z" fill="#669933"/>
<path d="M90.222 217.859C89.712 217.859 89.16 217.769 88.77 217.692C88.722 217.68 88.692 217.644 88.68 217.602C88.674 217.554 88.698 217.513 88.74 217.489C88.95 217.381 90.828 216.438 91.386 216.755C91.494 216.814 91.554 216.916 91.566 217.047C91.578 217.262 91.506 217.441 91.356 217.578C91.116 217.787 90.69 217.859 90.228 217.859H90.222ZM89.136 217.537C90.156 217.704 90.918 217.662 91.206 217.411C91.308 217.322 91.35 217.208 91.344 217.059C91.344 217.005 91.32 216.97 91.278 216.946C90.972 216.773 89.904 217.178 89.136 217.543V217.537Z" fill="#669933"/>
<path d="M88.788 217.692C88.788 217.692 88.74 217.686 88.722 217.674C88.692 217.65 88.674 217.614 88.68 217.572C88.692 217.489 88.926 215.489 90.03 215.609C90.33 215.638 90.414 215.788 90.438 215.913C90.522 216.432 89.4 217.435 88.836 217.686C88.824 217.692 88.806 217.698 88.794 217.698L88.788 217.692ZM89.94 215.823C89.274 215.823 89.01 216.916 88.926 217.387C89.502 217.047 90.264 216.259 90.216 215.949C90.216 215.925 90.198 215.847 90.006 215.829C89.982 215.829 89.964 215.829 89.94 215.829V215.823Z" fill="#669933"/>
<path d="M83.8321 109.819L82.7221 111.305C82.6381 111.419 82.7641 111.58 82.9801 111.622L102.462 115.376C102.63 115.406 102.78 115.352 102.81 115.251L103.248 113.639C103.278 113.526 103.152 113.4 102.966 113.37L84.1501 109.747C84.0121 109.723 83.8801 109.747 83.8261 109.825L83.8321 109.819Z" fill="#669933"/>
<path d="M86.01 112.386L85.506 112.29C85.404 112.272 85.338 112.206 85.356 112.141L85.95 110.052C85.968 109.992 86.064 109.956 86.166 109.974L86.67 110.07C86.772 110.087 86.838 110.153 86.82 110.219L86.226 112.308C86.208 112.368 86.112 112.403 86.01 112.386Z" fill="#669933"/>
<path opacity="0.8" d="M86.01 112.386L85.506 112.29C85.404 112.272 85.338 112.206 85.356 112.141L85.95 110.052C85.968 109.992 86.064 109.956 86.166 109.974L86.67 110.07C86.772 110.087 86.838 110.153 86.82 110.219L86.226 112.308C86.208 112.368 86.112 112.403 86.01 112.386Z" fill="white"/>
<path d="M98.7361 114.869L98.2321 114.773C98.1301 114.755 98.0641 114.69 98.0821 114.624L98.6761 112.535C98.6941 112.475 98.7901 112.439 98.8921 112.457L99.3961 112.553C99.4981 112.571 99.5641 112.636 99.5461 112.702L98.9521 114.791C98.9341 114.851 98.8381 114.887 98.7361 114.869Z" fill="#669933"/>
<path opacity="0.8" d="M98.7361 114.869L98.2321 114.773C98.1301 114.755 98.0641 114.69 98.0821 114.624L98.6761 112.535C98.6941 112.475 98.7901 112.439 98.8921 112.457L99.3961 112.553C99.4981 112.571 99.5641 112.636 99.5461 112.702L98.9521 114.791C98.9341 114.851 98.8381 114.887 98.7361 114.869Z" fill="white"/>
</g>
<defs>
<clipPath id="clip0_62_99">
<rect width="300" height="230" fill="white"/>
</clipPath>
</defs>
</svg>
