<svg width="300" height="134" fill="none" xmlns="http://www.w3.org/2000/svg"><g clip-path="url(#a)"><path d="M184.309 69.09c-2.525 2.367-5.846 3.544-9.987 3.544h-.898c-5.7 0-10.447-2.86-14.251-8.567-1.391-2.77-2.076-5.551-2.076-8.344 0-6.246 3.064-11.203 9.191-14.87 2.614-1.222 5.161-1.828 7.653-1.828 6.351 0 11.378 3.107 15.092 9.308 1.133 2.557 1.706 5.17 1.706 7.861V69.64c0 1.648-1.021 2.658-3.052 3.005h-.225c-1.414 0-2.457-.83-3.153-2.49V69.092ZM163.516 55.6v.336c0 4.24 2.132 7.413 6.385 9.544 1.324.493 2.513.74 3.568.74h.887c3.523 0 6.418-1.772 8.707-5.293.831-1.649 1.235-3.23 1.235-4.733v-.47c0-4.071-2.009-7.19-6.037-9.353a10.384 10.384 0 0 0-4.332-.931h-.123c-4.287 0-7.507 2.231-9.662 6.695-.415 1.357-.628 2.512-.628 3.465Zm124.646 13.49c-2.525 2.367-5.847 3.544-9.987 3.544h-.898c-5.7 0-10.447-2.86-14.251-8.567-1.391-2.77-2.076-5.551-2.076-8.344 0-6.246 3.063-11.203 9.19-14.87 2.615-1.222 5.162-1.828 7.653-1.828 6.351 0 11.379 3.107 15.093 9.308 1.133 2.557 1.705 5.17 1.705 7.861V69.64c0 1.648-1.021 2.658-3.052 3.005h-.224c-1.414 0-2.458-.83-3.153-2.49V69.092ZM267.369 55.6v.336c0 4.24 2.132 7.413 6.385 9.544 1.324.493 2.513.74 3.568.74h.886c3.524 0 6.419-1.772 8.708-5.293.83-1.649 1.234-3.23 1.234-4.733v-.47c0-4.071-2.008-7.19-6.037-9.353a10.38 10.38 0 0 0-4.331-.931h-.123c-4.287 0-7.507 2.231-9.662 6.695-.415 1.357-.628 2.512-.628 3.465Zm-37.625-16.765h.224c1.65 0 2.996 1.469 4.04 4.407l9.123 18.761c6.732-14.287 10.368-21.722 10.929-22.327.741-.561 1.493-.841 2.233-.841 2.11.392 3.165 1.435 3.165 3.14v.123c0 .538-1.74 4.407-5.218 11.607l-8.73 17.909c-.898.684-1.706 1.031-2.39 1.031h-.101c-1.762 0-3.221-1.67-4.377-5.035-7.518-15.34-11.502-23.673-11.95-25.019v-.818c.37-1.963 1.391-2.95 3.041-2.95l.011.012Zm-9.897 0c2.042.504 3.074 1.48 3.074 2.915v27.868c0 1.67-1.043 2.691-3.108 3.039h-.18c-1.694 0-2.749-1.054-3.142-3.163V42.378c.247-2.366 1.37-3.532 3.344-3.532l.012-.011Zm-9.583 1.076a3.1 3.1 0 0 1 2.053 2.905c0 1.514-1.111 2.78-2.558 3.039-.135.056-.281.123-.438.168l-1.851-.123h-3.266v15.8c0 2.479.696 3.959 2.11 4.441l2.457.213h1.246c1.504 0 2.457 1.01 2.85 3.006v.291c-.348 2.008-1.38 3.006-3.108 3.006h-2.379c-4.017 0-6.991-2.176-8.932-6.516-.348-1.099-.528-2.355-.528-3.757V45.9h-1.301l-1.998.123c-.123-.045-.235-.09-.348-.135a3.104 3.104 0 0 1-2.85-3.072 3.09 3.09 0 0 1 1.504-2.647c.292-.291.628-.437 1.01-.437h3.972V31.04c.247-2.254 1.212-3.376 2.884-3.376h.527c1.919.415 2.884 1.335 2.884 2.77v9.308h3.703l1.021-.123c.505 0 .943.1 1.336.303v-.012Zm9.661-9.06a3.355 3.355 0 0 1 3.209 3.341c0 1.794-1.503 3.353-3.355 3.353a3.358 3.358 0 0 1-3.211-2.383 3.35 3.35 0 0 1 1.349-3.762c.516-.382 1.155-.572 1.918-.572l.068.022h.022Zm-96.716 8.174c2.009.516 3.019 1.492 3.019 2.916v.471c2.468-2.254 5.824-3.376 10.054-3.376 4.657 0 8.764 1.93 12.343 5.776 2.615 3.23 3.917 6.627 3.917 10.205v14.746c0 1.537-1.022 2.501-3.053 2.894h-.314c-2.031-.37-3.052-1.425-3.052-3.14V56.542c0-5.394-2.289-8.915-6.867-10.586-1.111-.292-2.11-.438-2.974-.438h-.337c-3.826 0-6.8 2.008-8.909 6-.539 1.177-.808 3.162-.808 5.966V69.65c0 1.649-1.021 2.658-3.052 3.006h-.225c-1.705 0-2.76-1.054-3.153-3.163V42.58c.258-2.366 1.38-3.532 3.4-3.532l.011-.023Z" fill="#230B0B"/><path d="M279.667 92.92v.427c0 2.927 1.414 5.18 4.231 6.796a6.911 6.911 0 0 0 3.231.773h.516c3.008 0 5.319-1.57 6.924-4.71.359-.975.539-1.928.539-2.86v-.425c0-2.434-1.123-4.475-3.344-6.146-1.291-.886-2.783-1.334-4.466-1.334-3.288 0-5.701 1.738-7.249 5.203-.247.819-.371 1.57-.371 2.277m7.721-12.37c3.265 0 6.205 1.234 8.842 3.701C298.754 86.9 300 89.87 300 93.18c0 4.732-2.233 8.455-6.688 11.146-1.952.987-3.838 1.481-5.667 1.481h-.706c-3.401 0-6.554-1.593-9.471-4.778-1.796-2.534-2.693-5.147-2.693-7.85 0-4.104 1.806-7.547 5.431-10.305 2.311-1.537 4.701-2.322 7.181-2.322h.012Zm-36.245-.1c1.515.392 2.278 1.12 2.278 2.197v.348c1.863-1.704 4.399-2.545 7.585-2.545 3.513 0 6.61 1.457 9.314 4.35 1.975 2.434 2.962 5.002 2.962 7.705v11.113c0 1.155-.763 1.884-2.3 2.175h-.236c-1.537-.28-2.3-1.065-2.3-2.366V93.65c0-4.06-1.728-6.729-5.184-7.985-.842-.213-1.594-.325-2.244-.325h-.258c-2.884 0-5.129 1.514-6.722 4.52-.404.885-.606 2.388-.606 4.496v9.173c0 1.245-.763 2.008-2.3 2.265h-.169c-1.29 0-2.076-.796-2.378-2.388V83.108c.19-1.783 1.043-2.669 2.569-2.669l-.011.012Zm-25.506 12.47v.426c0 2.927 1.414 5.18 4.23 6.796a6.918 6.918 0 0 0 3.232.773h.516c3.008 0 5.319-1.57 6.924-4.71.359-.975.539-1.928.539-2.86v-.425c0-2.434-1.123-4.475-3.344-6.146-1.291-.886-2.783-1.334-4.466-1.334-3.288 0-5.701 1.738-7.249 5.203-.247.819-.371 1.57-.371 2.277h-.011Zm7.72-12.37c3.266 0 6.206 1.234 8.843 3.701 2.513 2.647 3.759 5.618 3.759 8.927 0 4.732-2.233 8.455-6.688 11.146-1.953.987-3.838 1.481-5.667 1.481h-.707c-3.4 0-6.553-1.593-9.471-4.778-1.795-2.534-2.693-5.147-2.693-7.85 0-4.104 1.807-7.547 5.431-10.305 2.312-1.537 4.702-2.322 7.182-2.322h.011ZM198.481 92.72v.448c0 3.32 1.74 5.787 5.23 7.402.908.269 1.739.403 2.479.403h.539c3.221 0 5.656-1.738 7.316-5.203.258-1.043.404-1.85.404-2.422v-.538c0-3.297-1.761-5.765-5.296-7.402-1.077-.269-1.919-.404-2.514-.404h-.348c-3.22 0-5.655 1.705-7.316 5.136-.325.954-.494 1.806-.494 2.569v.01Zm-2.625-21.845h.404c1.481.325 2.221 1.065 2.221 2.22v9.835c1.93-1.84 4.59-2.759 8.001-2.759 3.411 0 6.284 1.245 8.966 3.746 2.57 2.68 3.849 5.708 3.849 9.06 0 4.812-2.267 8.591-6.823 11.338-1.986.998-3.905 1.503-5.734 1.503h-.707c-3.467 0-6.688-1.615-9.65-4.845-1.829-2.433-2.738-5.293-2.738-8.59V73.116c0-1.155.741-1.906 2.222-2.231l-.011-.011Zm-20.03 9.397c1.526.392 2.289 1.121 2.289 2.198v.37c1.93-1.716 4.455-2.568 7.563-2.568 1.672 0 3.49.426 5.431 1.267.673.684 1.01 1.346 1.01 1.985v.168c-.258 1.525-1.055 2.288-2.368 2.288h-.213c-1.605-.516-2.783-.774-3.512-.774h-.516c-3.153 0-5.465 1.638-6.924 4.923-.314.853-.471 1.85-.471 2.995v10.395c0 1.267-.786 2.03-2.345 2.288h-.135c-1.279 0-2.065-.797-2.368-2.389V82.951c.18-1.794 1.044-2.691 2.548-2.691l.011.011Zm-12.467 22.866c-1.896 1.783-4.41 2.68-7.53 2.68h-.684c-4.298 0-7.877-2.153-10.75-6.46-1.044-2.097-1.571-4.182-1.571-6.29 0-4.71 2.312-8.445 6.924-11.215 1.974-.92 3.893-1.38 5.767-1.38 4.792 0 8.585 2.345 11.379 7.021.852 1.929 1.29 3.903 1.29 5.921v10.138c0 1.244-.763 2.007-2.3 2.265h-.169c-1.066 0-1.851-.628-2.379-1.873v-.796l.023-.011Zm-15.676-10.171v.257c0 3.196 1.604 5.596 4.814 7.2.998.37 1.896.561 2.693.561h.673c2.648 0 4.848-1.335 6.565-3.993.628-1.244.931-2.433.931-3.566v-.347c0-3.062-1.515-5.428-4.556-7.054a7.85 7.85 0 0 0-3.265-.707h-.101c-3.232 0-5.656 1.683-7.283 5.047-.314 1.02-.471 1.895-.471 2.613v-.011Zm-15.575-12.594c3.276 0 6.272 1.245 8.988 3.746.258.482.404.93.404 1.323v.168c-.281 1.525-1.066 2.288-2.368 2.288h-.101c-.572 0-1.638-.584-3.175-1.761-1.156-.594-2.323-.886-3.49-.886h-.516c-3.109 0-5.465 1.637-7.07 4.923-.37 1.11-.561 2.108-.561 2.994 0 3.174 1.65 5.585 4.938 7.245.965.37 2.008.56 3.142.56 1.84 0 3.714-.807 5.621-2.41l.954-.214h.348c1.246 0 2.009.763 2.267 2.288v.146c0 1.536-2.043 3.084-6.127 4.642-1.347.247-2.345.37-2.996.37h-.707c-3.434 0-6.621-1.603-9.561-4.822-1.817-2.545-2.726-5.18-2.726-7.894 0-4.138 1.829-7.615 5.498-10.407 2.323-1.537 4.735-2.322 7.238-2.322v.023Z" fill="#fff"/><path d="M31.689 18.346c10.503-5.64 23.15-7.289 35.47-3.6 12.321 3.701 21.983 12.045 27.627 22.541 5.644 10.497 7.294 23.135 3.602 35.437-3.703 12.324-12.052 21.98-22.555 27.632-10.48 5.629-23.093 7.278-35.38 3.622h-.056v-.023h-.034a46.523 46.523 0 0 1-27.627-22.54C7.103 70.94 5.454 58.336 9.112 46.057l.022-.09c3.703-12.313 12.052-21.969 22.555-27.61m33.82 1.447c-10.884-3.23-22.05-1.76-31.318 3.219-9.291 5.001-16.686 13.535-19.974 24.435l-.033.101c-3.254 10.9-1.796 22.081 3.198 31.366 4.993 9.263 13.499 16.631 24.361 19.928.09.022.168.045.258.078 10.885 3.23 22.05 1.761 31.319-3.218a41.126 41.126 0 0 0 19.94-24.346c.022-.09.045-.168.078-.258 3.232-10.878 1.762-22.036-3.22-31.299a41.14 41.14 0 0 0-24.361-19.927 2.286 2.286 0 0 1-.259-.079h.012Z" fill="#230B0B"/><path d="M27.896 6.336C39.836-.09 54.221-1.95 68.236 2.254 82.253 6.46 93.238 15.947 99.657 27.88c6.43 11.931 8.292 26.32 4.085 40.314C99.533 82.2 90.039 93.18 78.1 99.594c-11.94 6.426-26.336 8.287-40.34 4.082C23.744 99.47 12.759 89.983 6.34 78.051-.09 66.119-1.952 51.73 2.256 37.736c4.208-14.007 13.7-24.974 25.64-31.4Zm38.826.987C54.109 3.533 41.148 5.215 30.41 10.99 19.66 16.765 11.12 26.645 7.339 39.238c-3.793 12.605-2.11 25.558 3.67 36.29 5.778 10.743 15.664 19.277 28.266 23.056 12.612 3.79 25.573 2.108 36.311-3.667 10.75-5.776 19.29-15.655 23.071-28.249 3.793-12.604 2.11-25.557-3.669-36.289-5.779-10.743-15.665-19.277-28.266-23.056Z" fill="#230B0B"/><path d="M52 59.11a2.657 2.657 0 0 1 2.603-2.164c.448 0 .875.112 1.245.314.146-.36.213-.752.213-1.155 0-.864-.347-1.66-.92-2.22a3.13 3.13 0 0 0-2.222-.92 3.13 3.13 0 0 0-2.221.92 3.127 3.127 0 0 0-.92 2.22c0 .863.347 1.648.92 2.22.359.359.796.628 1.29.785m22.824 7.502a2.657 2.657 0 0 1 3.25 1.79 2.652 2.652 0 0 1-1.713 3.29c-3.87 1.167-6.833 2.355-9.785 3.544-2.883 1.155-5.767 2.31-9.302 3.42v52.146a2.645 2.645 0 0 1-2.648 2.647 2.653 2.653 0 0 1-2.648-2.647V85.43c-11.379-.079-18.93-4.262-22.847-9.611-1.694-2.321-2.704-4.856-3.063-7.401a14.55 14.55 0 0 1 .909-7.559c2.008-4.945 6.811-8.904 14.217-9.857a2.643 2.643 0 0 1 3.002 2.281 2.638 2.638 0 0 1-2.34 2.956c-5.285.684-8.64 3.33-9.964 6.605-.618 1.514-.808 3.174-.573 4.845.247 1.704.932 3.431 2.099 5.013 3.018 4.138 9.123 7.367 18.57 7.434V72.87a2.185 2.185 0 0 1-.246-.09l-12.074-4.833a2.642 2.642 0 0 1-1.47-3.443 2.642 2.642 0 0 1 3.445-1.47l10.357 4.15v-2.68a8.459 8.459 0 0 1-5.005-2.422 8.437 8.437 0 0 1-1.834-9.204 8.436 8.436 0 0 1 1.834-2.74 8.45 8.45 0 0 1 5.981-2.478c2.334 0 4.444.942 5.981 2.479a8.44 8.44 0 0 1 2.48 5.977c0 2.332-.942 4.44-2.48 5.966a8.323 8.323 0 0 1-1.65 1.278v7.727c6.094-6.527 8.742-13.29 8.776-18.75.01-2.367-.46-4.441-1.37-6.09-.83-1.536-2.041-2.702-3.556-3.375-2.682-1.189-6.419-.92-10.941 1.458a2.655 2.655 0 0 1-3.58-1.11c-.684-1.29-.18-2.894 1.111-3.578 6.093-3.207 11.457-3.431 15.564-1.604 2.603 1.156 4.657 3.13 6.037 5.675 1.324 2.433 2.031 5.383 2.009 8.635-.034 5.36-2.043 11.651-6.531 17.875 3.063-1.233 6.15-2.456 10.032-3.622l-.034.011Z" fill="#230B0B"/></g><defs><clipPath id="a"><path fill="#fff" d="M0 0h300v133.449H0z"/></clipPath></defs></svg>