<svg width="100" height="100" viewBox="0 0 100 100" fill="none" xmlns="http://www.w3.org/2000/svg">
<g clip-path="url(#clip0_91_104)">
<path fill-rule="evenodd" clip-rule="evenodd" d="M59.0672 14.8319C50.9159 12.4117 42.5546 13.5126 35.6134 17.2437C28.6554 20.9916 23.1176 27.3865 20.6554 35.5546L20.6302 35.6302C18.1933 43.7983 19.2857 52.1764 23.0252 59.1344C26.7563 66.0756 33.1344 71.5966 41.2689 74.0672C41.3361 74.084 41.3949 74.1008 41.4622 74.126C49.6134 76.5462 57.9748 75.4453 64.9159 71.7143C71.8571 67.9832 77.3781 61.605 79.8487 53.4706C79.8655 53.4033 79.8823 53.3445 79.9075 53.2773C82.3277 45.126 81.2269 36.7647 77.4958 29.8235C73.7647 22.8823 67.3865 17.3613 59.2521 14.8907C59.1849 14.8739 59.126 14.8571 59.0588 14.8319" fill="#ABD037"/>
<path d="M33.7311 13.7479C41.5966 9.521 51.0672 8.28571 60.2941 11.0504C69.521 13.8235 76.7563 20.0756 80.9832 27.9412C85.2101 35.8067 86.4454 45.2773 83.6807 54.4958C80.9076 63.7311 74.6555 70.9664 66.7899 75.2017C58.9412 79.4202 49.4958 80.6555 40.2941 77.916H40.2521V77.8991H40.2269C31 75.1176 23.7647 68.8655 19.5378 61.0084C15.3193 53.1597 14.084 43.7143 16.8235 34.5126L16.8403 34.4454C19.6135 25.2185 25.8656 17.9832 33.7311 13.7563M59.0588 14.8403C50.9076 12.4202 42.5462 13.521 35.6051 17.2521C28.6471 21 23.1093 27.3949 20.6471 35.563L20.6219 35.6386C18.1849 43.8067 19.2773 52.1849 23.0168 59.1428C26.7563 66.084 33.1261 71.605 41.2605 74.0756C41.3277 74.0924 41.3866 74.1092 41.4538 74.1344C49.6051 76.5546 57.9664 75.4538 64.9076 71.7227C71.8487 67.9916 77.3698 61.6134 79.8403 53.479C79.8572 53.4118 79.874 53.3529 79.8992 53.2857C82.3193 45.1344 81.2185 36.7731 77.4874 29.8319C73.7563 22.8907 67.3782 17.3697 59.2437 14.8992C59.1765 14.8823 59.1177 14.8655 59.0504 14.8403H59.0588Z" fill="#230B0B"/>
<path d="M30.8909 4.74802C39.8321 -0.0671074 50.6052 -1.46207 61.101 1.6892C71.5968 4.84046 79.8237 11.9497 84.6304 20.8909C89.4455 29.8321 90.8405 40.6136 87.6892 51.101C84.538 61.5968 77.4287 69.8237 68.4875 74.6304C59.5464 79.4455 48.7649 80.8405 38.2775 77.6892C27.7817 74.5379 19.5548 67.4287 14.748 58.4875C9.93292 49.5463 8.53797 38.7648 11.6892 28.2774C14.8405 17.7816 21.9497 9.56314 30.8909 4.74802ZM59.9665 5.48751C50.5212 2.64718 40.8153 3.90768 32.7733 8.23541C24.7228 12.5631 18.3279 19.9665 15.4959 29.4035C12.6556 38.8489 13.9161 48.5547 18.2438 56.5968C22.5716 64.6472 29.9749 71.0421 39.4119 73.8741C48.8573 76.7144 58.5632 75.4539 66.6052 71.1262C74.6556 66.7984 81.0506 59.3951 83.8825 49.9581C86.7228 40.5127 85.4623 30.8068 81.1346 22.7648C76.8069 14.7144 69.4035 8.31945 59.9665 5.48751Z" fill="#230B0B"/>
<path d="M48.9412 44.2941C49.1177 43.3697 49.9244 42.6722 50.8908 42.6722C51.2269 42.6722 51.5462 42.7563 51.8235 42.9075C51.9328 42.6386 51.9832 42.3445 51.9832 42.042C51.9832 41.3949 51.7227 40.7983 51.2941 40.3781C50.8656 39.9496 50.2773 39.689 49.6303 39.689C48.9832 39.689 48.395 39.9496 47.9664 40.3781C47.5378 40.8067 47.2773 41.3949 47.2773 42.042C47.2773 42.689 47.5378 43.2773 47.9664 43.7059C48.2353 43.9748 48.563 44.1764 48.9328 44.2941M66.0252 49.9159C67.0756 49.5966 68.1849 50.1933 68.5042 51.2437C68.8235 52.2941 68.2269 53.4033 67.1765 53.7227C64.2773 54.5966 62.0588 55.4874 59.8488 56.3781C57.6891 57.2437 55.5294 58.1092 52.8824 58.9411V98.0168C52.8824 99.1176 51.9916 100 50.8992 100C49.8067 100 48.916 99.1092 48.916 98.0168V64.0168C40.395 63.958 34.7395 60.8235 31.8067 56.8151C30.5378 55.0756 29.7815 53.1764 29.5126 51.2689C29.2353 49.3277 29.4706 47.3865 30.1933 45.605C31.6975 41.8991 35.2941 38.9327 40.8403 38.2185C41.9244 38.084 42.916 38.8487 43.0504 39.9327C43.1849 41.0168 42.4202 42.0084 41.3361 42.1428C37.3782 42.6554 34.8656 44.6386 33.874 47.0924C33.4118 48.2269 33.2689 49.4706 33.4454 50.7227C33.6303 52 34.1429 53.2941 35.0168 54.479C37.2773 57.5798 41.8488 60 48.9244 60.0504V54.605C48.8656 54.5882 48.7983 54.563 48.7395 54.5378L39.6975 50.9159C38.6807 50.5126 38.1849 49.3529 38.5966 48.3361C39 47.3193 40.1597 46.8235 41.1765 47.2353L48.9328 50.3445V48.3361C47.479 48.168 46.1681 47.5042 45.1849 46.521C44.042 45.3781 43.3277 43.7899 43.3277 42.0504C43.3277 40.3109 44.0336 38.7227 45.1849 37.5714C46.3277 36.4285 47.916 35.7143 49.6639 35.7143C51.4118 35.7143 52.9916 36.4201 54.1429 37.5714C55.2857 38.7143 56 40.3025 56 42.0504C56 43.7983 55.2941 45.3781 54.1429 46.521C53.7731 46.8907 53.3614 47.2101 52.9076 47.479V53.2689C57.4706 48.3781 59.4538 43.3109 59.479 39.2185C59.4874 37.4453 59.1345 35.8907 58.4538 34.6554C57.8319 33.5042 56.9244 32.6302 55.7899 32.126C53.7815 31.2353 50.9832 31.4369 47.5967 33.2185C46.6303 33.7311 45.4286 33.3529 44.916 32.3865C44.4034 31.4201 44.7815 30.2185 45.7479 29.7059C50.3109 27.3025 54.3277 27.1344 57.4034 28.5042C59.353 29.3697 60.8908 30.8487 61.9244 32.7563C62.916 34.5798 63.4454 36.7899 63.4286 39.2269C63.4034 43.2437 61.8992 47.958 58.5378 52.6218C60.8319 51.6975 63.1429 50.7815 66.0504 49.9075L66.0252 49.9159Z" fill="#230B0B"/>
</g>
<defs>
<clipPath id="clip0_91_104">
<rect width="79.3782" height="100" fill="white" transform="translate(10)"/>
</clipPath>
</defs>
</svg>
