<svg width="116" height="80" viewBox="0 0 116 80" fill="none" xmlns="http://www.w3.org/2000/svg">
<path fill-rule="evenodd" clip-rule="evenodd" d="M90.0039 69.7023C99.3934 69.7023 107.005 62.1292 107.005 52.7873C107.005 43.4455 99.3934 35.8724 90.0039 35.8724C80.6145 35.8724 73.0029 43.4455 73.0029 52.7873C73.0029 62.1292 80.6145 69.7023 90.0039 69.7023ZM90.0039 65.3906C97 65.3906 102.671 59.7479 102.671 52.7873C102.671 45.8268 97 40.1841 90.0039 40.1841C83.0079 40.1841 77.3365 45.8268 77.3365 52.7873C77.3365 59.7479 83.0079 65.3906 90.0039 65.3906Z" fill="url(#paint0_radial_57_205)"/>
<path d="M72.6695 18.6259L77.5031 28.41L81.6701 27.5808L82.6701 25.9225L83.8369 19.455L82.6701 18.1284L72.6695 18.6259Z" fill="url(#paint1_radial_57_205)"/>
<path d="M90.1399 63.7458C83.9407 63.7458 78.897 58.7277 78.897 52.5675C78.897 48.578 81.0026 45.0762 84.1649 43.0909C84.7161 42.7468 85.2976 42.4442 85.9095 42.206C87.217 41.6728 88.6461 41.3816 90.1399 41.3816C96.339 41.3816 101.383 46.3998 101.383 52.5713C101.383 58.7315 96.339 63.7496 90.1399 63.7496V63.7458ZM90.1399 39.4266C88.3231 39.4266 86.5899 39.7896 85.0125 40.4551C84.4082 40.7123 83.8229 41.0035 83.2679 41.3438C79.4747 43.6581 76.9357 47.8254 76.9357 52.5675C76.9357 59.8092 82.8575 65.6971 90.1399 65.6971C97.4223 65.6971 103.344 59.8092 103.344 52.5675C103.344 45.3145 97.4223 39.4303 90.1399 39.4303V39.4266ZM90.1399 68.382C81.3713 68.382 74.2372 61.2803 74.2372 52.5675C74.2372 46.7779 77.369 41.7144 82.0327 38.9576C82.5914 38.6211 83.1729 38.3299 83.7773 38.0614C85.7271 37.2106 87.8784 36.7416 90.1361 36.7416C98.9046 36.7416 106.035 43.8434 106.035 52.5675C106.035 61.284 98.9008 68.382 90.1361 68.382H90.1399ZM90.1399 34.7903C87.5591 34.7903 85.1037 35.3387 82.8879 36.3257C82.2873 36.5904 81.7058 36.8816 81.1433 37.2106C75.8449 40.3039 72.2797 46.0216 72.2797 52.5675C72.2797 62.3656 80.2919 70.3333 90.1399 70.3333C99.9878 70.3333 108 62.3618 108 52.5675C108 42.7619 99.9878 34.7903 90.1399 34.7903ZM90.1399 63.7458C83.9407 63.7458 78.897 58.7277 78.897 52.5675C78.897 48.578 81.0026 45.0762 84.1649 43.0909C84.7161 42.7468 85.2976 42.4442 85.9095 42.206C87.217 41.6728 88.6461 41.3816 90.1399 41.3816C96.339 41.3816 101.383 46.3998 101.383 52.5713C101.383 58.7315 96.339 63.7496 90.1399 63.7496V63.7458ZM90.1399 39.4266C88.3231 39.4266 86.5899 39.7896 85.0125 40.4551C84.4082 40.7123 83.8229 41.0035 83.2679 41.3438C79.4747 43.6581 76.9357 47.8254 76.9357 52.5675C76.9357 59.8092 82.8575 65.6971 90.1399 65.6971C97.4223 65.6971 103.344 59.8092 103.344 52.5675C103.344 45.3145 97.4223 39.4303 90.1399 39.4303V39.4266ZM90.1399 63.7458C83.9407 63.7458 78.897 58.7277 78.897 52.5675C78.897 48.578 81.0026 45.0762 84.1649 43.0909C84.7161 42.7468 85.2976 42.4442 85.9095 42.206C87.217 41.6728 88.6461 41.3816 90.1399 41.3816C96.339 41.3816 101.383 46.3998 101.383 52.5713C101.383 58.7315 96.339 63.7496 90.1399 63.7496V63.7458ZM90.1399 39.4266C88.3231 39.4266 86.5899 39.7896 85.0125 40.4551C84.4082 40.7123 83.8229 41.0035 83.2679 41.3438C79.4747 43.6581 76.9357 47.8254 76.9357 52.5675C76.9357 59.8092 82.8575 65.6971 90.1399 65.6971C97.4223 65.6971 103.344 59.8092 103.344 52.5675C103.344 45.3145 97.4223 39.4303 90.1399 39.4303V39.4266Z" fill="#1F1A1A"/>
<path d="M69.5013 52.5637H67.5401C67.5401 46.551 69.8928 40.9051 74.1612 36.6584C78.4295 32.4117 84.1079 30.0709 90.1437 30.0709C93.9825 30.0709 97.7758 31.0466 101.109 32.8882L100.155 34.5975C97.1106 32.9147 93.648 32.0184 90.1399 32.0184C78.7564 32.0184 69.5013 41.2303 69.5013 52.5599V52.5637Z" fill="#1F1A1A"/>
<path d="M25.5789 55.9066H25.5637C24.6059 55.9066 23.7317 55.3847 23.2756 54.549C22.7092 53.4939 22.9297 52.2082 23.8153 51.4103L27.2969 48.2527L26.7077 47.988C26.2288 47.7649 25.7385 47.5985 25.233 47.4926L22.4964 49.9657C20.9457 51.3649 20.5542 53.6339 21.55 55.4717C22.3482 56.9427 23.8837 57.8579 25.5637 57.8579H25.5903L30.5504 57.8314C30.7138 57.4419 30.8468 57.0448 30.9457 56.6251L31.1243 55.8801L25.5827 55.9066H25.5789ZM70.2767 32.2793C68.0266 33.8298 66.32 36.1176 65.4763 38.708L60.3147 54.5074C60.0791 55.2335 59.4025 55.7213 58.6347 55.7288L39.0756 55.8347L31.1205 55.8801L25.5789 55.9066H25.5637C24.6059 55.9066 23.7317 55.3847 23.2756 54.549C22.7092 53.4939 22.9297 52.2082 23.8153 51.4103L27.2969 48.2527L33.3174 42.8072L34.8415 41.4269C35.328 40.9845 35.5295 40.3189 35.3622 39.6799C35.195 39.0521 34.6895 38.5605 34.0471 38.413L20.4211 35.3084C18.7564 34.9264 17.3501 33.9167 16.4645 32.4722C15.7233 31.2583 15.423 29.8742 15.5941 28.4902L38.6956 30.9974C41.2383 31.2734 43.8153 31.2205 46.3428 30.831L46.5861 30.7969C52.0707 29.9536 57.2246 27.3217 61.1015 23.3661L61.74 22.7195C63.6404 20.7758 66.0616 19.5089 68.7412 19.04L71.5348 18.5446L76.4151 28.0326L70.2729 32.2793H70.2767ZM78.0836 26.9851L74.0965 19.2442L73.0931 17.2929L72.6218 16.3702L70.5998 16.7257L68.3953 17.1152C65.309 17.656 62.5192 19.1194 60.3337 21.3544L59.6952 22.0086C56.1148 25.654 51.3523 28.0893 46.2858 28.8608L46.0426 28.9062C43.6823 29.2616 41.2801 29.3146 38.9084 29.0574L14.0623 26.3612L13.8533 27.178C13.2946 29.3335 13.6252 31.5759 14.7921 33.4819C15.9552 35.3878 17.8024 36.7075 19.9878 37.2143L33.249 40.2282L31.6412 41.6916L30.1209 43.0644L26.9244 45.9535L25.2368 47.4888L22.5002 49.9619C20.9495 51.3611 20.558 53.6301 21.5538 55.4679C22.352 56.9389 23.8875 57.8541 25.5675 57.8541H25.5941L30.5542 57.8276L32.6446 57.8201L36.7875 57.7936L38.7906 57.786L58.6462 57.6801C60.2615 57.6726 61.683 56.6326 62.1809 55.1087L67.3387 39.3093C68.0532 37.1197 69.4937 35.1873 71.3942 33.8751L77.3197 29.7797L78.5397 28.9364L78.9426 28.6603L78.0836 26.9851ZM25.5789 55.9066H25.5637C24.6059 55.9066 23.7317 55.3847 23.2756 54.549C22.7092 53.4939 22.9297 52.2082 23.8153 51.4103L27.2969 48.2527L26.7077 47.988C26.2288 47.7649 25.7385 47.5985 25.233 47.4926L22.4964 49.9657C20.9457 51.3649 20.5542 53.6339 21.55 55.4717C22.3482 56.9427 23.8837 57.8579 25.5637 57.8579H25.5903L30.5504 57.8314C30.7138 57.4419 30.8468 57.0448 30.9457 56.6251L31.1243 55.8801L25.5827 55.9066H25.5789Z" fill="#1F1A1A"/>
<path d="M91.014 52.1137L89.2695 53.0099L84.1687 43.0871L83.2717 41.34L82.0403 38.9538L81.1471 37.2067L79.8814 34.7525L78.9806 32.9979L77.3272 29.7797L76.4264 28.0327L71.5462 18.5447L70.6112 16.7258L69.832 15.2169C68.821 13.2467 66.9091 11.8475 64.7199 11.458L61.7096 10.9248L62.0517 9L65.0657 9.5332C67.8517 10.0286 70.2881 11.8211 71.5766 14.3282L72.6294 16.3665L73.1007 17.2892L74.1041 19.2405L78.0912 26.9814L78.9502 28.6566L79.0946 28.9327L80.7252 32.1054L81.626 33.8525L82.8955 36.3181L83.7886 38.0576L85.0201 40.4513L85.9171 42.1984L91.0216 52.1099L91.014 52.1137Z" fill="#1F1A1A"/>
<path d="M32.504 65.0126C30.0258 67.1833 26.8407 68.382 23.534 68.382C16.0502 68.382 9.96123 62.3277 9.96123 54.878C9.96123 47.4321 16.0502 41.374 23.534 41.374C25.8563 41.374 28.1102 41.9488 30.1171 43.0682L26.9206 45.9573C25.8373 45.5489 24.7009 45.3447 23.534 45.3447C18.2547 45.3447 13.9559 49.6178 13.9559 54.8742C13.9559 60.1231 18.2547 64.4038 23.534 64.4038C25.7043 64.4038 27.829 63.6588 29.5165 62.3126C30.9761 61.1516 32.0669 59.5747 32.6408 57.8163L36.7837 57.7898C36.168 60.5655 34.6743 63.0992 32.504 65.0051V65.0126ZM31.1205 55.8801L30.9418 56.6251C30.843 57.0411 30.71 57.4419 30.5466 57.8314C29.3759 60.6071 26.6469 62.4601 23.5302 62.4601C19.3303 62.4601 15.9095 59.0567 15.9095 54.878C15.9095 50.7032 19.3265 47.296 23.5302 47.296C24.1079 47.296 24.6781 47.3602 25.2292 47.4926C25.7347 47.5985 26.225 47.7687 26.7039 47.988L27.293 48.2527L33.3136 42.8072L32.2911 42.1076C32.0745 41.9639 31.8578 41.824 31.6374 41.6917C29.2011 40.2017 26.415 39.4227 23.534 39.4227C14.9669 39.4227 8 46.3544 8 54.8742C8 63.3941 14.9669 70.3257 23.534 70.3257C27.3196 70.3257 30.9685 68.953 33.8039 66.4685C36.396 64.1882 38.1482 61.1327 38.7906 57.7785C38.8438 57.5024 38.8932 57.2226 38.9312 56.9352L39.0832 55.8272L31.1281 55.8726L31.1205 55.8801Z" fill="#1F1A1A"/>
<path fill-rule="evenodd" clip-rule="evenodd" d="M36.7875 57.7974C36.1718 60.5731 34.6781 63.1067 32.5078 65.0126C30.0296 67.1833 26.8445 68.382 23.5378 68.382C16.054 68.382 9.96503 62.3277 9.96503 54.878C9.96503 47.4321 16.054 41.374 23.5378 41.374C25.8601 41.374 28.114 41.9488 30.1209 43.0682L26.9244 45.9573C25.8411 45.5489 24.7047 45.3447 23.5378 45.3447C18.2584 45.3447 13.9597 49.6179 13.9597 54.8742C13.9597 60.1231 18.2584 64.4038 23.5378 64.4038C25.7081 64.4038 27.8328 63.6588 29.5203 62.3126C30.9798 61.1517 32.0707 59.5747 32.6446 57.8163L36.7875 57.7898V57.7974Z" fill="url(#paint2_radial_57_205)"/>
<path d="M84.9517 20.356L83.7849 25.9603C83.4276 27.6885 81.8768 28.9402 80.1019 28.9402H77.8214V26.9889H80.1019C80.9494 26.9889 81.6906 26.3952 81.8654 25.5633L83.0323 19.9665C83.0817 19.7207 82.9791 19.5506 82.9107 19.4598C82.8423 19.3804 82.694 19.248 82.447 19.248H72.8347V17.2968H82.447C83.2223 17.2968 83.9445 17.6333 84.4348 18.227C84.9213 18.8283 85.1114 19.5997 84.9555 20.356H84.9517Z" fill="#1F1A1A"/>
<path d="M33.9635 51.7242C33.9635 50.9187 34.621 50.2607 35.4344 50.2607C36.2478 50.2607 36.9053 50.9187 36.9053 51.7242C36.9053 52.5297 36.2478 53.1877 35.4344 53.1877C34.621 53.1877 33.9635 52.5297 33.9635 51.7242ZM38.8666 51.7242C38.8666 50.9187 39.5241 50.2607 40.3375 50.2607C41.1509 50.2607 41.8084 50.9187 41.8084 51.7242C41.8084 52.5297 41.1509 53.1877 40.3375 53.1877C39.5241 53.1877 38.8666 52.5297 38.8666 51.7242ZM43.7659 51.7242C43.7659 50.9187 44.4272 50.2607 45.2368 50.2607C46.0502 50.2607 46.7077 50.9187 46.7077 51.7242C46.7077 52.5297 46.0502 53.1877 45.2368 53.1877C44.4234 53.1877 43.7659 52.5297 43.7659 51.7242ZM48.6689 51.7242C48.6689 50.9187 49.3265 50.2607 50.1399 50.2607C50.9532 50.2607 51.6108 50.9187 51.6108 51.7242C51.6108 52.5297 50.9532 53.1877 50.1399 53.1877C49.3265 53.1877 48.6689 52.5297 48.6689 51.7242ZM53.572 51.7242C53.572 50.9187 54.2296 50.2607 55.0429 50.2607C55.8563 50.2607 56.5139 50.9187 56.5139 51.7242C56.5139 52.5297 55.8563 53.1877 55.0429 53.1877C54.2296 53.1877 53.572 52.5297 53.572 51.7242Z" fill="#1F1A1A"/>
<path d="M56.9054 46.5737L55.043 45.9611L58.3421 35.9966C59.0757 33.7806 60.2235 31.7499 61.7514 29.9764L62.371 29.2579L63.8609 30.536L63.2452 31.2545C61.8845 32.8315 60.8621 34.6315 60.2083 36.6092L56.9092 46.5737H56.9054Z" fill="#1F1A1A"/>
<defs>
<radialGradient id="paint0_radial_57_205" cx="0" cy="0" r="1" gradientUnits="userSpaceOnUse" gradientTransform="translate(116.332 66.3621) rotate(-151.436) scale(63.4865 73.9499)">
<stop stop-color="#4CB752"/>
<stop offset="1" stop-color="#B0D353"/>
</radialGradient>
<radialGradient id="paint1_radial_57_205" cx="0" cy="0" r="1" gradientUnits="userSpaceOnUse" gradientTransform="translate(86.9002 27.3948) rotate(-153.262) scale(20.5056 22.8534)">
<stop stop-color="#4CB752"/>
<stop offset="1" stop-color="#B0D353"/>
</radialGradient>
<radialGradient id="paint2_radial_57_205" cx="0" cy="0" r="1" gradientUnits="userSpaceOnUse" gradientTransform="translate(44.1452 65.7154) rotate(-151.147) scale(50.2196 58.8749)">
<stop stop-color="#4CB752"/>
<stop offset="1" stop-color="#B0D353"/>
</radialGradient>
</defs>
</svg>
