<svg width="116" height="80" viewBox="0 0 116 80" fill="none" xmlns="http://www.w3.org/2000/svg">
<path fill-rule="evenodd" clip-rule="evenodd" d="M88.9594 64.6937C93.1348 64.6937 96.5197 61.3188 96.5197 57.1556C96.5197 52.9924 93.1348 49.6174 88.9594 49.6174C84.784 49.6174 81.3991 52.9924 81.3991 57.1556C81.3991 61.3188 84.784 64.6937 88.9594 64.6937ZM88.9594 60.7452C90.9477 60.7452 92.5595 59.1381 92.5595 57.1556C92.5595 55.1731 90.9477 53.566 88.9594 53.566C86.9711 53.566 85.3593 55.1731 85.3593 57.1556C85.3593 59.1381 86.9711 60.7452 88.9594 60.7452Z" fill="url(#paint0_radial_57_218)"/>
<path fill-rule="evenodd" clip-rule="evenodd" d="M33.5174 64.6937C37.6928 64.6937 41.0777 61.3188 41.0777 57.1556C41.0777 52.9924 37.6928 49.6174 33.5174 49.6174C29.342 49.6174 25.9571 52.9924 25.9571 57.1556C25.9571 61.3188 29.342 64.6937 33.5174 64.6937ZM33.5174 60.7452C35.5057 60.7452 37.1175 59.1381 37.1175 57.1556C37.1175 55.1731 35.5057 53.566 33.5174 53.566C31.5291 53.566 29.9172 55.1731 29.9172 57.1556C29.9172 59.1381 31.5291 60.7452 33.5174 60.7452Z" fill="url(#paint1_radial_57_218)"/>
<path d="M33.4486 59.9704C31.9705 59.9704 30.7693 58.7736 30.7693 57.2953C30.7693 55.8233 31.9696 54.6273 33.4486 54.6273C34.9249 54.6273 36.1279 55.8233 36.1279 57.2953C36.1279 58.7736 34.9249 59.9704 33.4486 59.9704ZM33.4486 52.5168C30.8037 52.5168 28.6526 54.6634 28.6526 57.2953C28.6526 59.9353 30.8037 62.0827 33.4486 62.0827C36.0935 62.0827 38.2445 59.9353 38.2445 57.2953C38.2445 54.6625 36.0935 52.5168 33.4486 52.5168Z" fill="#1F1A1A"/>
<path d="M88.828 59.7312C87.3508 59.7312 86.1487 58.5353 86.1487 57.0632C86.1487 55.5849 87.3508 54.3881 88.828 54.3881C90.3052 54.3881 91.5055 55.5849 91.5055 57.0632C91.5055 58.5353 90.3052 59.7312 88.828 59.7312ZM88.828 52.2776C86.184 52.2776 84.032 54.4242 84.032 57.0641C84.032 59.6969 86.1848 61.8426 88.828 61.8426C91.472 61.8426 93.6239 59.6961 93.6239 57.0641C93.6239 54.4242 91.4711 52.2776 88.828 52.2776Z" fill="#1F1A1A"/>
<path d="M33.4488 64.1721C30.2402 64.1721 27.537 61.9763 26.7705 59.0128L26.7679 59.0057C26.7644 58.9908 26.7591 58.9706 26.7573 58.9556C26.7423 58.9072 26.7317 58.858 26.7194 58.8096C26.7185 58.8008 26.7159 58.7947 26.7159 58.7806C26.7035 58.7384 26.6938 58.6892 26.685 58.6399C26.6753 58.5986 26.6691 58.5564 26.6603 58.5133C26.6506 58.457 26.6409 58.3998 26.6321 58.3444C26.6215 58.2741 26.61 58.2037 26.6012 58.1255C26.5959 58.0841 26.5924 58.0419 26.588 57.9988C26.5853 57.9707 26.5818 57.9426 26.5809 57.9074C26.5783 57.9004 26.5783 57.9004 26.5783 57.8924C26.5747 57.8511 26.5712 57.8151 26.5695 57.7737C26.5686 57.7605 26.5668 57.7517 26.5659 57.7385V57.7315C26.5633 57.6963 26.5624 57.6682 26.5597 57.6401C26.5589 57.6119 26.5571 57.5829 26.5571 57.5486C26.5545 57.5064 26.5536 57.4633 26.5536 57.422C26.5527 57.3648 26.5527 57.3164 26.5527 57.2663C26.5527 57.203 26.5536 57.1397 26.5553 57.0755C26.5562 57.0623 26.5562 57.0412 26.558 57.021C26.5589 56.9849 26.5606 56.9489 26.5642 56.9154C26.5668 56.8583 26.5703 56.802 26.5747 56.7457C26.5818 56.6411 26.5941 56.5285 26.6065 56.4221C27.0175 53.2273 29.6396 50.7079 32.8914 50.4458C32.9425 50.4388 32.9963 50.4388 33.0475 50.4326C33.1154 50.4326 33.1815 50.4256 33.2494 50.4256C33.3156 50.4256 33.3809 50.4256 33.4479 50.4256C33.4823 50.4256 33.5176 50.4256 33.5511 50.4256H33.567C33.6093 50.4256 33.6499 50.4256 33.6913 50.4256C33.7098 50.4256 33.7275 50.4256 33.746 50.4326H33.7513C33.7839 50.4326 33.8174 50.4326 33.8492 50.4326C33.8933 50.4388 33.9347 50.4388 33.9771 50.4388C34.0353 50.4458 34.0944 50.4537 34.1517 50.4608C34.202 50.4608 34.2496 50.4678 34.299 50.474C34.3157 50.474 34.3334 50.481 34.3501 50.481C34.3572 50.481 34.3651 50.481 34.3704 50.481C34.4128 50.488 34.4542 50.496 34.4957 50.503C34.6103 50.5162 34.7223 50.5373 34.8343 50.5593C34.889 50.5742 34.9463 50.5874 35.0028 50.6015C37.1574 51.0939 38.9275 52.6065 39.7857 54.5912C39.8165 54.6616 39.8457 54.7319 39.8739 54.8023C39.8924 54.8507 39.9092 54.9008 39.925 54.943C39.963 55.0485 39.9991 55.154 40.0326 55.2525C40.0485 55.3088 40.0644 55.3572 40.0794 55.4143C40.0961 55.4706 40.1111 55.5278 40.1261 55.5832C40.1552 55.6887 40.1808 55.8021 40.2037 55.9138C40.2258 56.0194 40.2452 56.131 40.2619 56.2374C40.2619 56.2445 40.2619 56.2445 40.2628 56.2524C40.2716 56.3008 40.2778 56.3579 40.2858 56.4072C40.2858 56.4142 40.2858 56.4221 40.2866 56.4274C40.2937 56.4845 40.3016 56.5417 40.306 56.5962C40.3096 56.6323 40.3131 56.6736 40.3166 56.7105C40.3193 56.7369 40.3219 56.7668 40.3219 56.7871C40.3272 56.8293 40.3281 56.8644 40.3307 56.9005C40.3316 56.9207 40.3316 56.9348 40.3343 56.9577C40.3396 57.0693 40.3431 57.181 40.3431 57.2945C40.3431 57.3798 40.3404 57.4633 40.3369 57.5416C40.3369 57.5486 40.3369 57.5548 40.3369 57.5618C40.336 57.619 40.3316 57.6752 40.3281 57.7306C40.3254 57.7939 40.3193 57.8573 40.3131 57.9144C40.3078 57.9707 40.3034 58.0279 40.2972 58.0762C40.2946 58.1044 40.2919 58.1246 40.2884 58.1536C40.2813 58.2169 40.2716 58.2802 40.2619 58.3436C40.2531 58.3998 40.2434 58.457 40.2337 58.5124C40.2267 58.5546 40.2178 58.5977 40.209 58.6461C40.2037 58.6681 40.1984 58.6944 40.1923 58.7235C40.1923 58.7305 40.1914 58.7305 40.1896 58.7305C40.1834 58.7718 40.1729 58.8079 40.164 58.8492C39.4567 61.8971 36.7129 64.1703 33.447 64.1703L33.4488 64.1721ZM42.4563 57.043C42.4554 56.9796 42.4527 56.9084 42.4492 56.8451V56.8319C42.4466 56.7756 42.443 56.7185 42.4395 56.6701C42.436 56.6481 42.436 56.6279 42.4342 56.598C42.4272 56.5285 42.421 56.452 42.4139 56.3808C42.4016 56.2621 42.3875 56.1337 42.3689 56.015C42.3654 55.9868 42.3628 55.9587 42.3584 55.9376C42.3584 55.9314 42.3584 55.9314 42.3575 55.9244C42.3451 55.854 42.3346 55.7837 42.3213 55.7133C42.3081 55.6359 42.2949 55.5647 42.2799 55.4873C42.2675 55.4328 42.2543 55.3756 42.2419 55.3194C42.2393 55.3044 42.2349 55.2903 42.2314 55.2772C42.2314 55.2772 42.2322 55.2772 42.2314 55.2701C42.2261 55.2499 42.2217 55.2279 42.2164 55.2068C42.2031 55.1505 42.1881 55.0951 42.1723 55.038C42.1396 54.9113 42.1017 54.7777 42.0629 54.6519C42.0267 54.5314 41.9871 54.4198 41.9447 54.2993C41.9324 54.2571 41.9191 54.2219 41.9033 54.1858C41.9006 54.1788 41.898 54.1727 41.8962 54.1656C41.8556 54.0522 41.8133 53.9467 41.7692 53.842C41.7622 53.8288 41.7542 53.8059 41.7463 53.7919C41.7198 53.7286 41.6942 53.6732 41.6687 53.6081C41.6651 53.6081 41.6634 53.6019 41.6625 53.6019C41.6334 53.5316 41.6025 53.4674 41.5725 53.4041C41.5417 53.3408 41.509 53.2774 41.4746 53.2141C41.442 53.1438 41.4085 53.0805 41.3732 53.0171C41.3379 52.9538 41.3027 52.8905 41.2656 52.8272C41.2295 52.7639 41.1933 52.7067 41.1562 52.6434C41.1536 52.6364 41.151 52.6364 41.1492 52.6285C41.1139 52.5722 41.0769 52.5168 41.0407 52.4605C41.0019 52.3972 40.9631 52.3339 40.9216 52.2767C40.8414 52.1562 40.7594 52.0445 40.6756 51.9311C40.6747 51.9311 40.6729 51.9241 40.6703 51.9241C40.6262 51.8678 40.5821 51.8124 40.5389 51.7561C40.4939 51.6989 40.4489 51.6427 40.4022 51.5864C40.3554 51.5301 40.3096 51.4747 40.2628 51.4184C40.1834 51.3331 40.1032 51.2408 40.0229 51.1581C39.9568 51.086 39.8889 51.0157 39.821 50.9471C39.7689 50.897 39.7178 50.8486 39.6649 50.7985C39.6128 50.7422 39.5573 50.6929 39.5017 50.6428C39.4514 50.6015 39.3985 50.5514 39.3456 50.503C39.2362 50.4107 39.1251 50.3192 39.0131 50.2286C38.9593 50.1926 38.9072 50.1512 38.8534 50.1099C38.7926 50.0598 38.7291 50.0176 38.6647 49.9754C38.5474 49.8918 38.4275 49.8065 38.3049 49.7283C38.2537 49.694 38.2034 49.6649 38.1514 49.6306C38.0791 49.5884 38.0068 49.5453 37.9344 49.5031C37.8074 49.4328 37.6787 49.3624 37.5508 49.2991C37.422 49.2296 37.2897 49.1663 37.1574 49.1092C37.0904 49.074 37.0242 49.0459 36.9563 49.0168C36.8223 48.9606 36.6856 48.9052 36.5471 48.855C36.4104 48.8067 36.2702 48.7565 36.1291 48.7143C35.9271 48.651 35.7207 48.5965 35.5126 48.5464C35.4932 48.5464 35.4738 48.5393 35.4526 48.5314C35.3988 48.5244 35.3468 48.5094 35.2921 48.4962C35.2727 48.4962 35.2533 48.4892 35.2356 48.4892C35.188 48.476 35.1395 48.469 35.0919 48.4611C35.0769 48.454 35.061 48.454 35.0451 48.454C34.971 48.4408 34.8961 48.4259 34.822 48.4127C34.6782 48.3907 34.5371 48.3766 34.3916 48.3626C34.3757 48.3555 34.3607 48.3555 34.3448 48.3555C34.3413 48.3555 34.336 48.3555 34.3316 48.3555C34.2831 48.3494 34.2337 48.3423 34.1843 48.3423C34.1737 48.3423 34.1623 48.3423 34.1517 48.3423C34.1464 48.3353 34.142 48.3353 34.1367 48.3353C34.1296 48.3353 34.1208 48.3353 34.112 48.3353C34.0706 48.3353 34.0265 48.3283 33.9841 48.3283C33.9744 48.3283 33.9647 48.3283 33.955 48.3283C33.9418 48.3283 33.9268 48.3212 33.9136 48.3212C33.8968 48.3212 33.8818 48.3212 33.8651 48.3212H33.8501C33.8183 48.3212 33.7883 48.3212 33.7575 48.3212C33.7186 48.3142 33.6807 48.3142 33.6419 48.3142C33.5802 48.3142 33.5167 48.3142 33.4541 48.3142C33.3588 48.3142 33.2636 48.3142 33.1701 48.3142C33.1286 48.3142 33.0863 48.3212 33.0431 48.3212C33.0007 48.3212 32.9593 48.3212 32.9178 48.3283C32.902 48.3283 32.8861 48.3283 32.8702 48.3283C32.8226 48.3353 32.7749 48.3353 32.7264 48.3432H32.7211C32.6568 48.3432 32.5933 48.3503 32.5298 48.3564C32.3789 48.3766 32.229 48.3916 32.08 48.4136C32.0059 48.4268 31.9309 48.4417 31.8568 48.4549C31.7871 48.4619 31.7192 48.4769 31.6496 48.4901C31.6399 48.4901 31.6328 48.4971 31.6213 48.4971C31.5578 48.5103 31.4943 48.5253 31.4308 48.5393C31.4238 48.5393 31.4141 48.5393 31.4053 48.5464C31.3373 48.5596 31.2677 48.5727 31.1989 48.5965C31.1283 48.6158 31.056 48.6308 30.9846 48.651C30.9202 48.673 30.8567 48.6932 30.7923 48.7082C30.7791 48.7143 30.7676 48.7143 30.7544 48.7231C30.69 48.7433 30.6265 48.7645 30.563 48.7864C30.503 48.8067 30.4439 48.8286 30.3848 48.8498C30.3628 48.8559 30.3398 48.8629 30.3178 48.87C30.2605 48.892 30.204 48.9122 30.1476 48.9333C30.0841 48.9614 30.0188 48.9896 29.9553 49.0168C29.8177 49.074 29.6801 49.1373 29.547 49.2006C29.4808 49.2296 29.4155 49.2639 29.3503 49.2991C29.2938 49.3281 29.2365 49.3563 29.1836 49.3844C29.1677 49.3915 29.151 49.3994 29.136 49.4126C29.0875 49.4328 29.0398 49.4627 28.9922 49.4899C28.8511 49.5673 28.7109 49.6588 28.5733 49.7423C28.5195 49.7775 28.4683 49.8127 28.4136 49.8479C28.3554 49.8901 28.2955 49.9314 28.2372 49.9745C28.1949 50.0026 28.1552 50.0316 28.1129 50.0598C28.0811 50.08 28.0494 50.1099 28.0194 50.1293C27.8509 50.2559 27.6869 50.3904 27.5281 50.5311C27.484 50.5663 27.4399 50.6076 27.3994 50.6428C27.3385 50.7 27.2803 50.7571 27.2203 50.8117C27.1727 50.8539 27.1277 50.9031 27.0828 50.9462C27.0307 50.9946 26.9804 51.0508 26.9302 51.101C26.8817 51.1493 26.8323 51.2065 26.7829 51.2557C26.7361 51.3129 26.6894 51.3613 26.6427 51.4184C26.5448 51.5231 26.4539 51.6356 26.3648 51.7561C26.3331 51.7913 26.3005 51.8326 26.2713 51.8748C26.162 52.0146 26.0606 52.1553 25.9609 52.304C25.9318 52.3523 25.9027 52.3963 25.8727 52.4385C25.751 52.6267 25.6355 52.8175 25.5287 53.0145C25.4935 53.0778 25.4608 53.1411 25.4273 53.2115C25.3964 53.2686 25.3691 53.3249 25.3409 53.3812C25.3162 53.4296 25.2941 53.4788 25.2738 53.521C25.2544 53.5632 25.2377 53.6046 25.2192 53.6415C25.1945 53.6978 25.1707 53.7532 25.1468 53.8103C25.1186 53.8737 25.0904 53.937 25.0666 54.0064C25.041 54.0636 25.0181 54.1269 24.9969 54.1823C24.981 54.2245 24.9687 54.2597 24.9546 54.3028C24.9228 54.3863 24.8937 54.4787 24.8664 54.5631C24.8496 54.6132 24.8346 54.6616 24.8188 54.7117C24.8064 54.7539 24.7932 54.7953 24.7808 54.8383C24.7614 54.9087 24.7403 54.979 24.7235 55.0556C24.6891 55.1831 24.66 55.3097 24.6335 55.4434C24.6203 55.4996 24.6071 55.5621 24.5956 55.6254C24.5859 55.6755 24.5771 55.7177 24.57 55.7661C24.563 55.8021 24.555 55.8435 24.5506 55.8848C24.548 55.8998 24.5445 55.9138 24.5418 55.9288C24.5409 55.9349 24.5392 55.942 24.5392 55.949C24.5295 56.0194 24.5198 56.0827 24.5109 56.153C24.5004 56.2304 24.4915 56.2999 24.4854 56.3781C24.4765 56.4555 24.4704 56.5329 24.4651 56.6041C24.4598 56.6604 24.4563 56.7158 24.4554 56.773C24.4545 56.7862 24.4519 56.8011 24.4519 56.8073C24.451 56.8425 24.4483 56.8776 24.4466 56.9058C24.4466 56.9207 24.4466 56.9278 24.4466 56.9418C24.4413 56.9963 24.4413 57.0605 24.4413 57.1239C24.4386 57.1801 24.4377 57.2294 24.4377 57.2857C24.4377 57.4413 24.4413 57.5952 24.4501 57.7438C24.451 57.772 24.451 57.8001 24.4554 57.8274C24.4554 57.8423 24.4563 57.8625 24.458 57.8775C24.4607 57.9188 24.4633 57.954 24.4668 57.9962C24.4721 58.0534 24.4739 58.1096 24.4827 58.1589C24.4827 58.1791 24.4836 58.1932 24.4863 58.2073C24.5595 58.9389 24.7226 59.6494 24.9643 60.3195C26.2123 63.7957 29.5461 66.28 33.4532 66.28C37.3585 66.28 40.6923 63.7957 41.9421 60.3195C42.182 59.6494 42.3443 58.9389 42.4183 58.2073C42.4492 57.9047 42.466 57.6022 42.466 57.2918C42.466 57.2083 42.4651 57.123 42.4607 57.0394L42.4563 57.043Z" fill="#1F1A1A"/>
<path d="M88.8282 63.9329C85.6787 63.9329 83.0178 61.8215 82.1941 58.9424C82.1782 58.8862 82.1632 58.8307 82.1491 58.7736C82.1394 58.7384 82.1306 58.6962 82.12 58.6549C82.1129 58.6267 82.105 58.5986 82.1006 58.5696C82.0935 58.5353 82.0874 58.5063 82.0803 58.4781C82.0715 58.428 82.0609 58.3796 82.0521 58.3313C82.0486 58.3163 82.0433 58.2952 82.0415 58.2741C82.0353 58.246 82.0309 58.2178 82.0265 58.1826C82.0195 58.1475 82.0133 58.1053 82.008 58.071C82.0009 58.0287 81.9956 57.9936 81.9912 57.9566C81.9886 57.9435 81.9859 57.9215 81.9851 57.9083C81.9798 57.8582 81.9745 57.8098 81.9692 57.7614C81.963 57.7043 81.9586 57.6559 81.9542 57.5987C81.941 57.4149 81.9339 57.2399 81.9339 57.0641C81.9339 56.9454 81.9366 56.8319 81.9427 56.7185C81.9436 56.6622 81.948 56.6129 81.9524 56.5637C81.9595 56.4432 81.9718 56.3245 81.9868 56.2111C82.0001 56.0994 82.0177 55.9859 82.038 55.8734C82.5354 53.0233 84.7985 50.7712 87.6587 50.2849C87.7108 50.2788 87.7672 50.2647 87.8237 50.2559C87.9233 50.2427 88.0239 50.2295 88.1262 50.2216H88.1315C88.1632 50.2146 88.1932 50.2146 88.225 50.2066C88.2567 50.2066 88.2885 50.2066 88.3211 50.2005C88.3775 50.2005 88.4322 50.1917 88.4878 50.1917C88.6368 50.1855 88.785 50.1855 88.9349 50.1855H88.9517C88.9905 50.1855 89.032 50.1855 89.0725 50.1855C89.0919 50.1917 89.1105 50.1917 89.1307 50.1917C89.1634 50.1917 89.1951 50.1917 89.2286 50.1917C89.2727 50.2005 89.3151 50.2005 89.3592 50.2066C89.4174 50.2066 89.4765 50.2137 89.5338 50.2216C89.5849 50.2286 89.637 50.2286 89.6899 50.2365C89.7022 50.2365 89.7128 50.2427 89.7261 50.2427C89.7772 50.2497 89.8275 50.2559 89.8786 50.2647C89.9924 50.2849 90.1053 50.2999 90.2173 50.328C92.9091 50.8759 95.0319 52.996 95.5841 55.6764C95.6185 55.8452 95.6485 56.0141 95.6696 56.1829C95.6767 56.2392 95.6828 56.3016 95.689 56.3588C95.6952 56.4151 95.6996 56.4705 95.7049 56.5338C95.7075 56.5628 95.7084 56.5971 95.7111 56.6261C95.7119 56.6613 95.7164 56.6895 95.7172 56.7176C95.7208 56.831 95.7261 56.9436 95.7261 57.0632C95.7261 57.2391 95.7172 57.4141 95.704 57.5979C95.6987 57.655 95.6952 57.7034 95.689 57.7605C95.6855 57.8089 95.6784 57.8582 95.6731 57.9074C95.6705 57.9206 95.6678 57.9426 95.6661 57.9558C95.6626 57.9918 95.6564 58.0331 95.6502 58.0701C95.6449 58.1044 95.6396 58.1396 95.6343 58.1747C95.6246 58.231 95.6141 58.2934 95.6017 58.3568C95.5946 58.3928 95.5885 58.4341 95.5797 58.4711C95.5708 58.5054 95.5611 58.5476 95.5532 58.5889C95.5505 58.6039 95.547 58.6179 95.5435 58.6311C95.5329 58.6813 95.5206 58.7305 95.5073 58.7718C95.495 58.829 95.4791 58.8853 95.4632 58.9407C94.6412 61.8198 91.9795 63.9312 88.8309 63.9312L88.8282 63.9329ZM97.7863 56.0712C97.781 56.0229 97.7766 55.9798 97.7696 55.9314C97.7687 55.9112 97.7643 55.8813 97.7599 55.8593C97.7546 55.8048 97.7449 55.7547 97.7378 55.6993C97.7378 55.6922 97.7369 55.6922 97.7369 55.6843C97.7246 55.614 97.7122 55.5436 97.7008 55.4733C97.6858 55.3959 97.6726 55.3264 97.6593 55.2561C96.907 51.5952 93.9242 48.7451 90.2006 48.1823C90.0568 48.1542 89.9113 48.1401 89.7666 48.1251C89.7534 48.119 89.7402 48.119 89.7261 48.119C89.6599 48.1102 89.592 48.104 89.525 48.097H89.5162C89.4553 48.097 89.3927 48.09 89.3318 48.09C89.2965 48.0829 89.2639 48.0829 89.2295 48.0829C89.1969 48.0829 89.1625 48.0829 89.1307 48.0829C89.0946 48.0768 89.0584 48.0768 89.0214 48.0768C88.9596 48.0768 88.897 48.0768 88.8335 48.0768C88.6845 48.0768 88.5363 48.0768 88.389 48.0829C88.3184 48.09 88.2452 48.09 88.1729 48.0979C88.0265 48.1111 87.8819 48.126 87.7381 48.1401C87.7381 48.1401 87.7372 48.1401 87.7355 48.1401C83.6458 48.6326 80.3931 51.8704 79.886 55.9455C79.8666 56.0941 79.8516 56.241 79.841 56.3887C79.8357 56.4591 79.8313 56.5356 79.826 56.6138C79.8198 56.7624 79.8154 56.9093 79.8154 57.0649C79.8154 57.1423 79.8163 57.2136 79.819 57.2901C79.8198 57.3604 79.8225 57.4308 79.826 57.4941C79.8269 57.5512 79.8313 57.5996 79.8357 57.6489C79.8384 57.699 79.841 57.7412 79.8445 57.7834C79.8498 57.8318 79.8516 57.8819 79.8578 57.9303C79.8631 57.9725 79.8666 58.0217 79.8728 58.0639C79.8789 58.114 79.8833 58.1633 79.8895 58.2125C79.9848 58.9512 80.1682 59.6547 80.4319 60.3248C81.7434 63.6744 85.0137 66.047 88.8291 66.047C92.6445 66.047 95.9148 63.6744 97.2263 60.3248C97.4882 59.6547 97.6726 58.9512 97.7687 58.2125C97.7687 58.2055 97.7696 58.1976 97.7696 58.1923C97.7793 58.1281 97.7863 58.0586 97.7943 57.9865C97.7951 57.9865 97.7951 57.9804 97.7951 57.9733C97.804 57.903 97.8101 57.8265 97.8145 57.7544C97.8198 57.6849 97.8234 57.6216 97.8269 57.5512C97.8295 57.531 97.8295 57.5161 97.8304 57.4941C97.834 57.4308 97.8366 57.3604 97.8375 57.2901C97.8384 57.2136 97.841 57.1432 97.841 57.0649C97.841 56.7273 97.8225 56.3966 97.7863 56.0721V56.0712Z" fill="#1F1A1A"/>
<path d="M35.0425 48.4549C35.0584 48.4549 35.0742 48.4549 35.0892 48.462C35.1122 48.462 35.1369 48.469 35.1615 48.4769C35.121 48.4699 35.0839 48.462 35.0434 48.4549H35.0425ZM39.8659 50.9893C38.8632 49.9754 37.6575 49.2218 36.3372 48.7873C36.4051 48.8076 36.4766 48.8357 36.5445 48.8568C36.6838 48.9069 36.8196 48.9623 36.9537 49.0186C37.0216 49.0476 37.0878 49.0758 37.1548 49.1109C37.288 49.1681 37.4194 49.2314 37.5481 49.3009C37.6787 49.3642 37.8057 49.4346 37.9318 49.5049C38.0041 49.5471 38.0764 49.5902 38.1488 49.6324C38.2008 49.6667 38.2511 49.6957 38.3022 49.73C38.4239 49.8074 38.5448 49.8927 38.6621 49.9771C38.7264 50.0194 38.7899 50.0624 38.8508 50.1117C38.9046 50.153 38.9566 50.1943 39.0104 50.2304C39.1224 50.3219 39.2336 50.4124 39.3429 50.5048C39.395 50.5531 39.4488 50.5962 39.499 50.6446C39.5555 50.6947 39.6102 50.744 39.6622 50.8002C39.7142 50.8504 39.7654 50.8987 39.8183 50.9489C39.8862 51.0183 39.955 51.0887 40.0203 51.1599C40.1023 51.2426 40.1808 51.3349 40.2602 51.4202C40.3078 51.4765 40.3537 51.5319 40.3995 51.5882C40.4472 51.6453 40.4913 51.7016 40.5362 51.7579C40.5609 51.7843 40.5839 51.8142 40.6086 51.8476C40.381 51.5521 40.1341 51.2646 39.8651 50.9893H39.8659ZM40.6738 51.932C40.6729 51.932 40.6712 51.925 40.6685 51.925C40.6491 51.8986 40.628 51.8766 40.6086 51.8476C40.6377 51.8836 40.6685 51.925 40.6976 51.9681C40.6879 51.9531 40.6809 51.9399 40.6729 51.9329L40.6738 51.932ZM40.6985 51.9672C40.7585 52.0446 40.8167 52.1299 40.8731 52.2143C40.8167 52.1307 40.7585 52.0454 40.6985 51.9672ZM40.9208 52.2767C40.9049 52.2565 40.889 52.2345 40.8731 52.2134C40.9305 52.2899 40.9869 52.3752 41.0398 52.4605C41.001 52.3972 40.9622 52.3339 40.9208 52.2767ZM34.3898 48.3635C34.5345 48.3767 34.6765 48.3916 34.8202 48.4136C34.6765 48.3916 34.5336 48.3775 34.3898 48.3635ZM32.0791 48.4136C32.2281 48.3916 32.3781 48.3775 32.5289 48.3564C32.3781 48.3714 32.2281 48.3916 32.0791 48.4136ZM27.133 50.8759C25.9688 52.0094 25.1574 53.4111 24.75 54.9448C24.7429 54.9729 24.735 55.001 24.7297 55.0301C24.7456 54.9659 24.7641 54.9026 24.78 54.8392C24.7923 54.797 24.8055 54.7557 24.8179 54.7126C24.8338 54.6625 24.8487 54.6141 24.8655 54.564C24.892 54.4805 24.9219 54.3881 24.9537 54.3037C24.9687 54.2615 24.9802 54.2263 24.996 54.1832C25.0163 54.1269 25.0401 54.0645 25.0657 54.0073C25.0904 53.9379 25.1177 53.8746 25.146 53.8112C25.1689 53.7541 25.1936 53.6978 25.2183 53.6424C25.2368 53.6063 25.2536 53.565 25.273 53.5219C25.2933 53.4797 25.3153 53.4305 25.34 53.3821C25.3682 53.3249 25.3964 53.2687 25.4264 53.2124C25.4591 53.142 25.4926 53.0787 25.5279 53.0154C25.6337 52.8184 25.7501 52.6276 25.8718 52.4394C25.9009 52.3972 25.93 52.3532 25.96 52.3049C26.0597 52.1562 26.1611 52.0155 26.2705 51.8757C26.2996 51.8335 26.3322 51.7922 26.364 51.757C26.453 51.6365 26.5448 51.524 26.6418 51.4193C26.6885 51.3622 26.7353 51.3138 26.782 51.2566C26.8305 51.2083 26.8808 51.1511 26.9293 51.1019C26.9796 51.0517 27.029 50.9963 27.0819 50.9471C27.1269 50.9031 27.1718 50.8548 27.2195 50.8126C27.2794 50.758 27.3376 50.7009 27.3985 50.6437C27.44 50.6085 27.4841 50.5672 27.5273 50.532C27.686 50.3913 27.8501 50.2559 28.0185 50.1302C28.0494 50.1108 28.0803 50.0818 28.112 50.0607C28.1543 50.0325 28.1949 50.0035 28.2364 49.9754C28.2946 49.9332 28.3545 49.8918 28.4128 49.8487C28.4674 49.8136 28.5186 49.7784 28.5724 49.7432C28.71 49.6597 28.8502 49.5682 28.9913 49.4908C29.039 49.4627 29.0866 49.4337 29.1351 49.4135C29.1501 49.4003 29.1668 49.3932 29.1827 49.3853C29.2365 49.3572 29.2938 49.329 29.3494 49.3C29.4138 49.2648 29.4799 49.2305 29.5461 49.2015C29.6793 49.1382 29.8168 49.0749 29.9544 49.0177C30.0179 48.9896 30.0832 48.9615 30.1467 48.9342C30.204 48.914 30.2605 48.8929 30.3169 48.8709C30.339 48.8638 30.3619 48.8559 30.3839 48.8507C30.4422 48.8304 30.5021 48.8084 30.5621 48.7873C30.6256 48.7654 30.6891 48.7451 30.7535 48.724C30.7667 48.7152 30.7782 48.7152 30.7914 48.7091C30.8549 48.6941 30.9193 48.6739 30.9837 48.6519C31.056 48.6317 31.1274 48.6167 31.198 48.5974C31.2659 48.5745 31.3356 48.5613 31.4044 48.5473C29.8027 48.9131 28.3299 49.701 27.1321 50.8759H27.133ZM42.3707 56.0141C42.3892 56.1328 42.4034 56.2612 42.4157 56.3799C42.4051 56.2612 42.3892 56.1328 42.3707 56.0141ZM39.8668 50.9884C38.864 49.9745 37.6584 49.2209 36.3381 48.7865C36.406 48.8067 36.4774 48.8348 36.5453 48.8559C36.6847 48.9061 36.8205 48.9615 36.9546 49.0177C37.0225 49.0468 37.0886 49.0749 37.1557 49.1101C37.2888 49.1672 37.4203 49.2305 37.549 49.3C37.6796 49.3633 37.8066 49.4337 37.9327 49.504C38.005 49.5462 38.0773 49.5893 38.1496 49.6315C38.2017 49.6658 38.2519 49.6949 38.3031 49.7292C38.4248 49.8065 38.5456 49.8918 38.6629 49.9763C38.7273 50.0185 38.7908 50.0616 38.8517 50.1108C38.9055 50.1521 38.9575 50.1935 39.0113 50.2295C39.1233 50.321 39.2345 50.4116 39.3438 50.5039C39.3959 50.5523 39.4497 50.5953 39.4999 50.6437C39.5564 50.6938 39.6111 50.7431 39.6631 50.7994C39.7151 50.8495 39.7663 50.8979 39.8192 50.948C39.8871 51.0174 39.9559 51.0878 40.0212 51.159C40.1032 51.2417 40.1817 51.334 40.2611 51.4193C40.3087 51.4756 40.3546 51.531 40.4004 51.5873C40.448 51.6444 40.4921 51.7007 40.5371 51.757C40.5618 51.7834 40.5847 51.8133 40.6094 51.8467C40.3819 51.5512 40.1349 51.2637 39.8659 50.9884H39.8668ZM40.6747 51.9311C40.6738 51.9311 40.6721 51.9241 40.6694 51.9241C40.65 51.8977 40.6288 51.8757 40.6094 51.8467C40.6385 51.8828 40.6694 51.9241 40.6985 51.9672C40.6888 51.9522 40.6818 51.939 40.6738 51.932L40.6747 51.9311ZM40.6994 51.9663C40.7594 52.0437 40.8176 52.129 40.874 52.2134C40.8176 52.1299 40.7594 52.0446 40.6994 51.9663ZM40.9217 52.2758C40.9058 52.2556 40.8899 52.2336 40.874 52.2125C40.9314 52.289 40.9878 52.3743 41.0407 52.4596C41.0019 52.3963 40.9631 52.333 40.9217 52.2758ZM35.0442 48.4532C35.0601 48.4532 35.076 48.4532 35.091 48.4602C35.1139 48.4602 35.1386 48.4672 35.1633 48.4752C35.1227 48.4681 35.0857 48.4602 35.0451 48.4532H35.0442ZM34.3907 48.3617C34.5354 48.3749 34.6773 48.3899 34.8211 48.4118C34.6773 48.3899 34.5345 48.3758 34.3907 48.3617ZM32.08 48.4118C32.229 48.3899 32.379 48.3758 32.5298 48.3547C32.379 48.3696 32.229 48.3899 32.08 48.4118ZM27.1339 50.8741C25.9697 52.0076 25.1583 53.4094 24.7508 54.943C24.7605 54.9078 24.7694 54.8727 24.78 54.8375C24.7923 54.7953 24.8055 54.7539 24.8179 54.7109C24.8338 54.6607 24.847 54.6124 24.8655 54.5622C24.892 54.4787 24.9219 54.3864 24.9537 54.3019C24.9687 54.2597 24.9802 54.2246 24.996 54.1815C25.0163 54.1252 25.0401 54.0627 25.0657 54.0056C25.0904 53.9361 25.1177 53.8728 25.146 53.8095C25.1689 53.7523 25.1936 53.696 25.2183 53.6406C25.2368 53.6046 25.2536 53.5633 25.273 53.5202C25.2933 53.478 25.3153 53.4287 25.34 53.3803C25.3682 53.3232 25.3964 53.2669 25.4264 53.2106C25.4591 53.1403 25.4926 53.077 25.5279 53.0136C25.6337 52.8167 25.7501 52.6258 25.8718 52.4376C25.9009 52.3954 25.93 52.3515 25.96 52.3031C26.0597 52.1545 26.1611 52.0138 26.2705 51.874C26.2996 51.8318 26.3322 51.7904 26.364 51.7553C26.453 51.6348 26.5448 51.5222 26.6418 51.4176C26.6885 51.3604 26.7353 51.312 26.782 51.2549C26.8305 51.2065 26.8808 51.1494 26.9293 51.1001C26.9796 51.05 27.029 50.9946 27.0819 50.9453C27.1269 50.9014 27.1718 50.853 27.2195 50.8108C27.2794 50.7563 27.3376 50.6991 27.3985 50.642C27.44 50.6068 27.4841 50.5654 27.5273 50.5303C27.686 50.3896 27.8501 50.2541 28.0185 50.1284C28.0494 50.109 28.0803 50.08 28.112 50.0589C28.1543 50.0308 28.1949 50.0018 28.2364 49.9736C28.2946 49.9314 28.3545 49.8901 28.4128 49.847C28.4674 49.8118 28.5186 49.7766 28.5724 49.7415C28.71 49.6579 28.8502 49.5665 28.9913 49.4891C29.039 49.4609 29.0866 49.4319 29.1351 49.4117C29.1501 49.3985 29.1668 49.3915 29.1827 49.3836C29.2365 49.3554 29.2938 49.3273 29.3494 49.2983C29.4138 49.2631 29.4799 49.2288 29.5461 49.1998C29.6793 49.1364 29.8168 49.0731 29.9544 49.016C30.0179 48.9878 30.0832 48.9597 30.1467 48.9324C30.204 48.9122 30.2605 48.8911 30.3169 48.8691C30.339 48.8621 30.3619 48.8542 30.3839 48.8489C30.4422 48.8287 30.5021 48.8067 30.5621 48.7856C30.6256 48.7636 30.6891 48.7434 30.7535 48.7223C30.7667 48.7135 30.7782 48.7135 30.7914 48.7073C30.8549 48.6924 30.9193 48.6721 30.9837 48.6502C31.056 48.6299 31.1274 48.615 31.198 48.5956C31.2659 48.5728 31.3356 48.5596 31.4044 48.5455C29.8027 48.9113 28.3299 49.6993 27.1321 50.8741H27.1339ZM42.3716 56.0123C42.3901 56.1311 42.4042 56.2594 42.4166 56.3782C42.406 56.2594 42.3901 56.1311 42.3716 56.0123ZM39.8677 50.9867C38.8649 49.9727 37.6593 49.2191 36.339 48.7847C36.2693 48.7557 36.1987 48.7346 36.1282 48.7126C36.2693 48.7548 36.4095 48.8049 36.5462 48.8533C36.6856 48.9034 36.8214 48.9588 36.9555 49.0151C37.0234 49.0441 37.0895 49.0723 37.1566 49.1074C37.2897 49.1646 37.4211 49.2279 37.5499 49.2974C37.6804 49.3607 37.8074 49.431 37.9336 49.5014C38.0059 49.5436 38.0782 49.5867 38.1505 49.6289C38.2026 49.6632 38.2528 49.6922 38.304 49.7265C38.4257 49.8039 38.5465 49.8892 38.6638 49.9736C38.7282 50.0158 38.7917 50.0589 38.8526 50.1082C38.9064 50.1495 38.9584 50.1908 39.0122 50.2269C39.1242 50.3183 39.2353 50.4089 39.3447 50.5013C39.3967 50.5496 39.4505 50.5927 39.5008 50.6411C39.5573 50.6912 39.6119 50.7404 39.664 50.7967C39.716 50.8468 39.7672 50.8952 39.8201 50.9453C39.888 51.0148 39.9568 51.0852 40.0221 51.1564C40.1041 51.2391 40.1826 51.3314 40.2619 51.4167C40.3096 51.473 40.3554 51.5284 40.4013 51.5847C40.4489 51.6418 40.493 51.6981 40.538 51.7544C40.5627 51.7808 40.5856 51.8107 40.6103 51.8441C40.3828 51.5486 40.1358 51.261 39.8668 50.9858L39.8677 50.9867ZM40.6756 51.9294C40.6747 51.9294 40.6729 51.9223 40.6703 51.9223C40.6509 51.896 40.6297 51.874 40.6103 51.8449C40.6394 51.881 40.6703 51.9223 40.6994 51.9654C40.6897 51.9505 40.6826 51.9373 40.6747 51.9302L40.6756 51.9294ZM40.7003 51.9645C40.7603 52.0419 40.8185 52.1272 40.8749 52.2116C40.8185 52.1281 40.7603 52.0428 40.7003 51.9645ZM40.9225 52.2741C40.9067 52.2539 40.8908 52.2319 40.8749 52.2108C40.9322 52.2873 40.9887 52.3726 41.0416 52.4579C41.0028 52.3946 40.964 52.3312 40.9225 52.2741ZM35.0451 48.4514C35.061 48.4514 35.0769 48.4514 35.0919 48.4584C35.1148 48.4584 35.1395 48.4655 35.1642 48.4734C35.1236 48.4664 35.0866 48.4584 35.046 48.4514H35.0451ZM34.3916 48.36C34.5362 48.3731 34.6782 48.3881 34.822 48.4101C34.6782 48.3881 34.5354 48.374 34.3916 48.36ZM32.0808 48.4101C32.2299 48.3881 32.3798 48.374 32.5306 48.3529C32.3798 48.3679 32.2299 48.3881 32.0808 48.4101ZM27.1348 50.8724C25.9706 52.0059 25.1592 53.4076 24.7517 54.9413C24.7614 54.9061 24.7703 54.8709 24.7808 54.8357C24.7932 54.7935 24.8064 54.7522 24.8188 54.7091C24.8346 54.659 24.8479 54.6106 24.8664 54.5605C24.8928 54.4769 24.9228 54.3846 24.9546 54.3002C24.9696 54.258 24.981 54.2228 24.9969 54.1797C25.0172 54.1234 25.041 54.061 25.0666 54.0038C25.0913 53.9344 25.1186 53.871 25.1468 53.8077C25.1698 53.7506 25.1945 53.6943 25.2192 53.6389C25.2377 53.6028 25.2544 53.5615 25.2739 53.5184C25.2941 53.4762 25.3162 53.427 25.3409 53.3786C25.3691 53.3214 25.3973 53.2652 25.4273 53.2089C25.4599 53.1385 25.4935 53.0752 25.5287 53.0119C25.6346 52.8149 25.751 52.6241 25.8727 52.4359C25.9018 52.3937 25.9309 52.3497 25.9609 52.3013C26.0606 52.1527 26.162 52.012 26.2714 51.8722C26.3005 51.83 26.3331 51.7887 26.3648 51.7535C26.4539 51.633 26.5456 51.5205 26.6427 51.4158C26.6894 51.3586 26.7361 51.3103 26.7829 51.2531C26.8314 51.2048 26.8817 51.1476 26.9302 51.0984C26.9805 51.0482 27.0298 50.9928 27.0828 50.9436C27.1277 50.8996 27.1727 50.8512 27.2203 50.809C27.2803 50.7545 27.3385 50.6974 27.3994 50.6402C27.4408 50.605 27.4849 50.5637 27.5281 50.5285C27.6869 50.3878 27.8509 50.2524 28.0194 50.1266C28.0503 50.1073 28.0811 50.0783 28.1129 50.0572C28.1552 50.029 28.1958 50 28.2372 49.9719C28.2955 49.9297 28.3554 49.8883 28.4136 49.8452C28.4683 49.8101 28.5195 49.7749 28.5733 49.7397C28.7109 49.6562 28.8511 49.5647 28.9922 49.4873C29.0398 49.4592 29.0875 49.4302 29.136 49.4099C29.151 49.3967 29.1677 49.3897 29.1836 49.3818C29.2374 49.3537 29.2947 49.3255 29.3503 49.2965C29.4147 49.2613 29.4808 49.227 29.547 49.198C29.6801 49.1347 29.8177 49.0714 29.9553 49.0142C30.0188 48.9861 30.0841 48.9579 30.1476 48.9307C30.2049 48.9104 30.2614 48.8893 30.3178 48.8674C30.3399 48.8603 30.3628 48.8524 30.3848 48.8471C30.443 48.8269 30.503 48.8049 30.563 48.7838C30.6265 48.7618 30.69 48.7416 30.7544 48.7205C30.7676 48.7117 30.7791 48.7117 30.7923 48.7056C30.8558 48.6906 30.9202 48.6704 30.9846 48.6484C31.0569 48.6282 31.1283 48.6132 31.1989 48.5939C31.2668 48.571 31.3365 48.5578 31.4053 48.5437C29.8036 48.9096 28.3307 49.6975 27.133 50.8724H27.1348ZM42.3725 56.0106C42.391 56.1293 42.4051 56.2577 42.4175 56.3764C42.4069 56.2577 42.391 56.1293 42.3725 56.0106ZM41.3229 52.9213C41.3194 52.9143 41.3141 52.9064 41.3097 52.9011C41.2965 52.8721 41.2833 52.851 41.2683 52.8237C41.3 52.88 41.3282 52.9292 41.3582 52.9855C41.3459 52.9653 41.3353 52.9433 41.3229 52.9222V52.9213ZM40.6773 51.9285C40.6765 51.9285 40.6747 51.9215 40.6721 51.9215C40.6527 51.8951 40.6315 51.8731 40.6121 51.8441C40.6412 51.8801 40.6721 51.9215 40.7012 51.9645C40.6915 51.9496 40.6844 51.9364 40.6765 51.9294L40.6773 51.9285ZM39.8695 50.9858C38.8667 49.9719 37.661 49.2182 36.3407 48.7838C36.2711 48.7548 36.2005 48.7337 36.1299 48.7117C36.2711 48.7539 36.4113 48.804 36.548 48.8524C36.6873 48.9025 36.8232 48.9579 36.9572 49.0142C37.0251 49.0432 37.0913 49.0714 37.1583 49.1066C37.2915 49.1637 37.4229 49.227 37.5517 49.2965C37.6822 49.3598 37.8092 49.4302 37.9353 49.5005C38.0076 49.5427 38.08 49.5858 38.1523 49.628C38.2043 49.6623 38.2546 49.6913 38.3057 49.7256C38.4275 49.803 38.5483 49.8883 38.6656 49.9727C38.73 50.015 38.7935 50.058 38.8543 50.1073C38.9081 50.1486 38.9602 50.1899 39.014 50.226C39.126 50.3175 39.2371 50.408 39.3465 50.5004C39.3985 50.5487 39.4523 50.5918 39.5026 50.6402C39.559 50.6903 39.6137 50.7396 39.6657 50.7958C39.7178 50.846 39.7689 50.8943 39.8218 50.9445C39.8898 51.0139 39.9585 51.0843 40.0238 51.1555C40.1058 51.2382 40.1843 51.3305 40.2637 51.4158C40.3113 51.4721 40.3572 51.5275 40.4031 51.5838C40.4507 51.6409 40.4948 51.6972 40.5398 51.7535C40.5645 51.7799 40.5874 51.8098 40.6121 51.8432C40.3845 51.5477 40.1376 51.2602 39.8686 50.9849L39.8695 50.9858ZM40.9234 52.2741C40.9075 52.2539 40.8917 52.2319 40.8758 52.2108C40.9331 52.2873 40.9896 52.3726 41.0425 52.4579C41.0037 52.3946 40.9649 52.3312 40.9234 52.2741ZM40.7012 51.9645C40.7611 52.0419 40.8193 52.1272 40.8758 52.2116C40.8193 52.1281 40.7611 52.0428 40.7012 51.9645ZM35.0451 48.4523C35.061 48.4523 35.0769 48.4523 35.0919 48.4593C35.1148 48.4593 35.1395 48.4664 35.1642 48.4743C35.1236 48.4672 35.0866 48.4593 35.046 48.4523H35.0451ZM34.3916 48.3608C34.5362 48.374 34.6782 48.389 34.822 48.411C34.6782 48.389 34.5354 48.3749 34.3916 48.3608ZM32.0808 48.411C32.2299 48.389 32.3798 48.3749 32.5306 48.3538C32.3798 48.3687 32.2299 48.389 32.0808 48.411ZM27.1348 50.8732C25.9706 52.0068 25.1592 53.4085 24.7517 54.9421C24.7614 54.907 24.7703 54.8718 24.7808 54.8366C24.7932 54.7944 24.8064 54.7531 24.8188 54.71C24.8346 54.6598 24.8479 54.6115 24.8664 54.5614C24.8928 54.4778 24.9228 54.3855 24.9546 54.3011C24.9696 54.2589 24.981 54.2237 24.9969 54.1806C25.0172 54.1243 25.041 54.0619 25.0666 54.0047C25.0913 53.9352 25.1186 53.8719 25.1468 53.8086C25.1698 53.7514 25.1945 53.6952 25.2192 53.6398C25.2377 53.6037 25.2544 53.5624 25.2739 53.5193C25.2941 53.4771 25.3162 53.4278 25.3409 53.3795C25.3691 53.3223 25.3973 53.266 25.4273 53.2097C25.4599 53.1394 25.4935 53.0761 25.5287 53.0128C25.6346 52.8158 25.751 52.625 25.8727 52.4368C25.9018 52.3946 25.9309 52.3506 25.9609 52.3022C26.0606 52.1536 26.162 52.0129 26.2714 51.8731C26.3005 51.8309 26.3331 51.7895 26.3648 51.7544C26.4539 51.6339 26.5456 51.5213 26.6427 51.4167C26.6894 51.3595 26.7361 51.3112 26.7829 51.254C26.8314 51.2056 26.8817 51.1485 26.9302 51.0992C26.9805 51.0491 27.0298 50.9937 27.0828 50.9445C27.1277 50.9005 27.1727 50.8521 27.2203 50.8099C27.2803 50.7554 27.3385 50.6982 27.3994 50.6411C27.4408 50.6059 27.4849 50.5646 27.5281 50.5294C27.6869 50.3887 27.8509 50.2533 28.0194 50.1275C28.0503 50.1082 28.0811 50.0791 28.1129 50.058C28.1552 50.0299 28.1958 50.0009 28.2372 49.9727C28.2955 49.9305 28.3554 49.8892 28.4136 49.8461C28.4683 49.8109 28.5195 49.7758 28.5733 49.7406C28.7109 49.657 28.8511 49.5656 28.9922 49.4882C29.0398 49.4601 29.0875 49.431 29.136 49.4108C29.151 49.3976 29.1677 49.3906 29.1836 49.3827C29.2374 49.3545 29.2947 49.3264 29.3503 49.2974C29.4147 49.2622 29.4808 49.2279 29.547 49.1989C29.6801 49.1356 29.8177 49.0723 29.9553 49.0151C30.0188 48.987 30.0841 48.9588 30.1476 48.9316C30.2049 48.9113 30.2614 48.8902 30.3178 48.8682C30.3399 48.8612 30.3628 48.8533 30.3848 48.848C30.443 48.8278 30.503 48.8058 30.563 48.7847C30.6265 48.7627 30.69 48.7425 30.7544 48.7214C30.7676 48.7126 30.7791 48.7126 30.7923 48.7064C30.8558 48.6915 30.9202 48.6713 30.9846 48.6493C31.0569 48.629 31.1283 48.6141 31.1989 48.5948C31.2668 48.5719 31.3365 48.5587 31.4053 48.5446C29.8036 48.9104 28.3307 49.6984 27.133 50.8732H27.1348ZM107.607 55.4064C107.552 56.977 106.273 58.2082 104.695 58.2082H97.7713C97.7713 58.2011 97.7722 58.1932 97.7722 58.1879C97.7819 58.1237 97.7889 58.0543 97.7969 57.9822C97.7977 57.9822 97.7977 57.976 97.7977 57.969C97.8066 57.8986 97.8127 57.8221 97.8171 57.75C97.8224 57.6805 97.826 57.6172 97.8295 57.5469C97.8321 57.5266 97.8321 57.5117 97.833 57.4897C97.8365 57.4264 97.8392 57.356 97.8401 57.2857C97.841 57.2092 97.8436 57.1388 97.8436 57.0606C97.8436 56.7229 97.8251 56.3922 97.7889 56.0677C97.7836 56.0194 97.7792 55.9763 97.7722 55.9279C97.7713 55.9077 97.7669 55.8778 97.7625 55.8558C97.7572 55.8013 97.7475 55.7512 97.7404 55.6958C97.7404 55.6887 97.7395 55.6887 97.7395 55.6808C97.7272 55.6105 97.7148 55.5401 97.7034 55.4698C97.6884 55.3924 97.6751 55.3229 97.6619 55.2526C97.6496 55.1884 97.6372 55.1321 97.624 55.0767C97.6116 55.0195 97.5975 54.9632 97.5834 54.9078C97.5772 54.8876 97.5728 54.8595 97.5649 54.8375C97.5429 54.7451 97.5199 54.6616 97.4943 54.5763C97.4917 54.5631 97.4891 54.5561 97.4882 54.5499C97.4732 54.4998 97.4591 54.4506 97.4414 54.4013C97.0225 53.0427 96.279 51.7904 95.2489 50.7484C94.9014 50.3957 94.5309 50.08 94.1385 49.7995C94.0494 49.7353 93.9568 49.672 93.8642 49.6087C93.8633 49.6016 93.8615 49.6016 93.8607 49.6016C93.8139 49.5735 93.7672 49.5454 93.7204 49.5102C93.6719 49.482 93.6243 49.4469 93.5767 49.4187C93.5696 49.4187 93.5643 49.4117 93.5599 49.4117C93.5564 49.4117 93.5537 49.4047 93.5502 49.4047C93.5079 49.3765 93.4638 49.3475 93.4188 49.3282C93.402 49.3132 93.3844 49.3062 93.3668 49.293C93.3509 49.2842 93.3324 49.271 93.3156 49.264C93.3103 49.264 93.3059 49.2578 93.3006 49.2578C93.2495 49.2297 93.1957 49.2006 93.1436 49.1664C93.0378 49.1092 92.9293 49.052 92.8208 49.0037C92.7864 48.9834 92.7511 48.9685 92.715 48.9465C92.6788 48.9333 92.6409 48.9122 92.6039 48.8981C92.5915 48.892 92.5774 48.8832 92.565 48.8779C92.5086 48.8559 92.453 48.8295 92.3957 48.8076C92.3754 48.7926 92.3543 48.7873 92.3322 48.7794C92.3119 48.7724 92.2899 48.7574 92.2687 48.7513C92.2493 48.7442 92.2281 48.7363 92.2087 48.7293C92.1549 48.7091 92.1029 48.688 92.05 48.666C91.9988 48.6458 91.945 48.6238 91.8912 48.6097C91.8824 48.6027 91.8692 48.5965 91.8595 48.5965C91.8145 48.5816 91.7704 48.5605 91.7263 48.5464C91.6716 48.5314 91.6169 48.5103 91.5614 48.4892C91.5049 48.476 91.452 48.4611 91.3956 48.4409C91.3277 48.4189 91.2615 48.4057 91.1936 48.3846C91.1592 48.3758 91.1239 48.3696 91.0904 48.3556C91.0587 48.3494 91.0243 48.3424 90.9907 48.3353C90.9581 48.3283 90.9264 48.3133 90.892 48.3072C90.7782 48.2791 90.6644 48.2588 90.5498 48.2351C90.4342 48.2157 90.3178 48.1938 90.2032 48.1806C90.0594 48.1524 89.9139 48.1384 89.7692 48.1234C89.756 48.1172 89.7428 48.1172 89.7287 48.1172C89.6625 48.1085 89.5946 48.1023 89.5276 48.0953H89.5187C89.4579 48.0953 89.3953 48.0882 89.3344 48.0882C89.2991 48.0812 89.2665 48.0812 89.2321 48.0812C89.1995 48.0812 89.1651 48.0812 89.1333 48.0812C89.0972 48.075 89.061 48.075 89.024 48.075C89.0054 48.075 88.9878 48.075 88.9693 48.075C88.9243 48.075 88.8811 48.075 88.8361 48.075C88.6871 48.075 88.5389 48.075 88.3916 48.0812C88.321 48.0882 88.2478 48.0882 88.1755 48.0961C88.0291 48.1093 87.8845 48.1243 87.7407 48.1384C87.7407 48.1384 87.7398 48.1384 87.7381 48.1384C87.6746 48.1445 87.6111 48.1533 87.5476 48.1665C87.3712 48.1867 87.1957 48.2228 87.021 48.2588C85.3418 48.6027 83.7869 49.4328 82.5204 50.671C81.1445 52.0235 80.2555 53.7259 79.9424 55.563C79.9424 55.57 79.9424 55.57 79.9424 55.57C79.9318 55.6333 79.923 55.6975 79.9115 55.7608C79.9018 55.8171 79.8948 55.8796 79.8868 55.9429C79.8674 56.0915 79.8524 56.2383 79.8418 56.3861C79.8366 56.4564 79.8321 56.5329 79.8268 56.6112C79.8207 56.7598 79.8163 56.9067 79.8163 57.0623C79.8163 57.1397 79.8171 57.2109 79.8198 57.2874C79.8207 57.3578 79.8233 57.4281 79.8268 57.4915C79.8277 57.5486 79.8321 57.597 79.8366 57.6462C79.8392 57.6964 79.8418 57.7386 79.8454 57.7808C79.8507 57.8291 79.8524 57.8793 79.8586 57.9276C79.8639 57.9698 79.8674 58.0191 79.8736 58.0613C79.8798 58.1114 79.8842 58.1607 79.8903 58.2099H42.4157C42.4466 57.9074 42.4633 57.6049 42.4633 57.2945C42.4633 57.2109 42.4624 57.1256 42.458 57.0421C42.4572 56.9788 42.4545 56.9076 42.451 56.8442V56.831C42.4483 56.7748 42.4448 56.7176 42.4413 56.6692C42.4377 56.6473 42.4377 56.627 42.436 56.5971C42.4289 56.5277 42.4228 56.4512 42.4157 56.3799C42.4051 56.2612 42.3892 56.1328 42.3707 56.0141C42.3672 55.986 42.3645 55.9578 42.3601 55.9367C42.3601 55.9306 42.3601 55.9306 42.3593 55.9235C42.3469 55.8532 42.3363 55.7828 42.3231 55.7125C42.3099 55.6351 42.2966 55.5639 42.2816 55.4865C42.2693 55.4319 42.2569 55.3748 42.2437 55.3185C42.2411 55.3036 42.2367 55.2895 42.2331 55.2763V55.2693C42.2323 55.2631 42.2278 55.2561 42.227 55.249C42.2261 55.242 42.2243 55.242 42.2234 55.2341C42.2234 55.2271 42.2208 55.2209 42.2199 55.2209C42.2199 55.2139 42.219 55.2139 42.219 55.2059C42.2181 55.2059 42.2155 55.1989 42.2155 55.1989C42.2067 55.1637 42.1996 55.1286 42.1908 55.1004C42.1855 55.0802 42.182 55.0661 42.1785 55.0521C42.1785 55.045 42.1776 55.045 42.1749 55.0371C42.159 54.9738 42.1405 54.9105 42.1229 54.8472C42.1035 54.7768 42.085 54.7135 42.0656 54.6502C42.0629 54.6352 42.0594 54.6282 42.055 54.615C42.0365 54.5578 42.0197 54.5095 42.0029 54.4523C41.9862 54.4039 41.9677 54.3468 41.9483 54.2975C41.943 54.2773 41.9359 54.2624 41.9289 54.2474C41.9289 54.2404 41.9262 54.2404 41.9253 54.2342C41.9227 54.2272 41.92 54.2193 41.9192 54.214C41.9139 54.207 41.9121 54.192 41.9068 54.185C41.9042 54.1779 41.9015 54.1718 41.8998 54.1648C41.8777 54.1014 41.8548 54.046 41.8301 53.9827C41.8107 53.9405 41.7913 53.8913 41.7727 53.842L41.756 53.806C41.7551 53.7998 41.7507 53.7928 41.7498 53.7928C41.7242 53.7295 41.6995 53.6741 41.6757 53.6239C41.6749 53.6169 41.6722 53.6169 41.6722 53.609C41.6687 53.609 41.6669 53.6028 41.666 53.6028C41.659 53.5826 41.6475 53.5606 41.6378 53.5395C41.6184 53.4973 41.5964 53.4542 41.5761 53.405C41.5699 53.3918 41.5628 53.3768 41.5567 53.3707C41.5311 53.3135 41.5046 53.2651 41.4791 53.215C41.4473 53.1517 41.4129 53.0884 41.3803 53.0251C41.3794 53.0251 41.3794 53.018 41.3776 53.018C41.3715 53.011 41.367 52.9978 41.3609 52.9899C41.3485 52.9697 41.3379 52.9477 41.3256 52.9266C41.3221 52.9196 41.3168 52.9116 41.3124 52.9064C41.2991 52.8773 41.2859 52.8562 41.2709 52.829C41.2542 52.8008 41.2356 52.7657 41.2162 52.7375C41.1995 52.7085 41.181 52.6733 41.1615 52.6452C41.1607 52.6382 41.158 52.6381 41.1545 52.6302C41.1201 52.574 41.0839 52.5186 41.046 52.4623C41.0072 52.399 40.9684 52.3356 40.9269 52.2785C40.9111 52.2583 40.8952 52.2363 40.8793 52.2152C40.8229 52.1316 40.7647 52.0463 40.7047 51.9681C40.695 51.9531 40.6879 51.9399 40.68 51.9329C40.6791 51.9329 40.6773 51.9258 40.6747 51.9258C40.6553 51.8995 40.6341 51.8775 40.6147 51.8485C40.3872 51.553 40.1402 51.2654 39.8712 50.9902C38.8684 49.9763 37.6628 49.2226 36.3425 48.7882C36.2728 48.7592 36.2023 48.7381 36.1317 48.7161L35.995 48.6748C35.9888 48.6748 35.9844 48.6748 35.9791 48.6748C35.9438 48.6616 35.9059 48.6528 35.8671 48.6396C35.8645 48.6396 35.8618 48.6396 35.8583 48.6396C35.8477 48.6326 35.8362 48.6326 35.8239 48.6247C35.793 48.6176 35.7622 48.6115 35.7313 48.6044C35.7278 48.6044 35.7242 48.6044 35.7207 48.6044C35.674 48.5895 35.629 48.5754 35.5831 48.5692C35.5611 48.5622 35.5417 48.5543 35.5187 48.549C35.4985 48.549 35.4764 48.542 35.4552 48.5341C35.4014 48.527 35.3494 48.5121 35.2947 48.4989C35.2753 48.4989 35.2559 48.4919 35.2383 48.4919C35.2127 48.4848 35.1898 48.4787 35.166 48.4787C35.1254 48.4716 35.0883 48.4637 35.0478 48.4567C34.9737 48.4435 34.8987 48.4285 34.8246 48.4154C34.6809 48.3934 34.538 48.3793 34.3942 48.3652C34.3784 48.3582 34.3634 48.3582 34.3475 48.3582C34.344 48.3582 34.3387 48.3582 34.3343 48.3582C34.2858 48.352 34.2364 48.345 34.187 48.345C34.1764 48.345 34.1649 48.345 34.1543 48.345C34.1491 48.338 34.1446 48.338 34.1394 48.338C34.1323 48.338 34.1235 48.338 34.1147 48.338C34.0732 48.338 34.0291 48.3309 33.9868 48.3309C33.9771 48.3309 33.9674 48.3309 33.9577 48.3309C33.9444 48.3309 33.9294 48.3239 33.9162 48.3239C33.8995 48.3239 33.8845 48.3239 33.8677 48.3239H33.8527C33.821 48.3239 33.791 48.3239 33.7601 48.3239C33.7213 48.3169 33.6834 48.3169 33.6446 48.3169C33.6278 48.3169 33.6084 48.3169 33.5899 48.3169C33.5458 48.3169 33.5008 48.3169 33.4567 48.3169C33.3615 48.3169 33.2662 48.3169 33.1727 48.3169C33.1313 48.3169 33.0889 48.3239 33.0457 48.3239C33.0034 48.3239 32.9619 48.3239 32.9205 48.3309C32.9046 48.3309 32.8887 48.3309 32.8729 48.3309C32.8252 48.338 32.7776 48.338 32.7291 48.3459H32.7238C32.6594 48.3459 32.5959 48.3529 32.5324 48.3591C32.3816 48.374 32.2317 48.3943 32.0826 48.4162C32.0191 48.4294 31.9556 48.4365 31.8939 48.4514C31.8868 48.4514 31.8833 48.4514 31.8771 48.4514C31.8709 48.4514 31.8665 48.4514 31.8604 48.4576C31.7907 48.4646 31.7228 48.4796 31.6531 48.4927C31.6407 48.4998 31.6284 48.4998 31.6169 48.4998C31.5764 48.513 31.5349 48.5218 31.4952 48.5279C31.4758 48.535 31.4564 48.535 31.4352 48.5429C31.4282 48.5429 31.4185 48.5429 31.4097 48.5499C29.808 48.9157 28.3351 49.7037 27.1374 50.8785C25.9732 52.012 25.1618 53.4138 24.7544 54.9474C24.7473 54.9755 24.7394 55.0037 24.7341 55.0327C24.7332 55.0327 24.7332 55.0327 24.7332 55.0389C24.7297 55.0459 24.7279 55.0538 24.727 55.0591C24.72 55.0811 24.7147 55.1092 24.7076 55.1294C24.7006 55.1646 24.6918 55.1928 24.6847 55.2279C24.6821 55.235 24.6812 55.2429 24.6785 55.2569C24.6635 55.3203 24.6503 55.3818 24.6371 55.4469C24.63 55.475 24.6238 55.5032 24.6177 55.5384L24.6018 55.6157C24.593 55.6509 24.5868 55.6931 24.5815 55.7292C24.5727 55.7775 24.563 55.8268 24.5559 55.8839C24.5524 55.8989 24.5498 55.9191 24.5462 55.9341C24.5453 55.9402 24.5436 55.9473 24.5436 55.9543C24.5339 56.0247 24.5242 56.088 24.5154 56.1583C24.5048 56.2357 24.496 56.3052 24.4898 56.3834C24.481 56.4608 24.4748 56.5382 24.4695 56.6094C24.4642 56.6657 24.4607 56.7211 24.4598 56.7783C24.4589 56.7915 24.4563 56.8064 24.4563 56.8126C24.4554 56.8478 24.4527 56.8829 24.451 56.9111C24.451 56.926 24.451 56.9331 24.451 56.9471C24.4457 57.0016 24.4457 57.0658 24.4457 57.1292C24.443 57.1714 24.4422 57.2145 24.4422 57.2558V57.291C24.4422 57.4466 24.4457 57.6005 24.4545 57.7491C24.4554 57.7773 24.4554 57.8054 24.4598 57.8327C24.4598 57.8476 24.4607 57.8678 24.4624 57.8828C24.4651 57.9241 24.4677 57.9593 24.4713 58.0015C24.4766 58.0587 24.4783 58.1149 24.4871 58.1642C24.4871 58.1844 24.488 58.1985 24.4907 58.2125H9.04924C7.43525 58.2125 6.12289 56.904 6.12289 55.2983V18.0309C6.12289 16.4252 7.43525 15.1167 9.04924 15.1167H92.5218C94.1305 15.1167 95.6546 15.807 96.705 17.0188C98.7097 19.3254 101.587 23.3802 103.899 29.5807C105.527 33.9381 106.631 38.7035 107.202 43.8127C107.282 44.51 107.351 45.2126 107.407 45.9241C107.656 48.972 107.726 52.1395 107.61 55.4126L107.607 55.4064ZM105.881 28.8368C105.07 26.663 104.189 24.7336 103.297 23.0443C102.902 22.2977 102.505 21.5942 102.11 20.9329C100.737 18.6386 99.3967 16.893 98.3013 15.6329C96.8487 13.9585 94.7409 13 92.5174 13H9.04483C6.26312 13 4 15.2521 4 18.0257V55.293C4 58.0675 6.26312 60.3195 9.04483 60.3195H27.1092L26.7741 59.0093L26.7714 59.0022C26.7679 58.9873 26.7626 58.9671 26.7608 58.9521C26.7458 58.9037 26.7353 58.8545 26.7229 58.8061C26.722 58.7973 26.7194 58.7912 26.7194 58.7771C26.707 58.7349 26.6973 58.6857 26.6885 58.6364C26.6788 58.5951 26.6726 58.5529 26.6638 58.5098C26.6541 58.4535 26.6444 58.3963 26.6356 58.3409C26.625 58.2706 26.6136 58.2002 26.6047 58.122C26.5994 58.0806 26.5959 58.0384 26.5915 57.9953C26.5889 57.9672 26.5853 57.9391 26.5844 57.9039C26.5818 57.8969 26.5818 57.8969 26.5818 57.8889C26.5783 57.8476 26.5747 57.8116 26.573 57.7702C26.5721 57.757 26.5703 57.7482 26.5695 57.735V57.728C26.5668 57.6928 26.5659 57.6647 26.5633 57.6366C26.5624 57.6084 26.5606 57.5794 26.5606 57.5451C26.558 57.5029 26.5571 57.4598 26.5571 57.4185C26.5562 57.3613 26.5562 57.3129 26.5562 57.2628C26.5562 57.1995 26.5571 57.1362 26.5589 57.072C26.5598 57.0588 26.5598 57.0377 26.5615 57.0175C26.5624 56.9814 26.5642 56.9454 26.5677 56.9119C26.5703 56.8548 26.5739 56.7985 26.5783 56.7422C26.5853 56.6376 26.5977 56.525 26.61 56.4186C26.8014 54.885 27.499 53.47 28.6165 52.3787C29.7075 51.3156 31.0913 50.6543 32.5915 50.4705C32.6427 50.4643 32.6929 50.4643 32.7423 50.4573C32.7935 50.4502 32.8437 50.4423 32.8949 50.4423C32.9461 50.4353 32.9999 50.4353 33.051 50.4291C33.118 50.4291 33.1851 50.4221 33.253 50.4221C33.3191 50.4221 33.3844 50.4221 33.4514 50.4221C33.4858 50.4221 33.5211 50.4221 33.5546 50.4221H33.5705C33.6128 50.4221 33.6534 50.4221 33.6948 50.4221C33.7134 50.4221 33.731 50.4221 33.7495 50.4291H33.7548C33.7874 50.4291 33.821 50.4291 33.8527 50.4291C33.8968 50.4353 33.9383 50.4353 33.9806 50.4353C34.0388 50.4423 34.0979 50.4502 34.1552 50.4573C34.2055 50.4573 34.2531 50.4643 34.3025 50.4705C34.3193 50.4705 34.3369 50.4775 34.3537 50.4775C34.3607 50.4775 34.3687 50.4775 34.374 50.4775C34.4163 50.4845 34.456 50.4925 34.4992 50.4995C34.6138 50.5127 34.7259 50.5338 34.8379 50.5558C34.8943 50.5707 34.9516 50.5839 35.0063 50.598C35.0734 50.6129 35.1404 50.6261 35.2074 50.6463C35.2145 50.6463 35.2206 50.6463 35.2277 50.6463C35.3018 50.6666 35.375 50.6886 35.4482 50.7097C35.4993 50.7246 35.5505 50.7448 35.6016 50.7598C35.6122 50.7668 35.6237 50.7668 35.6343 50.773C35.6413 50.773 35.6502 50.78 35.6563 50.78H35.659C35.6616 50.78 35.6651 50.78 35.6696 50.7871C35.6749 50.7871 35.6801 50.7871 35.6863 50.7871C35.7225 50.802 35.7586 50.8161 35.7922 50.8293C35.8071 50.8354 35.8204 50.8354 35.8345 50.8442C35.8495 50.8504 35.8636 50.8504 35.8759 50.8574C35.9121 50.8706 35.9483 50.8855 35.9835 50.8987C36.0021 50.9075 36.0197 50.9137 36.0373 50.9207C36.0541 50.9278 36.0717 50.9357 36.0876 50.9427C36.1573 50.9708 36.227 50.999 36.2949 51.0342C36.3099 51.0403 36.3266 51.0473 36.3416 51.0544C36.3478 51.0544 36.3522 51.0544 36.3584 51.0614C36.406 51.0816 36.4519 51.1027 36.4977 51.1247C37.1812 51.4624 37.8092 51.9135 38.3587 52.4693C38.8729 52.9837 39.2944 53.5756 39.6119 54.2087C39.6428 54.272 39.6701 54.3274 39.6984 54.3925C39.6993 54.3925 39.6993 54.3925 39.6993 54.3925C39.6993 54.3987 39.7019 54.3987 39.7019 54.3987C39.7028 54.3987 39.7028 54.3987 39.7028 54.3987C39.7037 54.4057 39.7063 54.4057 39.7081 54.4136C39.7116 54.4198 39.7151 54.4268 39.7178 54.4338C39.7381 54.4761 39.7557 54.5191 39.7742 54.5605C39.7751 54.5605 39.7751 54.5605 39.7777 54.5675C39.7804 54.5737 39.7848 54.5825 39.7883 54.5877C39.791 54.5948 39.7936 54.5948 39.7945 54.6027C39.7954 54.6097 39.798 54.6097 39.8007 54.6176C39.8113 54.6458 39.8236 54.6739 39.8333 54.6941C39.8492 54.7293 39.8624 54.7715 39.8774 54.8076C39.8801 54.8146 39.8827 54.8208 39.8845 54.8278C39.9003 54.863 39.9162 54.9052 39.9286 54.9413C39.9312 54.9483 39.9312 54.9483 39.9321 54.9544C39.9374 54.9615 39.9409 54.9694 39.9418 54.9835C39.9427 54.9835 39.9444 54.9896 39.9453 54.9896C39.9453 54.9896 39.9453 54.9896 39.9453 54.9967C39.9488 54.9967 39.9506 55.0037 39.9515 55.0116H39.9524C39.9559 55.0178 39.9594 55.0266 39.963 55.0397C39.9656 55.0468 39.9665 55.0529 39.9691 55.0529C39.9691 55.0617 39.97 55.0617 39.97 55.0617C39.9735 55.0749 39.9788 55.082 39.9824 55.096C39.9832 55.096 39.9832 55.1031 39.985 55.1031C40.0018 55.1532 40.0168 55.2015 40.0335 55.2517C40.0494 55.308 40.0661 55.3563 40.0803 55.4135C40.097 55.4698 40.112 55.5269 40.127 55.5823C40.1579 55.6878 40.1835 55.8013 40.2046 55.913C40.2267 56.0185 40.2461 56.1302 40.2628 56.2366C40.2628 56.2436 40.2628 56.2436 40.2637 56.2515C40.2725 56.2999 40.2796 56.3571 40.2866 56.4063C40.2866 56.4133 40.2866 56.4213 40.2875 56.4265C40.2946 56.4837 40.3025 56.5408 40.3069 56.5954C40.3105 56.6314 40.3157 56.6728 40.3175 56.7097C40.3202 56.7361 40.3228 56.766 40.3228 56.7862C40.3281 56.8284 40.329 56.8636 40.3316 56.8996C40.3325 56.9199 40.3325 56.9339 40.3351 56.9568C40.3404 57.0685 40.344 57.1802 40.344 57.2936C40.344 57.3789 40.3413 57.4624 40.3378 57.5407C40.3378 57.5477 40.3378 57.5539 40.3378 57.5609C40.3369 57.6181 40.3325 57.6744 40.329 57.7298C40.3263 57.7931 40.3202 57.8564 40.314 57.9136C40.3087 57.9698 40.3043 58.027 40.2981 58.0754C40.2955 58.1035 40.2928 58.1237 40.2893 58.1528C40.2822 58.2161 40.2725 58.2794 40.2628 58.3427C40.254 58.399 40.2443 58.4561 40.2346 58.5115C40.2275 58.5538 40.2187 58.5968 40.2099 58.6452C40.2046 58.6672 40.1993 58.6936 40.1932 58.7226C40.1932 58.7296 40.1923 58.7296 40.1905 58.7296C40.1843 58.771 40.1746 58.807 40.1649 58.8483C40.1552 58.8967 40.142 58.953 40.1297 59.0031L39.791 60.3204H82.5944L82.202 58.9679C82.1984 58.9618 82.1958 58.9477 82.1923 58.9398C82.1764 58.8835 82.1614 58.8281 82.1473 58.771C82.1376 58.7358 82.1279 58.6936 82.1182 58.6522C82.1111 58.6241 82.1032 58.596 82.0988 58.5669C82.0917 58.5388 82.0856 58.5036 82.0785 58.4755C82.0688 58.4254 82.0591 58.377 82.0503 58.3286C82.0468 58.3137 82.0415 58.2926 82.0397 58.2715C82.0335 58.2433 82.0291 58.2152 82.0247 58.18C82.0176 58.1448 82.0115 58.1026 82.0062 58.0683C81.9991 58.0261 81.9938 57.9909 81.9894 57.954C81.9868 57.9408 81.9841 57.9188 81.9832 57.9056C81.978 57.8555 81.9727 57.8072 81.9674 57.7588C81.9612 57.7016 81.9568 57.6533 81.9524 57.5961C81.9392 57.4123 81.9321 57.2373 81.9321 57.0614C81.9321 56.9427 81.9347 56.8293 81.9409 56.7158C81.9436 56.6596 81.9462 56.6103 81.9506 56.5611C81.9577 56.4406 81.97 56.3219 81.985 56.2084C82 56.0968 82.0168 55.9833 82.0362 55.8708C82.0423 55.8294 82.052 55.7872 82.0609 55.7441C82.0697 55.6958 82.0767 55.6527 82.0864 55.6105C82.0873 55.6105 82.0873 55.6105 82.0873 55.6034C82.097 55.5683 82.1058 55.5269 82.1164 55.483C82.1252 55.4487 82.1332 55.4064 82.1446 55.3642C82.1455 55.3642 82.1473 55.3572 82.1482 55.3572C82.1482 55.351 82.1491 55.351 82.1491 55.344C82.1596 55.3088 82.1685 55.2807 82.1746 55.2455C82.1799 55.2385 82.1843 55.2235 82.1879 55.2103C82.1887 55.1954 82.194 55.1822 82.1976 55.1752L82.2011 55.1602C82.2037 55.1541 82.2073 55.14 82.2108 55.1321C82.2143 55.1189 82.2179 55.1039 82.2214 55.0907C82.2214 55.0907 82.2223 55.0837 82.224 55.0837C82.2337 55.0485 82.247 55.0134 82.2584 54.9782C82.2708 54.936 82.284 54.8929 82.2999 54.8507C82.329 54.7742 82.3572 54.6906 82.3898 54.6053C82.4084 54.5631 82.4251 54.513 82.4445 54.4717C82.4763 54.3952 82.5089 54.3169 82.5442 54.2457C82.5574 54.2114 82.5724 54.1753 82.5892 54.1472C82.7109 53.8948 82.8476 53.6477 83.001 53.4094C83.0204 53.3812 83.039 53.3461 83.0592 53.317C83.0681 53.3038 83.076 53.2889 83.0875 53.2748C83.1104 53.2405 83.1351 53.2045 83.1607 53.1693C83.2154 53.0928 83.2744 53.0145 83.3353 52.931C83.3803 52.8738 83.4306 52.8105 83.4791 52.7533C83.5267 52.6918 83.577 52.6346 83.629 52.5713C83.6519 52.5432 83.6766 52.523 83.7022 52.4939C83.7075 52.4878 83.7145 52.4807 83.719 52.4737C83.7436 52.4456 83.7692 52.4165 83.7948 52.3902C83.8045 52.3831 83.8151 52.3682 83.8239 52.362C83.8812 52.2987 83.9412 52.2415 84.0029 52.1782C84.1026 52.0789 84.2076 51.9813 84.3152 51.8889C84.3407 51.8687 84.3654 51.8467 84.3919 51.8256C84.4457 51.7772 84.5004 51.7341 84.5568 51.6858C84.6071 51.6506 84.6582 51.6084 84.7076 51.5723C84.7429 51.5442 84.7773 51.5161 84.8135 51.495C84.8488 51.4668 84.8831 51.4387 84.9167 51.4184C84.9361 51.4035 84.9528 51.3894 84.9731 51.3824C84.9766 51.3762 84.9802 51.3762 84.9837 51.3762C85.0163 51.3481 85.0507 51.3279 85.0851 51.3041C85.086 51.3041 85.086 51.3041 85.0878 51.3041C85.168 51.2496 85.2465 51.1995 85.3294 51.1494C85.3903 51.1142 85.4529 51.0799 85.5138 51.0438C85.5967 50.9955 85.6796 50.9524 85.7633 50.911C85.8048 50.8891 85.8463 50.8688 85.8868 50.8539C85.8877 50.8477 85.8903 50.8477 85.8921 50.8477C85.9071 50.8389 85.9212 50.8328 85.9344 50.8257C85.9627 50.8196 85.9882 50.8055 86.0147 50.7906C86.0667 50.7703 86.1179 50.7422 86.1708 50.7202C86.2096 50.707 86.2484 50.685 86.2899 50.6701C86.3155 50.6639 86.3402 50.6499 86.3666 50.642C86.3728 50.642 86.379 50.6358 86.3851 50.6358C86.4354 50.6156 86.483 50.6006 86.5315 50.5786C86.5404 50.5786 86.5501 50.5725 86.5598 50.5725C86.5598 50.5725 86.5598 50.5725 86.5606 50.5725C86.5862 50.5575 86.6127 50.5505 86.64 50.5435C86.6876 50.5232 86.7335 50.5092 86.7838 50.4951C86.8085 50.4881 86.8349 50.4801 86.8605 50.4731C86.8923 50.4599 86.9214 50.4529 86.9531 50.445C86.9593 50.445 86.9637 50.4379 86.9716 50.4379C86.9752 50.4379 86.9787 50.4379 86.9813 50.4379C86.9919 50.4318 87.0034 50.4318 87.014 50.4247C87.0201 50.4247 87.0263 50.4247 87.0298 50.4247C87.036 50.4247 87.0404 50.4177 87.0457 50.4177C87.0651 50.4107 87.0836 50.4107 87.1004 50.4045C87.1039 50.4045 87.1101 50.4045 87.1154 50.4045C87.1674 50.3896 87.2212 50.3755 87.2724 50.3623C87.3147 50.3553 87.3553 50.3421 87.3967 50.3333C87.417 50.3271 87.4382 50.3271 87.4585 50.3201C87.4779 50.3201 87.4999 50.3131 87.5202 50.3051C87.5643 50.299 87.6093 50.292 87.6543 50.2849C87.709 50.2788 87.7628 50.2647 87.8192 50.2559C87.9189 50.2427 88.0194 50.2295 88.1217 50.2216H88.127C88.1588 50.2146 88.1887 50.2146 88.2205 50.2067C88.2523 50.2067 88.284 50.2067 88.3166 50.2005C88.3731 50.2005 88.4278 50.1917 88.4833 50.1917C88.6324 50.1856 88.7805 50.1856 88.9305 50.1856H88.9472C88.986 50.1856 89.0275 50.1856 89.0681 50.1856C89.0875 50.1917 89.106 50.1917 89.1263 50.1917C89.1589 50.1917 89.1907 50.1917 89.2242 50.1917C89.2683 50.2005 89.3106 50.2005 89.3547 50.2067C89.412 50.2067 89.472 50.2137 89.5293 50.2216C89.5805 50.2216 89.6325 50.2286 89.6854 50.2366C89.6978 50.2366 89.7084 50.2427 89.7216 50.2427C89.7719 50.2497 89.823 50.2559 89.8742 50.2647C89.988 50.2796 90.1008 50.2999 90.2129 50.328C90.2966 50.343 90.3795 50.3632 90.4642 50.3764C90.511 50.3913 90.5542 50.4054 90.6009 50.4116C90.6009 50.4116 90.6036 50.4186 90.6044 50.4186C90.6715 50.4335 90.7376 50.4538 90.8029 50.4749C90.8179 50.4749 90.8293 50.4819 90.8435 50.4819C90.8796 50.4969 90.9175 50.5039 90.9546 50.5171C90.9616 50.5241 90.9696 50.5241 90.9749 50.5241C91.0075 50.5373 91.041 50.5443 91.0737 50.5593C91.1142 50.5742 91.1539 50.5874 91.1945 50.6015C92.1417 50.9471 93.0069 51.495 93.7372 52.2336C94.4401 52.9442 94.9693 53.7822 95.3027 54.6968C95.3185 54.739 95.3335 54.7742 95.345 54.8173C95.3741 54.8938 95.3997 54.9791 95.4244 55.0556C95.4367 55.0978 95.4491 55.1409 95.4588 55.176C95.4676 55.2042 95.4738 55.2244 95.4791 55.2534C95.494 55.3018 95.5073 55.3519 95.5196 55.402C95.5232 55.4152 95.5258 55.4302 95.5293 55.4434C95.5487 55.5208 95.5655 55.599 95.5805 55.6755C95.6158 55.8444 95.6449 56.0132 95.666 56.1821C95.6731 56.2383 95.6793 56.3008 95.6854 56.3579C95.6916 56.4142 95.696 56.4696 95.7013 56.5329C95.704 56.562 95.7066 56.5962 95.7075 56.6253C95.7084 56.6604 95.7128 56.6886 95.7137 56.7167C95.7172 56.8302 95.7225 56.9427 95.7225 57.0623C95.7225 57.2382 95.7137 57.4132 95.7004 57.597C95.6951 57.6541 95.6916 57.7025 95.6854 57.7597C95.6819 57.808 95.6749 57.8573 95.6696 57.9065C95.6669 57.9197 95.6643 57.9417 95.6625 57.9549C95.659 57.9909 95.6537 58.0323 95.6466 58.0692C95.6413 58.1035 95.636 58.1387 95.6308 58.1739C95.6211 58.2301 95.6105 58.2926 95.5981 58.3559C95.5911 58.3919 95.5849 58.4333 95.5761 58.4702C95.5673 58.5115 95.5593 58.5467 95.5496 58.588C95.547 58.603 95.5434 58.6171 95.5399 58.6303C95.5293 58.6804 95.517 58.7226 95.5038 58.771C95.4914 58.8281 95.4755 58.8844 95.4597 58.9398C95.4588 58.9468 95.4535 58.9618 95.4508 58.975L95.0592 60.3204H104.69C107.415 60.3204 109.625 58.1932 109.719 55.483C110.068 45.5741 108.775 36.607 105.876 28.8368H105.881ZM24.6812 55.2235C24.6935 55.1673 24.7094 55.1119 24.7235 55.0547C24.7165 55.0767 24.7112 55.1048 24.7041 55.125C24.697 55.1602 24.6882 55.1884 24.6812 55.2235ZM24.7517 54.943C24.7614 54.9078 24.7703 54.8727 24.7808 54.8375C24.7932 54.7953 24.8064 54.7539 24.8188 54.7109C24.8346 54.6607 24.8479 54.6124 24.8664 54.5622C24.8928 54.4787 24.9228 54.3864 24.9546 54.3019C24.9696 54.2597 24.981 54.2246 24.9969 54.1815C25.0172 54.1252 25.041 54.0627 25.0666 54.0056C25.0913 53.9361 25.1186 53.8728 25.1468 53.8095C25.1698 53.7523 25.1945 53.696 25.2192 53.6406C25.2377 53.6046 25.2544 53.5633 25.2739 53.5202C25.2941 53.478 25.3162 53.4287 25.3409 53.3803C25.3691 53.3232 25.3973 53.2669 25.4273 53.2106C25.4599 53.1403 25.4935 53.077 25.5287 53.0136C25.6346 52.8167 25.751 52.6258 25.8727 52.4376C25.9018 52.3954 25.9309 52.3515 25.9609 52.3031C26.0606 52.1545 26.162 52.0138 26.2714 51.874C26.3005 51.8318 26.3331 51.7904 26.3648 51.7553C26.4539 51.6348 26.5456 51.5222 26.6427 51.4176C26.6894 51.3604 26.7361 51.312 26.7829 51.2549C26.8314 51.2065 26.8817 51.1494 26.9302 51.1001C26.9805 51.05 27.0298 50.9946 27.0828 50.9453C27.1277 50.9014 27.1727 50.853 27.2203 50.8108C27.2803 50.7563 27.3385 50.6991 27.3994 50.642C27.4408 50.6068 27.4849 50.5654 27.5281 50.5303C27.6869 50.3896 27.8509 50.2541 28.0194 50.1284C28.0503 50.109 28.0811 50.08 28.1129 50.0589C28.1552 50.0308 28.1958 50.0018 28.2372 49.9736C28.2955 49.9314 28.3554 49.8901 28.4136 49.847C28.4683 49.8118 28.5195 49.7766 28.5733 49.7415C28.7109 49.6579 28.8511 49.5665 28.9922 49.4891C29.0398 49.4609 29.0875 49.4319 29.136 49.4117C29.151 49.3985 29.1677 49.3915 29.1836 49.3836C29.2374 49.3554 29.2947 49.3273 29.3503 49.2983C29.4147 49.2631 29.4808 49.2288 29.547 49.1998C29.6801 49.1364 29.8177 49.0731 29.9553 49.016C30.0188 48.9878 30.0841 48.9597 30.1476 48.9324C30.2049 48.9122 30.2614 48.8911 30.3178 48.8691C30.3399 48.8621 30.3628 48.8542 30.3848 48.8489C30.443 48.8287 30.503 48.8067 30.563 48.7856C30.6265 48.7636 30.69 48.7434 30.7544 48.7223C30.7676 48.7135 30.7791 48.7135 30.7923 48.7073C30.8558 48.6924 30.9202 48.6721 30.9846 48.6502C31.0569 48.6299 31.1283 48.615 31.1989 48.5956C31.2668 48.5728 31.3365 48.5596 31.4053 48.5455C29.8036 48.9113 28.3307 49.6993 27.133 50.8741C25.9688 52.0076 25.1574 53.4094 24.75 54.943H24.7517ZM32.5306 48.3547C32.3798 48.3696 32.2299 48.3899 32.0808 48.4118C32.2299 48.3899 32.3798 48.3758 32.5306 48.3547ZM34.822 48.4118C34.6782 48.3899 34.5354 48.3758 34.3916 48.3617C34.5362 48.3749 34.6782 48.3899 34.822 48.4118ZM35.091 48.4602C35.1139 48.4602 35.1386 48.4672 35.1633 48.4752C35.1227 48.4681 35.0857 48.4602 35.0451 48.4532C35.061 48.4532 35.0769 48.4532 35.0919 48.4602H35.091ZM36.339 48.7847C36.2693 48.7557 36.1987 48.7346 36.1282 48.7126C36.2693 48.7548 36.4095 48.8049 36.5462 48.8533C36.6856 48.9034 36.8214 48.9588 36.9555 49.0151C37.0234 49.0441 37.0895 49.0723 37.1566 49.1074C37.2897 49.1646 37.4211 49.2279 37.5499 49.2974C37.6804 49.3607 37.8074 49.431 37.9336 49.5014C38.0059 49.5436 38.0782 49.5867 38.1505 49.6289C38.2026 49.6632 38.2528 49.6922 38.304 49.7265C38.4257 49.8039 38.5465 49.8892 38.6638 49.9736C38.7282 50.0158 38.7917 50.0589 38.8526 50.1082C38.9064 50.1495 38.9584 50.1908 39.0122 50.2269C39.1242 50.3183 39.2353 50.4089 39.3447 50.5013C39.3967 50.5496 39.4505 50.5927 39.5008 50.6411C39.5573 50.6912 39.6119 50.7404 39.664 50.7967C39.716 50.8468 39.7672 50.8952 39.8201 50.9453C39.888 51.0148 39.9568 51.0852 40.0221 51.1564C40.1041 51.2391 40.1826 51.3314 40.2619 51.4167C40.3096 51.473 40.3554 51.5284 40.4013 51.5847C40.4489 51.6418 40.493 51.6981 40.538 51.7544C40.5627 51.7808 40.5856 51.8107 40.6103 51.8441C40.3828 51.5486 40.1358 51.261 39.8668 50.9858C38.864 49.9719 37.6584 49.2182 36.3381 48.7838L36.339 48.7847ZM40.6756 51.9302C40.6747 51.9302 40.6729 51.9232 40.6703 51.9232C40.6509 51.8968 40.6297 51.8748 40.6103 51.8458C40.6394 51.8819 40.6703 51.9232 40.6994 51.9663C40.6897 51.9514 40.6826 51.9382 40.6747 51.9311L40.6756 51.9302ZM40.9217 52.2758C40.9058 52.2556 40.8899 52.2336 40.874 52.2125C40.9314 52.289 40.9878 52.3743 41.0407 52.4596C41.0019 52.3963 40.9631 52.333 40.9217 52.2758ZM40.6994 51.9663C40.7594 52.0437 40.8176 52.129 40.874 52.2134C40.8176 52.1299 40.7594 52.0446 40.6994 51.9663ZM41.308 52.9037C41.2947 52.8747 41.2815 52.8536 41.2665 52.8263C41.2983 52.8826 41.3265 52.9319 41.3565 52.9881C41.3441 52.9679 41.3335 52.9459 41.3212 52.9248C41.3177 52.9178 41.3124 52.9099 41.308 52.9046V52.9037ZM42.3707 56.0141C42.3892 56.1328 42.4034 56.2612 42.4157 56.3799C42.4051 56.2612 42.3892 56.1328 42.3707 56.0141ZM27.133 50.8759C25.9688 52.0094 25.1574 53.4111 24.75 54.9448C24.7597 54.9096 24.7685 54.8744 24.7791 54.8392C24.7914 54.797 24.8046 54.7557 24.817 54.7126C24.8329 54.6625 24.8461 54.6141 24.8646 54.564C24.8911 54.4805 24.9211 54.3881 24.9528 54.3037C24.9678 54.2615 24.9793 54.2263 24.9952 54.1832C25.0154 54.1269 25.0392 54.0645 25.0648 54.0073C25.0895 53.9379 25.1169 53.8746 25.1451 53.8112C25.168 53.7541 25.1927 53.6978 25.2174 53.6424C25.2359 53.6063 25.2527 53.565 25.2721 53.5219C25.2924 53.4797 25.3144 53.4305 25.3391 53.3821C25.3673 53.3249 25.3956 53.2687 25.4255 53.2124C25.4582 53.142 25.4917 53.0787 25.527 53.0154C25.6328 52.8184 25.7492 52.6276 25.8709 52.4394C25.9 52.3972 25.9292 52.3532 25.9591 52.3049C26.0588 52.1562 26.1602 52.0155 26.2696 51.8757C26.2987 51.8335 26.3313 51.7922 26.3631 51.757C26.4522 51.6365 26.5439 51.524 26.6409 51.4193C26.6876 51.3622 26.7344 51.3138 26.7811 51.2566C26.8296 51.2083 26.8799 51.1511 26.9284 51.1019C26.9787 51.0517 27.0281 50.9963 27.081 50.9471C27.126 50.9031 27.171 50.8548 27.2186 50.8126C27.2786 50.758 27.3368 50.7009 27.3976 50.6437C27.4391 50.6085 27.4832 50.5672 27.5264 50.532C27.6851 50.3913 27.8492 50.2559 28.0176 50.1302C28.0485 50.1108 28.0794 50.0818 28.1111 50.0607C28.1535 50.0325 28.194 50.0035 28.2355 49.9754C28.2937 49.9332 28.3537 49.8918 28.4119 49.8487C28.4666 49.8136 28.5177 49.7784 28.5715 49.7432C28.7091 49.6597 28.8493 49.5682 28.9904 49.4908C29.0381 49.4627 29.0857 49.4337 29.1342 49.4135C29.1492 49.4003 29.166 49.3932 29.1818 49.3853C29.2356 49.3572 29.293 49.329 29.3485 49.3C29.4129 49.2648 29.4791 49.2305 29.5452 49.2015C29.6784 49.1382 29.816 49.0749 29.9536 49.0177C30.0171 48.9896 30.0823 48.9615 30.1458 48.9342C30.2031 48.914 30.2596 48.8929 30.316 48.8709C30.3381 48.8638 30.361 48.8559 30.3831 48.8507C30.4413 48.8304 30.5013 48.8084 30.5612 48.7873C30.6247 48.7654 30.6882 48.7451 30.7526 48.724C30.7658 48.7152 30.7773 48.7152 30.7905 48.7091C30.854 48.6941 30.9184 48.6739 30.9828 48.6519C31.0551 48.6317 31.1266 48.6167 31.1971 48.5974C31.265 48.5745 31.3347 48.5613 31.4035 48.5473C29.8019 48.9131 28.329 49.701 27.1313 50.8759H27.133ZM32.0791 48.4136C32.2281 48.3916 32.3781 48.3775 32.5289 48.3564C32.3781 48.3714 32.2281 48.3916 32.0791 48.4136ZM34.3898 48.3635C34.5345 48.3767 34.6765 48.3916 34.8202 48.4136C34.6765 48.3916 34.5336 48.3775 34.3898 48.3635ZM35.0434 48.4549C35.0592 48.4549 35.0751 48.4549 35.0901 48.462C35.113 48.462 35.1377 48.469 35.1624 48.4769C35.1219 48.4699 35.0848 48.462 35.0442 48.4549H35.0434ZM39.8668 50.9893C38.864 49.9754 37.6584 49.2218 36.3381 48.7873C36.2684 48.7583 36.1979 48.7372 36.1273 48.7152C36.2684 48.7574 36.4086 48.8076 36.5453 48.8559C36.6847 48.9061 36.8205 48.9615 36.9546 49.0177C37.0225 49.0468 37.0886 49.0749 37.1557 49.1101C37.2888 49.1672 37.4203 49.2305 37.549 49.3C37.6796 49.3633 37.8066 49.4337 37.9327 49.504C38.005 49.5462 38.0773 49.5893 38.1496 49.6315C38.2017 49.6658 38.2519 49.6949 38.3031 49.7292C38.4248 49.8065 38.5456 49.8918 38.6629 49.9763C38.7273 50.0185 38.7908 50.0616 38.8517 50.1108C38.9055 50.1521 38.9575 50.1935 39.0113 50.2295C39.1233 50.321 39.2345 50.4116 39.3438 50.5039C39.3959 50.5523 39.4497 50.5953 39.4999 50.6437C39.5564 50.6938 39.6111 50.7431 39.6631 50.7994C39.7151 50.8495 39.7663 50.8979 39.8192 50.948C39.8871 51.0174 39.9559 51.0878 40.0212 51.159C40.1032 51.2417 40.1817 51.334 40.2611 51.4193C40.3087 51.4756 40.3546 51.531 40.4004 51.5873C40.448 51.6444 40.4921 51.7007 40.5371 51.757C40.5618 51.7834 40.5847 51.8133 40.6094 51.8467C40.3819 51.5512 40.1349 51.2637 39.8659 50.9884L39.8668 50.9893ZM40.6747 51.932C40.6738 51.932 40.6721 51.925 40.6694 51.925C40.65 51.8986 40.6288 51.8766 40.6094 51.8476C40.6385 51.8836 40.6694 51.925 40.6985 51.9681C40.6888 51.9531 40.6818 51.9399 40.6738 51.9329L40.6747 51.932ZM40.9208 52.2776C40.9049 52.2574 40.889 52.2354 40.8731 52.2143C40.9305 52.2908 40.9869 52.3761 41.0398 52.4614C41.001 52.3981 40.9622 52.3348 40.9208 52.2776ZM40.6985 51.9681C40.7585 52.0454 40.8167 52.1307 40.8731 52.2152C40.8167 52.1316 40.7585 52.0463 40.6985 51.9681ZM42.3698 56.015C42.3884 56.1337 42.4025 56.2621 42.4148 56.3808C42.4042 56.2621 42.3884 56.1337 42.3698 56.015ZM27.1321 50.8767C25.968 52.0103 25.1566 53.412 24.7491 54.9456C24.7588 54.9105 24.7676 54.8753 24.7782 54.8401C24.7905 54.7979 24.8038 54.7566 24.8161 54.7135C24.832 54.6634 24.8452 54.615 24.8637 54.5649C24.8902 54.4813 24.9202 54.389 24.9519 54.3046C24.9669 54.2624 24.9784 54.2272 24.9943 54.1841C25.0146 54.1278 25.0384 54.0654 25.0639 54.0082C25.0886 53.9388 25.116 53.8754 25.1442 53.8121C25.1671 53.755 25.1918 53.6987 25.2165 53.6433C25.235 53.6072 25.2518 53.5659 25.2712 53.5228C25.2915 53.4806 25.3135 53.4314 25.3382 53.383C25.3665 53.3258 25.3947 53.2695 25.4247 53.2133C25.4573 53.1429 25.4908 53.0796 25.5261 53.0163C25.6319 52.8193 25.7483 52.6285 25.8701 52.4403C25.8992 52.3981 25.9283 52.3541 25.9583 52.3057C26.0579 52.1571 26.1593 52.0164 26.2687 51.8766C26.2978 51.8344 26.3304 51.7931 26.3622 51.7579C26.4513 51.6374 26.543 51.5249 26.64 51.4202C26.6868 51.363 26.7335 51.3147 26.7802 51.2575C26.8288 51.2092 26.879 51.152 26.9275 51.1027C26.9778 51.0526 27.0272 50.9972 27.0801 50.948C27.1251 50.904 27.1701 50.8556 27.2177 50.8134C27.2777 50.7589 27.3359 50.7018 27.3967 50.6446C27.4382 50.6094 27.4823 50.5681 27.5255 50.5329C27.6843 50.3922 27.8483 50.2568 28.0168 50.131C28.0476 50.1117 28.0785 50.0827 28.1102 50.0616C28.1526 50.0334 28.1932 50.0044 28.2346 49.9763C28.2928 49.934 28.3528 49.8927 28.411 49.8496C28.4657 49.8145 28.5168 49.7793 28.5706 49.7441C28.7082 49.6606 28.8485 49.5691 28.9896 49.4917C29.0372 49.4636 29.0848 49.4346 29.1333 49.4143C29.1483 49.4011 29.1651 49.3941 29.1809 49.3862C29.2347 49.3581 29.2921 49.3299 29.3476 49.3009C29.412 49.2657 29.4782 49.2314 29.5443 49.2024C29.6775 49.1391 29.8151 49.0758 29.9527 49.0186C30.0162 48.9905 30.0814 48.9623 30.1449 48.9351C30.2023 48.9148 30.2587 48.8937 30.3152 48.8718C30.3372 48.8647 30.3601 48.8568 30.3822 48.8515C30.4404 48.8313 30.5004 48.8093 30.5603 48.7882C30.6238 48.7662 30.6873 48.746 30.7517 48.7249C30.765 48.7161 30.7764 48.7161 30.7897 48.71C30.8532 48.695 30.9175 48.6748 30.9819 48.6528C31.0542 48.6326 31.1257 48.6176 31.1962 48.5983C31.2641 48.5754 31.3338 48.5622 31.4026 48.5481C29.801 48.914 28.3281 49.7019 27.1304 50.8767H27.1321ZM32.0782 48.4145C32.2273 48.3925 32.3772 48.3784 32.528 48.3573C32.3772 48.3723 32.2273 48.3925 32.0782 48.4145ZM34.3889 48.3644C34.5336 48.3775 34.6756 48.3925 34.8193 48.4145C34.6756 48.3925 34.5327 48.3784 34.3889 48.3644ZM35.0425 48.4558C35.0584 48.4558 35.0742 48.4558 35.0892 48.4628C35.1122 48.4628 35.1369 48.4699 35.1615 48.4778C35.121 48.4708 35.0839 48.4628 35.0434 48.4558H35.0425ZM40.6738 51.9329C40.6729 51.9329 40.6712 51.9258 40.6685 51.9258C40.6491 51.8995 40.628 51.8775 40.6086 51.8485C40.6377 51.8845 40.6685 51.9259 40.6976 51.9689C40.6879 51.954 40.6809 51.9408 40.6729 51.9338L40.6738 51.9329ZM39.8659 50.9902C38.8632 49.9763 37.6575 49.2226 36.3372 48.7882C36.2675 48.7592 36.197 48.7381 36.1264 48.7161C36.2675 48.7583 36.4078 48.8084 36.5445 48.8568C36.6838 48.9069 36.8196 48.9623 36.9537 49.0186C37.0216 49.0476 37.0878 49.0758 37.1548 49.1109C37.288 49.1681 37.4194 49.2314 37.5481 49.3009C37.6787 49.3642 37.8057 49.4346 37.9318 49.5049C38.0041 49.5471 38.0764 49.5902 38.1488 49.6324C38.2008 49.6667 38.2511 49.6957 38.3022 49.73C38.4239 49.8074 38.5448 49.8927 38.6621 49.9771C38.7264 50.0194 38.7899 50.0624 38.8508 50.1117C38.9046 50.153 38.9566 50.1943 39.0104 50.2304C39.1224 50.3219 39.2336 50.4124 39.3429 50.5048C39.395 50.5531 39.4488 50.5962 39.499 50.6446C39.5555 50.6947 39.6102 50.744 39.6622 50.8002C39.7142 50.8504 39.7654 50.8987 39.8183 50.9489C39.8862 51.0183 39.955 51.0887 40.0203 51.1599C40.1023 51.2426 40.1808 51.3349 40.2602 51.4202C40.3078 51.4765 40.3537 51.5319 40.3995 51.5882C40.4472 51.6453 40.4913 51.7016 40.5362 51.7579C40.5609 51.7843 40.5839 51.8142 40.6086 51.8476C40.381 51.5521 40.1341 51.2646 39.8651 50.9893L39.8659 50.9902ZM40.6985 51.9689C40.7585 52.0463 40.8167 52.1316 40.8731 52.216C40.8167 52.1325 40.7585 52.0472 40.6985 51.9689ZM40.9208 52.2785C40.9049 52.2583 40.889 52.2363 40.8731 52.2152C40.9305 52.2917 40.9869 52.377 41.0398 52.4623C41.001 52.399 40.9622 52.3356 40.9208 52.2785ZM42.3698 56.0159C42.3884 56.1346 42.4025 56.263 42.4148 56.3817C42.4042 56.263 42.3884 56.1346 42.3698 56.0159ZM27.1321 50.8776C25.968 52.0112 25.1566 53.4129 24.7491 54.9465C24.742 54.9747 24.7341 55.0028 24.7288 55.0318C24.7447 54.9676 24.7632 54.9043 24.7791 54.841C24.7914 54.7988 24.8046 54.7575 24.817 54.7144C24.8329 54.6642 24.8461 54.6159 24.8646 54.5658C24.8911 54.4822 24.9211 54.3899 24.9528 54.3055C24.9678 54.2632 24.9793 54.2281 24.9952 54.185C25.0154 54.1287 25.0392 54.0663 25.0648 54.0091C25.0895 53.9396 25.1169 53.8763 25.1451 53.813C25.168 53.7558 25.1927 53.6996 25.2174 53.6442C25.2359 53.6081 25.2527 53.5668 25.2721 53.5237C25.2924 53.4815 25.3144 53.4322 25.3391 53.3839C25.3673 53.3267 25.3956 53.2704 25.4255 53.2141C25.4582 53.1438 25.4917 53.0805 25.527 53.0172C25.6328 52.8202 25.7492 52.6294 25.8709 52.4412C25.9 52.399 25.9292 52.355 25.9591 52.3066C26.0588 52.158 26.1602 52.0173 26.2696 51.8775C26.2987 51.8353 26.3313 51.7939 26.3631 51.7588C26.4522 51.6383 26.5439 51.5257 26.6409 51.4211C26.6876 51.3639 26.7344 51.3156 26.7811 51.2584C26.8296 51.21 26.8799 51.1529 26.9284 51.1036C26.9787 51.0535 27.0281 50.9981 27.081 50.9489C27.126 50.9049 27.171 50.8565 27.2186 50.8143C27.2786 50.7598 27.3368 50.7026 27.3976 50.6455C27.4391 50.6103 27.4832 50.569 27.5264 50.5338C27.6851 50.3931 27.8492 50.2577 28.0176 50.1319C28.0485 50.1126 28.0794 50.0835 28.1111 50.0624C28.1535 50.0343 28.194 50.0053 28.2355 49.9771C28.2937 49.9349 28.3537 49.8936 28.4119 49.8505C28.4666 49.8153 28.5177 49.7802 28.5715 49.745C28.7091 49.6614 28.8493 49.57 28.9904 49.4926C29.0381 49.4645 29.0857 49.4354 29.1342 49.4152C29.1492 49.402 29.166 49.395 29.1818 49.3871C29.2356 49.3589 29.293 49.3308 29.3485 49.3018C29.4129 49.2666 29.4791 49.2323 29.5452 49.2033C29.6784 49.14 29.816 49.0767 29.9536 49.0195C30.0171 48.9914 30.0823 48.9632 30.1458 48.9359C30.2031 48.9157 30.2596 48.8946 30.316 48.8726C30.3381 48.8656 30.361 48.8577 30.3831 48.8524C30.4413 48.8322 30.5013 48.8102 30.5612 48.7891C30.6247 48.7671 30.6882 48.7469 30.7526 48.7258C30.7658 48.717 30.7773 48.717 30.7905 48.7108C30.854 48.6959 30.9184 48.6757 30.9828 48.6537C31.0551 48.6334 31.1266 48.6185 31.1971 48.5991C31.265 48.5763 31.3347 48.5631 31.4035 48.549C29.8019 48.9148 28.329 49.7028 27.1313 50.8776H27.1321ZM32.0782 48.4154C32.2273 48.3934 32.3772 48.3793 32.528 48.3582C32.3772 48.3731 32.2273 48.3934 32.0782 48.4154ZM34.3889 48.3652C34.5336 48.3784 34.6756 48.3934 34.8193 48.4154C34.6756 48.3934 34.5327 48.3793 34.3889 48.3652ZM35.0425 48.4567C35.0584 48.4567 35.0742 48.4567 35.0892 48.4637C35.1122 48.4637 35.1369 48.4708 35.1615 48.4787C35.121 48.4716 35.0839 48.4637 35.0434 48.4567H35.0425ZM39.8659 50.9911C38.8632 49.9771 37.6575 49.2235 36.3372 48.7891C36.4051 48.8093 36.4766 48.8375 36.5445 48.8586C36.6838 48.9087 36.8196 48.9641 36.9537 49.0204C37.0216 49.0494 37.0878 49.0775 37.1548 49.1127C37.288 49.1699 37.4194 49.2332 37.5481 49.3027C37.6787 49.366 37.8057 49.4363 37.9318 49.5067C38.0041 49.5489 38.0764 49.592 38.1488 49.6342C38.2008 49.6685 38.2511 49.6975 38.3022 49.7318C38.4239 49.8092 38.5448 49.8945 38.6621 49.9789C38.7264 50.0211 38.7899 50.0642 38.8508 50.1134C38.9046 50.1548 38.9566 50.1961 39.0104 50.2322C39.1224 50.3236 39.2336 50.4142 39.3429 50.5065C39.395 50.5549 39.4488 50.598 39.499 50.6463C39.5555 50.6965 39.6102 50.7457 39.6622 50.802C39.7142 50.8521 39.7654 50.9005 39.8183 50.9506C39.8862 51.0201 39.955 51.0904 40.0203 51.1617C40.1023 51.2443 40.1808 51.3367 40.2602 51.422C40.3078 51.4782 40.3537 51.5336 40.3995 51.5899C40.4472 51.6471 40.4913 51.7034 40.5362 51.7596C40.5609 51.786 40.5839 51.8159 40.6086 51.8493C40.381 51.5539 40.1341 51.2663 39.8651 50.9911H39.8659ZM40.6738 51.9338C40.6729 51.9338 40.6712 51.9267 40.6685 51.9267C40.6491 51.9003 40.628 51.8784 40.6086 51.8493C40.6377 51.8854 40.6685 51.9267 40.6976 51.9698C40.6879 51.9549 40.6809 51.9417 40.6729 51.9346L40.6738 51.9338ZM40.9199 52.2794C40.904 52.2591 40.8881 52.2372 40.8723 52.216C40.9296 52.2926 40.986 52.3779 41.039 52.4632C41.0001 52.3998 40.9613 52.3365 40.9199 52.2794ZM40.6976 51.9698C40.7576 52.0472 40.8158 52.1325 40.8723 52.2169C40.8158 52.1334 40.7576 52.0481 40.6976 51.9698Z" fill="#1F1A1A"/>
<path fill-rule="evenodd" clip-rule="evenodd" d="M107.194 43.8118H93.4153C92.3719 43.8118 91.4026 43.3475 90.7579 42.5235L83.0398 32.7316C82.0723 31.5075 80.6577 30.7627 79.1125 30.6554V15.1149H92.5157C94.1226 15.1149 95.6457 15.8061 96.6979 17.0162C98.7026 19.3245 101.58 23.3785 103.892 29.579C105.522 33.9372 106.623 38.7 107.194 43.8118ZM26.4186 15.1149V30.6413H16.9975C15.918 30.6413 14.9708 29.8745 14.7459 28.8192L11.8416 15.1149H26.4186ZM28.5362 30.6413H43.2792V15.1149H28.5362V30.6413ZM45.395 30.6413H60.1379V15.1149H45.395V30.6413ZM62.2555 30.6413H76.9975V15.1149H62.2555V30.6413Z" fill="url(#paint2_radial_57_218)"/>
<path d="M108.367 43.81V45.9214H93.4144C91.7175 45.9214 90.1414 45.1617 89.0936 43.832L81.3729 34.041C80.7291 33.2179 79.7616 32.7527 78.7173 32.7527H16.9975C14.9214 32.7527 13.1028 31.2806 12.675 29.2545L9.6781 15.114L9.49994 14.2769L11.5717 13.8407L11.8424 15.114L14.7459 28.8183C14.9699 29.8736 15.9171 30.6413 16.9975 30.6413H78.7173C78.8505 30.6413 78.9828 30.6413 79.1125 30.6562C80.6577 30.7609 82.0706 31.5066 83.0398 32.7307L90.7579 42.5226C91.4035 43.3457 92.3719 43.81 93.4153 43.81H108.368H108.367Z" fill="#1F1A1A"/>
<path d="M26.4186 31.6965H28.537V14.0588H26.4186V31.6965Z" fill="#1F1A1A"/>
<path d="M43.2773 31.6965H45.3957V14.0588H43.2773V31.6965Z" fill="#1F1A1A"/>
<path d="M60.1362 31.6965H62.2546V14.0588H60.1362V31.6965Z" fill="#1F1A1A"/>
<path d="M76.9949 31.6965H79.1133V14.0588H76.9949V31.6965Z" fill="#1F1A1A"/>
<rect x="55.4781" y="38.4896" width="10.8004" height="20.8197" fill="url(#paint3_radial_57_218)"/>
<path d="M56.4407 58.2108V40.2908H65.2851V58.2108H56.4407ZM54.3223 38.1794V60.3231H67.4027V38.1794H54.3223Z" fill="#1F1A1A"/>
<path d="M112 33.1836H109.881V25.8487C109.881 24.3062 108.621 23.0469 107.072 23.0469H101.498V20.9355H107.072C109.789 20.9355 112 23.1375 112 25.8478V33.1827V33.1836Z" fill="#1F1A1A"/>
<path d="M9.01129 40.5018C9.01129 39.6295 9.72215 38.918 10.5997 38.918C11.4764 38.918 12.1881 39.6286 12.1881 40.5018C12.1881 41.3741 11.4764 42.0864 10.5997 42.0864C9.72215 42.0864 9.01129 41.3741 9.01129 40.5018ZM14.3048 40.5018C14.3048 39.6295 15.0157 38.918 15.8933 38.918C16.7708 38.918 17.4817 39.6286 17.4817 40.5018C17.4817 41.3741 16.7708 42.0864 15.8933 42.0864C15.0157 42.0864 14.3048 41.3741 14.3048 40.5018ZM19.6001 40.5018C19.6001 39.6295 20.3092 38.918 21.1868 38.918C22.0644 38.918 22.7752 39.6286 22.7752 40.5018C22.7752 41.3741 22.0644 42.0864 21.1868 42.0864C20.3092 42.0864 19.6001 41.3741 19.6001 40.5018ZM24.8937 40.5018C24.8937 39.6295 25.6046 38.918 26.4821 38.918C27.3597 38.918 28.0705 39.6286 28.0705 40.5018C28.0705 41.3741 27.3597 42.0864 26.4821 42.0864C25.6046 42.0864 24.8937 41.3741 24.8937 40.5018ZM30.1872 40.5018C30.1872 39.6295 30.899 38.918 31.7757 38.918C32.6532 38.918 33.3641 39.6286 33.3641 40.5018C33.3641 41.3741 32.6532 42.0864 31.7757 42.0864C30.899 42.0864 30.1872 41.3741 30.1872 40.5018ZM35.4826 40.5018C35.4826 39.6295 36.1934 38.918 37.071 38.918C37.9485 38.918 38.6594 39.6286 38.6594 40.5018C38.6594 41.3741 37.9485 42.0864 37.071 42.0864C36.1934 42.0864 35.4826 41.3741 35.4826 40.5018ZM40.7761 40.5018C40.7761 39.6295 41.487 38.918 42.3645 38.918C43.2421 38.918 43.9529 39.6286 43.9529 40.5018C43.9529 41.3741 43.2421 42.0864 42.3645 42.0864C41.487 42.0864 40.7761 41.3741 40.7761 40.5018ZM46.0714 40.5018C46.0714 39.6295 46.7823 38.918 47.6581 38.918C48.5356 38.918 49.2474 39.6286 49.2474 40.5018C49.2474 41.3741 48.5356 42.0864 47.6581 42.0864C46.7814 42.0864 46.0714 41.3741 46.0714 40.5018Z" fill="#1F1A1A"/>
<defs>
<radialGradient id="paint0_radial_57_218" cx="0" cy="0" r="1" gradientUnits="userSpaceOnUse" gradientTransform="translate(100.667 63.2052) rotate(-151.385) scale(28.246 32.9396)">
<stop stop-color="#4CB752"/>
<stop offset="1" stop-color="#B0D353"/>
</radialGradient>
<radialGradient id="paint1_radial_57_218" cx="0" cy="0" r="1" gradientUnits="userSpaceOnUse" gradientTransform="translate(45.2254 63.2052) rotate(-151.385) scale(28.246 32.9396)">
<stop stop-color="#4CB752"/>
<stop offset="1" stop-color="#B0D353"/>
</radialGradient>
<radialGradient id="paint2_radial_57_218" cx="0" cy="0" r="1" gradientUnits="userSpaceOnUse" gradientTransform="translate(116.68 43.8741) rotate(-167.272) scale(114.047 49.74)">
<stop stop-color="#4CB752"/>
<stop offset="0.937339" stop-color="#B0D353"/>
</radialGradient>
<radialGradient id="paint3_radial_57_218" cx="0" cy="0" r="1" gradientUnits="userSpaceOnUse" gradientTransform="translate(69.2411 57.2537) rotate(-133.473) scale(25.7426 35.6512)">
<stop stop-color="#4CB752"/>
<stop offset="1" stop-color="#B0D353"/>
</radialGradient>
</defs>
</svg>
