<svg width="116" height="80" viewBox="0 0 116 80" fill="none" xmlns="http://www.w3.org/2000/svg">
<path fill-rule="evenodd" clip-rule="evenodd" d="M28.7022 63.1393C33.9859 63.1393 38.2692 58.8855 38.2692 53.6383C38.2692 48.3911 33.9859 44.1374 28.7022 44.1374C23.4184 44.1374 19.1351 48.3911 19.1351 53.6383C19.1351 58.8855 23.4184 63.1393 28.7022 63.1393ZM28.7022 57.658C30.9376 57.658 32.7497 55.8583 32.7497 53.6383C32.7497 51.4183 30.9376 49.6187 28.7022 49.6187C26.4667 49.6187 24.6546 51.4183 24.6546 53.6383C24.6546 55.8583 26.4667 57.658 28.7022 57.658Z" fill="url(#paint0_radial_57_192)"/>
<path d="M28.6463 57.1622C26.6747 57.1622 25.062 55.5607 25.062 53.5917C25.062 51.6337 26.6747 50.0322 28.6463 50.0322C30.629 50.0322 32.2416 51.6337 32.2416 53.5917C32.2416 55.5607 30.629 57.1622 28.6463 57.1622ZM28.6463 47.7725C25.421 47.7725 22.7866 50.3887 22.7866 53.5917C22.7866 56.8057 25.421 59.4219 28.6463 59.4219C31.8771 59.4219 34.517 56.8057 34.517 53.5917C34.517 50.3887 31.8826 47.7725 28.6463 47.7725Z" fill="#1F1A1A"/>
<path d="M94.7428 56.8549C92.7601 56.8549 91.1475 55.2644 91.1475 53.2954C91.1475 51.3264 92.7601 49.7359 94.7428 49.7359C96.7255 49.7359 98.3271 51.3264 98.3271 53.2954C98.3271 55.2644 96.7255 56.8549 94.7428 56.8549ZM94.7428 47.4762C91.5064 47.4762 88.8721 50.0814 88.8721 53.2954C88.8721 56.5094 91.5064 59.1255 94.7428 59.1255C97.9736 59.1255 100.602 56.5094 100.602 53.2954C100.602 50.0869 97.9791 47.4762 94.7428 47.4762Z" fill="#1F1A1A"/>
<path fill-rule="evenodd" clip-rule="evenodd" d="M94.7429 59.1202C91.5066 59.1202 88.8722 56.504 88.8722 53.29C88.8722 50.0815 91.5066 47.4709 94.7429 47.4709C97.9737 47.4709 100.603 50.0761 100.603 53.29C100.603 56.504 97.9793 59.1202 94.7429 59.1202ZM103.657 53.0652C103.657 52.9939 103.657 52.9226 103.646 52.8513C103.646 52.78 103.635 52.7087 103.635 52.6374C103.635 52.5935 103.635 52.5661 103.624 52.5222C103.624 52.4838 103.612 52.429 103.612 52.3906C103.601 52.3412 103.601 52.2864 103.601 52.248C103.59 52.2041 103.579 52.1657 103.579 52.1273C103.568 52.1163 103.568 52.1054 103.568 52.0944C103.568 52.045 103.557 51.9902 103.546 51.9518C103.535 51.8805 103.524 51.7982 103.508 51.7269C103.485 51.5843 103.458 51.4362 103.425 51.2936C103.403 51.2223 103.392 51.151 103.375 51.0797C102.569 47.97 100.1 45.5183 96.9686 44.7176C96.9686 44.7176 96.9576 44.7176 96.9465 44.7176C96.8858 44.6956 96.814 44.6737 96.7422 44.6682C96.6814 44.6463 96.6096 44.6353 96.5323 44.6189C96.4605 44.6079 96.3777 44.5859 96.3169 44.575C96.2341 44.564 96.1623 44.553 96.0905 44.5421C96.0187 44.5311 95.9469 44.5092 95.864 44.5092C95.8033 44.4982 95.7205 44.4872 95.6487 44.4763C95.5989 44.4763 95.5327 44.4653 95.483 44.4653C95.4719 44.4653 95.4609 44.4543 95.4498 44.4543C95.4277 44.4543 95.4001 44.4543 95.367 44.4543C95.3173 44.4433 95.251 44.4433 95.2013 44.4433C95.1792 44.4433 95.1792 44.4433 95.1682 44.4433C95.0246 44.4324 94.881 44.4324 94.7374 44.4324C89.8166 44.4324 85.8181 48.4032 85.8181 53.2846C85.8181 53.3559 85.8181 53.4381 85.8181 53.5094C85.8181 53.5698 85.8292 53.6411 85.8292 53.7014C85.8292 53.7617 85.8292 53.8221 85.8292 53.8879C85.8402 53.9317 85.8402 53.9701 85.8402 54.0031C85.8513 54.0634 85.8513 54.1237 85.8623 54.1786C85.8623 54.2389 85.8733 54.2937 85.8844 54.3431C85.8844 54.3815 85.8844 54.4144 85.8954 54.4473C85.8954 54.4583 85.8954 54.4692 85.8954 54.4802C86.4864 58.8131 90.2253 62.1477 94.7374 62.1477C99.6527 62.1477 103.651 58.1769 103.651 53.29C103.651 53.2187 103.651 53.1365 103.651 53.0652H103.657Z" fill="url(#paint1_radial_57_192)"/>
<path d="M28.6464 62.4549C24.0404 62.4549 20.2352 58.9557 19.7713 54.4912C19.7713 54.4199 19.7602 54.3486 19.7492 54.2773C19.7492 54.2169 19.7381 54.1566 19.7381 54.0908C19.7381 54.0469 19.7381 54.0085 19.7381 53.9756C19.7381 53.9263 19.7381 53.8714 19.7381 53.8221C19.7271 53.7398 19.7271 53.6685 19.7271 53.5862C19.7271 48.7049 23.7256 44.734 28.6408 44.734C33.5561 44.734 37.5656 48.7049 37.5656 53.5862C37.5656 53.6575 37.5656 53.7178 37.5656 53.7837C37.5656 53.8166 37.5656 53.844 37.5656 53.8659C37.5546 54.0195 37.5435 54.1621 37.5325 54.3047C37.5325 54.387 37.5215 54.4692 37.5104 54.5405L37.4994 54.5899C37.0023 59.005 33.2082 62.4494 28.6353 62.4494L28.6464 62.4549ZM39.8465 53.5368C39.8465 53.4875 39.8465 53.4326 39.8465 53.3833V53.3613C39.8465 53.3284 39.8465 53.29 39.8465 53.2462C39.8355 53.1968 39.8355 53.1529 39.8355 53.1036C39.8355 53.0597 39.8244 53.0103 39.8244 52.9719C39.8244 52.961 39.8244 52.95 39.8244 52.95C39.8244 52.9006 39.8134 52.8458 39.8134 52.7964C39.8134 52.7635 39.8134 52.7251 39.8024 52.6812C39.8024 52.6812 39.8024 52.6703 39.8024 52.6593C39.7913 52.577 39.7803 52.4948 39.7803 52.4125C39.7803 52.4015 39.7803 52.3796 39.7803 52.3686C39.7692 52.3302 39.7582 52.2864 39.7582 52.248C39.7582 52.1986 39.7471 52.1547 39.7361 52.1163C39.725 52.0231 39.714 51.9408 39.6919 51.8476C39.6919 51.8366 39.6919 51.8366 39.6919 51.8256C39.6919 51.7818 39.6809 51.7434 39.6698 51.705C39.6698 51.6611 39.6588 51.6227 39.6477 51.5843C39.6477 51.5624 39.6367 51.5514 39.6367 51.535C39.6256 51.4637 39.6035 51.3814 39.5925 51.3101C39.5925 51.2991 39.5925 51.2991 39.5925 51.2991C39.5704 51.2388 39.5704 51.1839 39.5538 51.1346C39.5538 51.1236 39.5538 51.1236 39.5538 51.1236C39.5428 51.0907 39.5428 51.0633 39.5317 51.0413C39.5097 50.9262 39.482 50.8274 39.4489 50.7123C39.4268 50.641 39.4102 50.5697 39.3992 50.5093C39.3661 50.4161 39.3495 50.3338 39.3164 50.2406C39.2832 50.1583 39.2666 50.0761 39.2335 49.9828C39.1893 49.8896 39.1507 49.7908 39.1175 49.6866C39.0844 49.6153 39.0678 49.555 39.0347 49.4837C38.9739 49.3411 38.9187 49.1985 38.858 49.0559C38.8359 49.012 38.8083 48.9627 38.7862 48.9243C38.7641 48.8639 38.7365 48.8036 38.7033 48.7488C38.6591 48.6665 38.6315 48.5842 38.5818 48.502C38.5487 48.4307 38.51 48.3594 38.4658 48.2881C38.4327 48.2168 38.383 48.1455 38.3443 48.0632C38.3057 48.0029 38.2726 47.9425 38.2284 47.8767C38.1842 47.8164 38.1566 47.7561 38.1124 47.6902C38.0903 47.6464 38.0627 47.597 38.0295 47.5586C37.9854 47.4983 37.9467 47.4434 37.9136 47.3831C37.8639 47.3228 37.8307 47.2624 37.781 47.1966C37.7589 47.1637 37.7368 47.1363 37.7092 47.0924C37.6706 47.0321 37.6264 46.9772 37.5877 46.9169C37.538 46.8675 37.4938 46.8017 37.4552 46.7524C37.4441 46.7414 37.4441 46.7304 37.4331 46.7304C37.3889 46.6701 37.3502 46.6153 37.3005 46.5659C37.3005 46.544 37.2785 46.533 37.2674 46.5275C37.2564 46.5056 37.2453 46.4946 37.2287 46.4781C37.1956 46.4397 37.168 46.3959 37.1349 46.3575C37.1017 46.3246 37.0741 46.2971 37.041 46.2642C37.0078 46.2313 36.9913 46.2039 36.9581 46.171C36.9581 46.16 36.9471 46.16 36.9471 46.1491C36.936 46.1491 36.925 46.1381 36.925 46.1271C36.9139 46.1161 36.9029 46.1052 36.8919 46.0942C36.8422 46.0339 36.7869 45.979 36.7262 45.9187C36.6654 45.8584 36.6102 45.798 36.5384 45.7322C36.4776 45.6609 36.4169 45.6006 36.3506 45.5403C36.2788 45.4799 36.2181 45.4251 36.1518 45.3648C36.08 45.3044 36.0082 45.2441 35.9475 45.1783C35.8757 45.1289 35.8149 45.0631 35.7431 45.0137C35.6713 44.9534 35.6106 44.8986 35.5388 44.8382C35.478 44.7944 35.4228 44.756 35.3621 44.7176C35.34 44.6956 35.3179 44.6737 35.3013 44.6682C35.2405 44.6188 35.1688 44.564 35.108 44.5256L35.097 44.5146C34.9644 44.4214 34.8374 44.3391 34.7159 44.2569C34.6938 44.2459 34.6827 44.2349 34.6827 44.2349C34.506 44.1307 34.3514 44.032 34.1857 43.9388C34.1139 43.8949 34.0421 43.8565 33.9703 43.8181C33.8985 43.7797 33.8267 43.7468 33.7549 43.7029C33.661 43.6536 33.5671 43.6097 33.4677 43.5603C33.3959 43.5274 33.3241 43.489 33.2413 43.4561C33.1806 43.4232 33.1088 43.3958 33.048 43.3629C33.0038 43.3519 32.9652 43.33 32.9265 43.3135C32.8768 43.2916 32.8216 43.2696 32.7719 43.2532C32.7332 43.2422 32.7001 43.2203 32.6559 43.2148C32.5951 43.1928 32.5399 43.1709 32.4902 43.1545C32.4184 43.1215 32.3466 43.1051 32.2748 43.0722C32.2251 43.0612 32.1809 43.0393 32.1312 43.0338C32.1202 43.0228 32.0981 43.0228 32.087 43.0118C32.0373 43.0009 31.9821 42.9789 31.9435 42.968C31.8937 42.946 31.8385 42.9351 31.7778 42.9186C31.717 42.8967 31.6563 42.8857 31.59 42.8692C31.5789 42.8692 31.5679 42.8692 31.5569 42.8583C31.5127 42.8473 31.474 42.8363 31.4354 42.8254C31.3415 42.8034 31.2476 42.7815 31.1647 42.765C30.988 42.7212 30.8002 42.6828 30.618 42.6499C30.5241 42.6279 30.4302 42.6224 30.3418 42.6005C30.259 42.5895 30.1762 42.5786 30.1044 42.5676C30.0547 42.5566 30.0105 42.5566 29.9718 42.5457C29.9221 42.5457 29.889 42.5347 29.8503 42.5347C29.8117 42.5347 29.7785 42.5237 29.7343 42.5237C29.6736 42.5127 29.6018 42.5127 29.541 42.5018C29.519 42.5018 29.4969 42.5018 29.4803 42.5018C29.4085 42.4908 29.3477 42.4908 29.276 42.4908C29.2428 42.4798 29.2152 42.4798 29.1821 42.4798C29.1103 42.4798 29.0385 42.4798 28.9777 42.4689C28.9556 42.4689 28.9446 42.4689 28.928 42.4689C28.8452 42.4689 28.7513 42.4689 28.6519 42.4689C28.558 42.4689 28.4641 42.4689 28.3702 42.4689C28.3592 42.4689 28.3481 42.4689 28.326 42.4689C28.2653 42.4798 28.1935 42.4798 28.1217 42.4798C28.0941 42.4798 28.0609 42.4798 28.0168 42.4908C27.956 42.4908 27.8842 42.4908 27.8179 42.5018C27.7848 42.5018 27.7793 42.5018 27.7572 42.5018C27.6964 42.5127 27.6246 42.5127 27.5584 42.5237C27.5142 42.5237 27.4866 42.5347 27.4424 42.5347C27.3982 42.5347 27.3595 42.5457 27.3209 42.5457C27.2767 42.5566 27.238 42.5566 27.1883 42.5676C27.1055 42.5786 27.0227 42.5895 26.9509 42.6005C26.8459 42.6224 26.7631 42.6334 26.6747 42.6499C26.4869 42.6828 26.3102 42.7212 26.128 42.765C26.0341 42.787 25.9402 42.8034 25.8574 42.8254C25.8187 42.8363 25.7745 42.8473 25.7248 42.8583C25.7138 42.8692 25.7138 42.8692 25.7027 42.8692C25.642 42.8912 25.5702 42.9022 25.5149 42.9186C25.4542 42.9405 25.399 42.946 25.3493 42.968C25.2996 42.9789 25.2554 43.0009 25.2057 43.0118C25.1946 43.0228 25.1725 43.0228 25.1615 43.0338C25.1118 43.0448 25.0566 43.0667 25.0179 43.0722C24.9461 43.1051 24.8743 43.1215 24.8025 43.1545C24.7528 43.1764 24.6865 43.1928 24.6368 43.2148C24.6037 43.2258 24.565 43.2477 24.5208 43.2532C24.4711 43.2751 24.4159 43.2971 24.3662 43.3135C24.3165 43.3354 24.2834 43.3574 24.2447 43.3629C24.1729 43.3958 24.1232 43.4232 24.0514 43.4561C23.9796 43.489 23.8968 43.5274 23.8139 43.5603C23.72 43.6097 23.6262 43.6536 23.5267 43.7029C23.466 43.7468 23.3942 43.7742 23.3279 43.8181C23.2451 43.862 23.1733 43.9004 23.1015 43.9388C22.9358 44.032 22.7701 44.1307 22.6155 44.2349C22.5934 44.2349 22.5823 44.2459 22.5823 44.2569C22.4498 44.3391 22.3228 44.4214 22.1902 44.5146L22.1792 44.5256C22.1184 44.5695 22.0577 44.6079 21.9914 44.6572C21.9583 44.6792 21.9417 44.6956 21.9086 44.7176C21.8975 44.7176 21.8975 44.7285 21.8754 44.7395C21.8368 44.7724 21.7815 44.8108 21.7429 44.8437C21.6711 44.904 21.5993 44.9589 21.5275 45.0192C21.4667 45.0686 21.395 45.1344 21.3342 45.1838C21.2624 45.2441 21.1906 45.3044 21.1409 45.3702C21.0691 45.4306 20.9973 45.4854 20.9421 45.5457C20.8703 45.6061 20.8095 45.6664 20.7377 45.7377C20.688 45.798 20.6218 45.8584 20.561 45.9242C20.5003 45.9845 20.4395 46.0448 20.3843 46.1107C20.3732 46.1216 20.3622 46.1326 20.3511 46.1436C20.318 46.1765 20.2904 46.2039 20.2683 46.2368C20.2241 46.2752 20.1965 46.3191 20.1634 46.352C20.1634 46.363 20.1523 46.3739 20.1413 46.3739C20.1413 46.3849 20.1413 46.3849 20.1413 46.3849C20.1413 46.3849 20.1413 46.3849 20.1413 46.3959C20.1302 46.3959 20.1302 46.4068 20.1192 46.4068C20.1081 46.4288 20.0805 46.4507 20.0695 46.4672V46.4781C20.0584 46.4781 20.0584 46.4891 20.0474 46.4891C20.0474 46.5001 20.0474 46.5001 20.0363 46.511C20.0253 46.522 20.0253 46.533 20.0143 46.544C19.9922 46.5659 19.9701 46.5823 19.9646 46.6043C19.9535 46.6153 19.9425 46.6152 19.9314 46.6262C19.9093 46.6701 19.8817 46.6975 19.8486 46.7304C19.8486 46.7414 19.8486 46.7524 19.8375 46.7524C19.7878 46.8237 19.7326 46.895 19.6829 46.9663C19.6221 47.0266 19.5669 47.1089 19.5172 47.1802C19.4675 47.2515 19.4123 47.3228 19.3626 47.3941C19.3184 47.4544 19.2797 47.5257 19.2411 47.586C19.23 47.608 19.219 47.6189 19.2079 47.6299C19.1637 47.7012 19.114 47.7725 19.0754 47.8438C19.0257 47.9151 18.9815 47.9974 18.9428 48.0687C18.849 48.2332 18.7661 48.3868 18.6833 48.5513C18.6336 48.6226 18.6004 48.7049 18.5618 48.7872C18.5176 48.8694 18.49 48.9517 18.4458 49.034C18.4016 49.1162 18.374 49.1875 18.3409 49.2698C18.3298 49.2917 18.3188 49.3082 18.3077 49.3301C18.2856 49.3905 18.258 49.4618 18.2249 49.5386C18.1917 49.6208 18.1641 49.7031 18.131 49.7854C18.0979 49.8676 18.0702 49.9499 18.0371 50.0431C18.0261 50.0541 18.0261 50.0761 18.0261 50.0815C17.9929 50.1528 17.9764 50.2241 17.9543 50.3064C17.9322 50.3667 17.9101 50.438 17.8825 50.5093C17.8825 50.5477 17.8714 50.5806 17.8493 50.6135C17.8383 50.6848 17.8162 50.7561 17.7996 50.8274C17.7775 50.9097 17.7554 51.003 17.7389 51.0962C17.7389 51.0962 17.7389 51.1072 17.7278 51.1181C17.7168 51.2004 17.6892 51.2827 17.6781 51.3649C17.656 51.4582 17.6339 51.5514 17.6284 51.6447C17.6063 51.7379 17.5953 51.8311 17.5787 51.9189C17.5677 52.0012 17.5566 52.0725 17.5456 52.1547C17.5456 52.1986 17.5345 52.237 17.5345 52.2699C17.5235 52.3412 17.5124 52.4015 17.5124 52.4728C17.4903 52.5661 17.4903 52.6593 17.4793 52.7471C17.4683 52.8403 17.4683 52.9335 17.4572 53.0377C17.4572 53.131 17.4572 53.2242 17.4572 53.301C17.4572 53.3339 17.4462 53.3504 17.4462 53.3833C17.4462 53.4546 17.4462 53.5259 17.4462 53.5972C17.4462 54.3595 17.518 55.0945 17.6616 55.802C18.6943 60.8808 23.2285 64.72 28.6353 64.72C34.0587 64.72 38.5818 60.8808 39.6091 55.802C39.7527 55.0945 39.8355 54.3541 39.8355 53.5972C39.8355 53.5752 39.8355 53.5698 39.8355 53.5478L39.8465 53.5368Z" fill="#1F1A1A"/>
<path d="M94.7428 62.1476C90.2252 62.1476 86.4863 58.813 85.9009 54.4801C85.9009 54.4691 85.9009 54.4582 85.9009 54.4472C85.8898 54.4143 85.8898 54.3869 85.8898 54.343C85.8788 54.2936 85.8677 54.2388 85.8677 54.1785C85.8567 54.1291 85.8567 54.0633 85.8456 54.003C85.8456 53.9701 85.8456 53.9317 85.8346 53.8878C85.8346 53.8274 85.8346 53.7671 85.8346 53.7013C85.8346 53.641 85.8235 53.5697 85.8235 53.5093C85.8235 53.438 85.8235 53.3558 85.8235 53.2845C85.8235 48.4032 89.822 44.4323 94.7428 44.4323C94.8864 44.4323 95.03 44.4323 95.1736 44.4433C95.1846 44.4433 95.1846 44.4433 95.2067 44.4433C95.2564 44.4433 95.3227 44.4433 95.3724 44.4542C95.4 44.4542 95.4332 44.4542 95.4553 44.4542C95.4663 44.4542 95.4774 44.4652 95.4884 44.4652C95.5381 44.4652 95.6044 44.4762 95.6541 44.4762C95.7259 44.4871 95.8087 44.4981 95.8695 44.5091C95.9523 44.5091 96.0241 44.531 96.0959 44.542C96.1677 44.5529 96.2395 44.5639 96.3223 44.5749C96.3831 44.5859 96.4659 44.6078 96.5377 44.6188C96.6095 44.6407 96.6813 44.6462 96.7476 44.6681C96.8194 44.6791 96.8912 44.701 96.9519 44.7175C96.963 44.7175 96.974 44.7175 96.974 44.7175C100.105 45.5182 102.574 47.9699 103.38 51.0797C103.403 51.151 103.414 51.2223 103.43 51.2936C103.463 51.4362 103.491 51.5788 103.513 51.7268C103.535 51.7981 103.546 51.8804 103.552 51.9517C103.563 51.9901 103.574 52.0449 103.574 52.0943C103.574 52.1053 103.574 52.1162 103.585 52.1272C103.585 52.1711 103.596 52.2095 103.607 52.2479C103.607 52.2863 103.607 52.3411 103.618 52.3905C103.618 52.4344 103.629 52.4837 103.629 52.5221C103.64 52.566 103.64 52.5934 103.64 52.6373C103.64 52.7086 103.651 52.7799 103.651 52.8512C103.662 52.9225 103.662 52.9938 103.662 53.0651C103.662 53.1364 103.662 53.2187 103.662 53.29C103.662 58.1768 99.6636 62.1476 94.7483 62.1476H94.7428ZM105.766 51.321C105.733 51.2387 105.722 51.1455 105.706 51.0522C105.683 50.959 105.672 50.8657 105.656 50.7835C105.623 50.7012 105.612 50.6189 105.595 50.5367C105.573 50.4434 105.545 50.3612 105.523 50.2789C105.512 50.235 105.501 50.2076 105.485 50.1637C105.474 50.0924 105.451 50.0321 105.435 49.9608C105.413 49.9114 105.402 49.8566 105.385 49.8072C105.374 49.7633 105.352 49.7249 105.352 49.692C105.319 49.6098 105.291 49.5385 105.258 49.4672C105.236 49.3959 105.208 49.3246 105.175 49.2533C105.153 49.1929 105.137 49.1326 105.104 49.0668C105.093 49.0174 105.059 48.9626 105.043 48.9242C104.982 48.7816 104.921 48.6445 104.855 48.5019L104.794 48.3812C104.783 48.3593 104.783 48.3483 104.772 48.3319C104.739 48.2825 104.722 48.2276 104.689 48.1783C104.584 47.9918 104.491 47.8108 104.38 47.6243C104.347 47.564 104.308 47.5092 104.275 47.4598C104.192 47.3282 104.109 47.191 104.027 47.0704C103.982 47.0101 103.933 46.9388 103.894 46.8784C103.728 46.6536 103.552 46.4287 103.38 46.2093C103.32 46.149 103.264 46.0886 103.215 46.0173C103.082 45.8747 102.944 45.7212 102.812 45.5786C102.773 45.5457 102.74 45.5182 102.707 45.4853C102.674 45.4524 102.646 45.425 102.613 45.3921C102.497 45.2714 102.364 45.1563 102.248 45.0411C102.188 44.9917 102.132 44.9478 102.083 44.8985C102.072 44.8985 102.06 44.8875 102.049 44.8765C102 44.8272 101.933 44.7723 101.873 44.7339C101.873 44.723 101.851 44.712 101.84 44.701C101.779 44.6517 101.707 44.5968 101.641 44.5475C101.591 44.5036 101.525 44.4652 101.475 44.4268C101.442 44.3939 101.403 44.3665 101.354 44.3336C101.354 44.3226 101.343 44.3226 101.331 44.3116C101.282 44.2677 101.227 44.2403 101.188 44.1964C101.072 44.1251 100.961 44.0429 100.834 43.9716C100.785 43.9277 100.718 43.9003 100.669 43.8564C100.608 43.8235 100.547 43.7851 100.481 43.7522C100.365 43.6809 100.244 43.6096 100.128 43.5493C100.078 43.5163 100.034 43.4999 99.995 43.478C99.9342 43.445 99.8735 43.4176 99.8183 43.3847C99.7796 43.3628 99.7244 43.3408 99.6968 43.3244C99.5918 43.275 99.4924 43.2202 99.3875 43.1708C99.3378 43.1489 99.2936 43.1269 99.2549 43.1215C99.1942 43.0885 99.1334 43.0611 99.0672 43.0392C98.9954 43.0118 98.9236 42.9789 98.8518 42.9569C98.7689 42.9185 98.6971 42.8856 98.6143 42.8637C98.5701 42.8417 98.5425 42.8308 98.5094 42.8253C98.4597 42.8033 98.3934 42.7814 98.3437 42.765C98.3326 42.765 98.3105 42.754 98.2829 42.754C98.2387 42.732 98.189 42.7101 98.1393 42.7046C97.9626 42.6443 97.7859 42.5894 97.6036 42.5511C97.5815 42.5401 97.5594 42.5291 97.5318 42.5291C97.5208 42.5181 97.4987 42.5181 97.4876 42.5181C97.4158 42.4962 97.3441 42.4798 97.2723 42.4688C97.1784 42.4359 97.0845 42.4194 96.9906 42.4085C96.8967 42.3865 96.8028 42.3646 96.72 42.3591C96.6261 42.3372 96.5322 42.3152 96.4328 42.3097C96.361 42.2988 96.2892 42.2878 96.2064 42.2768C96.1953 42.2768 96.1843 42.2768 96.1843 42.2768C96.1732 42.2659 96.1622 42.2659 96.1511 42.2659C96.0572 42.2549 95.9744 42.2439 95.875 42.2329C95.7811 42.222 95.6983 42.211 95.5933 42.211C95.5215 42.2 95.4497 42.2 95.3779 42.1891C95.3558 42.1891 95.3172 42.1891 95.2841 42.1891C95.2123 42.1781 95.1294 42.1781 95.0687 42.1781C95.0355 42.1781 95.019 42.1781 94.9858 42.1781C94.903 42.1781 94.8201 42.1781 94.7373 42.1781C88.5573 42.1781 83.5482 47.1636 83.5482 53.29C83.5482 53.3338 83.5482 53.3722 83.5482 53.4106C83.5482 54.2333 83.6531 55.0231 83.8243 55.7909C84.973 60.7161 89.4244 64.4073 94.7373 64.4073C100.752 64.4073 105.667 59.6686 105.915 53.7561C105.926 53.6026 105.926 53.438 105.926 53.2845C105.926 52.6153 105.877 51.9627 105.761 51.3155L105.766 51.321Z" fill="#1F1A1A"/>
<path d="M105.684 50.9206C105.684 50.9645 105.706 51.0029 105.706 51.0523C105.706 51.0742 105.717 51.0961 105.728 51.1126C105.706 51.0523 105.7 50.981 105.689 50.9151L105.684 50.9206ZM97.543 42.5291C97.5761 42.5401 97.5816 42.5401 97.6037 42.5511C97.7915 42.595 97.9682 42.6443 98.1394 42.7047C98.1891 42.7156 98.2444 42.7376 98.283 42.754C98.3162 42.754 98.3327 42.765 98.3438 42.765C98.3935 42.7869 98.4598 42.8034 98.5095 42.8253C98.5426 42.8363 98.5702 42.8473 98.6144 42.8637C98.6972 42.8856 98.769 42.9131 98.8519 42.9569C98.9237 42.9789 98.9955 43.0063 99.0673 43.0392C99.128 43.0612 99.1888 43.0886 99.255 43.1215C99.2992 43.1325 99.3379 43.1544 99.3876 43.1708C99.4925 43.2202 99.5919 43.2751 99.6969 43.3244C99.73 43.3464 99.7797 43.3628 99.8184 43.3847C99.8681 43.4177 99.9343 43.4451 99.9951 43.478C100.045 43.4999 100.078 43.5164 100.128 43.5493C100.244 43.6096 100.365 43.6809 100.481 43.7522C100.542 43.7851 100.603 43.8235 100.669 43.8564C100.719 43.8948 100.785 43.9277 100.835 43.9716C100.956 44.0429 101.072 44.1252 101.188 44.1965C101.227 44.2403 101.282 44.2678 101.332 44.3116C101.343 44.3226 101.354 44.3226 101.354 44.3336C101.403 44.3665 101.448 44.3939 101.475 44.4268C101.525 44.4652 101.591 44.5091 101.641 44.5475C101.702 44.5968 101.773 44.6517 101.84 44.7011C101.851 44.712 101.873 44.723 101.873 44.734C101.934 44.7778 101.994 44.8272 102.05 44.8766C102.061 44.8875 102.072 44.8985 102.083 44.8985C102.132 44.9479 102.188 44.9917 102.248 45.0411C102.364 45.1563 102.497 45.266 102.613 45.3921C102.646 45.425 102.674 45.4525 102.707 45.4854C102.74 45.5183 102.768 45.5457 102.812 45.5786C102.944 45.7212 103.082 45.8748 103.215 46.0174C103.265 46.0887 103.32 46.149 103.381 46.2093C103.557 46.4232 103.734 46.6536 103.894 46.8785C103.938 46.9388 103.988 47.0101 104.027 47.0704C104.11 47.1911 104.192 47.3282 104.275 47.4598C104.308 47.5092 104.347 47.564 104.38 47.6244C104.496 47.8108 104.585 47.9918 104.689 48.1783C104.717 48.2277 104.739 48.2825 104.772 48.3319C104.783 48.3538 104.783 48.3648 104.794 48.3812L104.855 48.5019C104.916 48.6445 104.977 48.7761 105.043 48.9242C105.065 48.9626 105.093 49.0175 105.104 49.0668C105.137 49.1272 105.153 49.1875 105.175 49.2533C105.209 49.3246 105.236 49.3959 105.258 49.4672C105.291 49.5385 105.319 49.6098 105.341 49.6811C104.783 48.0522 103.844 46.5603 102.569 45.3318C101.155 43.9551 99.4262 43.0008 97.5485 42.5182L97.543 42.5291ZM105.341 49.7414C105.352 49.7634 105.363 49.7908 105.374 49.8127C105.396 49.8621 105.407 49.9169 105.424 49.9663C105.446 50.0376 105.463 50.0979 105.474 50.1692C105.485 50.1912 105.496 50.2021 105.507 50.2186C105.457 50.0541 105.402 49.8895 105.341 49.7359V49.7414ZM105.33 49.6921C105.341 49.703 105.341 49.725 105.341 49.7414C105.341 49.7195 105.341 49.7085 105.341 49.703C105.33 49.6921 105.33 49.6921 105.33 49.6921ZM105.557 50.4215C105.579 50.5038 105.59 50.5861 105.617 50.6683C105.606 50.6245 105.584 50.5861 105.584 50.5477C105.573 50.5093 105.562 50.4654 105.551 50.427L105.557 50.4215ZM105.617 50.6683C105.628 50.7122 105.639 50.7506 105.65 50.789C105.65 50.8219 105.661 50.8603 105.684 50.9042C105.65 50.8219 105.639 50.7396 105.623 50.6683H105.617ZM97.4049 42.5017C97.438 42.5017 97.4546 42.5127 97.4877 42.5237C97.4988 42.5237 97.5209 42.5237 97.5319 42.5346C97.4878 42.5237 97.4491 42.5127 97.4104 42.5017H97.4049ZM20.0474 46.4836C20.0584 46.4836 20.0584 46.4726 20.0695 46.4726V46.4616C20.0584 46.4726 20.0474 46.4945 20.0364 46.5055C20.0474 46.4945 20.0474 46.4945 20.0474 46.4836ZM20.0695 46.4616C20.0805 46.4397 20.1137 46.4177 20.1192 46.4013C20.1302 46.4013 20.1302 46.3903 20.1413 46.3903C20.1413 46.3794 20.1413 46.3794 20.1413 46.3794C20.1192 46.4123 20.0916 46.4287 20.0695 46.4616ZM19.2411 47.5805C19.2853 47.5202 19.3239 47.4489 19.3626 47.3885C19.4123 47.3172 19.4675 47.2459 19.5172 47.1746C19.4233 47.3063 19.3294 47.4434 19.2356 47.586L19.2411 47.5805ZM113.686 45.9625C113.686 47.0101 113.067 47.9863 112.107 48.4251L105.761 51.3594C105.761 51.3484 105.761 51.3375 105.761 51.3265C105.75 51.2826 105.728 51.2442 105.728 51.1949C105.728 51.1729 105.717 51.1455 105.717 51.1236C105.695 51.0632 105.689 50.9919 105.678 50.9261V50.9151V50.9042C105.645 50.8219 105.634 50.7396 105.617 50.6683C105.606 50.6245 105.584 50.5861 105.584 50.5477C105.573 50.5093 105.562 50.4654 105.551 50.427C105.529 50.3776 105.529 50.3338 105.507 50.2954C105.496 50.2844 105.496 50.2734 105.496 50.2625C105.496 50.2515 105.496 50.2405 105.496 50.2296C105.446 50.065 105.391 49.9005 105.33 49.7469C105.33 49.725 105.33 49.714 105.33 49.7085C105.319 49.6976 105.319 49.6976 105.319 49.6976C104.761 48.0686 103.822 46.5768 102.547 45.3482C101.133 43.9716 99.4042 43.0173 97.5264 42.5346C97.5264 42.5346 97.5264 42.5346 97.5154 42.5346C97.4712 42.5237 97.4325 42.5127 97.3939 42.5017C97.3552 42.4908 97.3 42.4798 97.2613 42.4688C97.1674 42.4359 97.0735 42.4195 96.9797 42.4085C96.8858 42.3865 96.7919 42.3646 96.709 42.3591C96.6151 42.3372 96.5213 42.3152 96.4219 42.3098C96.3501 42.2988 96.2783 42.2878 96.1954 42.2769C96.1844 42.2769 96.1733 42.2769 96.1733 42.2769C96.1623 42.2659 96.1512 42.2659 96.1402 42.2659C96.0463 42.2549 95.9635 42.2439 95.8641 42.233C95.7702 42.222 95.6873 42.211 95.5824 42.211C95.5106 42.2001 95.4388 42.2001 95.367 42.1891C95.3449 42.1891 95.3063 42.1891 95.2731 42.1891C95.2013 42.1781 95.1185 42.1781 95.0577 42.1781C95.0246 42.1781 95.008 42.1781 94.9749 42.1781C94.892 42.1781 94.8092 42.1781 94.7264 42.1781C88.5464 42.1781 83.5372 47.1637 83.5372 53.29C83.5372 53.3339 83.5372 53.3723 83.5372 53.4106C83.5372 53.4545 83.5372 53.4929 83.5372 53.5313H39.83C39.83 53.4819 39.83 53.4271 39.83 53.3777V53.3558C39.83 53.3229 39.83 53.2845 39.83 53.2406C39.8189 53.1913 39.8189 53.1474 39.8189 53.098C39.8189 53.0541 39.8079 53.0048 39.8079 52.9664C39.8079 52.9554 39.8079 52.9445 39.8079 52.9445C39.8079 52.8951 39.7968 52.8402 39.7968 52.7909C39.7968 52.758 39.7968 52.7196 39.7858 52.6757C39.7858 52.6757 39.7858 52.6647 39.7858 52.6538C39.7748 52.5715 39.7637 52.4892 39.7637 52.407C39.7637 52.396 39.7637 52.374 39.7637 52.3631C39.7527 52.3247 39.7416 52.2808 39.7416 52.2424C39.7416 52.1931 39.7306 52.1492 39.7195 52.1108C39.7085 52.0175 39.6974 51.9353 39.6753 51.842C39.6753 51.8311 39.6753 51.8311 39.6753 51.8201C39.6753 51.7762 39.6643 51.7378 39.6533 51.6994C39.6533 51.6556 39.6422 51.6172 39.6312 51.5788C39.6312 51.5568 39.6201 51.5459 39.6201 51.5294C39.6091 51.4581 39.587 51.3758 39.5759 51.3045C39.5759 51.2936 39.5759 51.2936 39.5759 51.2936C39.5538 51.2332 39.5538 51.1784 39.5373 51.129C39.5373 51.1181 39.5373 51.1181 39.5373 51.1181C39.5262 51.0852 39.5262 51.0577 39.5152 51.0358C39.4931 50.9206 39.4655 50.8219 39.4323 50.7067C39.4102 50.6354 39.3937 50.5641 39.3826 50.5038C39.3495 50.4106 39.3329 50.3283 39.2998 50.235C39.2667 50.1528 39.2501 50.0705 39.217 49.9773C39.1728 49.884 39.1341 49.7853 39.101 49.6811C39.0678 49.6098 39.0513 49.5495 39.0181 49.4782C38.9574 49.3356 38.9022 49.193 38.8414 49.0504C38.8193 49.0065 38.7917 48.9571 38.7696 48.9187C38.7475 48.8584 38.7199 48.7981 38.6868 48.7432C38.6426 48.661 38.615 48.5787 38.5653 48.4964C38.5321 48.4251 38.4935 48.3538 38.4493 48.2825C38.4162 48.2112 38.3664 48.1399 38.3278 48.0576C38.2891 47.9973 38.256 47.937 38.2118 47.8712C38.1676 47.8108 38.14 47.7505 38.0958 47.6847C38.0737 47.6408 38.0461 47.5915 38.013 47.5531C37.9688 47.4927 37.9301 47.4379 37.897 47.3776C37.8473 47.3172 37.8142 47.2569 37.7645 47.1911C37.7424 47.1582 37.7203 47.1307 37.6927 47.0869C37.654 47.0265 37.6098 46.9717 37.5712 46.9114C37.5215 46.862 37.4773 46.7962 37.4386 46.7468C37.4276 46.7359 37.4276 46.7249 37.4165 46.7249C37.3723 46.6646 37.3337 46.6097 37.284 46.5603C37.284 46.5384 37.2619 46.5274 37.2508 46.522C37.2398 46.5 37.2288 46.489 37.2122 46.4726C37.1791 46.4342 37.1514 46.3903 37.1183 46.3519C37.0852 46.319 37.0575 46.2916 37.0244 46.2587C36.9913 46.2258 36.9747 46.1984 36.9416 46.1655C36.9416 46.1545 36.9305 46.1545 36.9305 46.1435C36.9195 46.1435 36.9084 46.1325 36.9084 46.1216C36.8974 46.1106 36.8863 46.0996 36.8753 46.0887C36.8256 46.0283 36.7704 45.9735 36.7096 45.9132C36.6489 45.8528 36.5936 45.7925 36.5218 45.7267C36.4611 45.6554 36.4003 45.5951 36.3341 45.5347C36.2623 45.4744 36.2015 45.4195 36.1352 45.3592C36.0635 45.2989 35.9917 45.2386 35.9309 45.1727C35.8591 45.1234 35.7984 45.0576 35.7266 45.0082C35.6548 44.9479 35.594 44.893 35.5222 44.8327C35.4615 44.7888 35.4062 44.7504 35.3455 44.712C35.3234 44.6901 35.3013 44.6681 35.2847 44.6627C35.224 44.6133 35.1522 44.5585 35.0914 44.5201L35.0804 44.5091C34.9478 44.4159 34.8208 44.3336 34.6993 44.2513C34.6772 44.2403 34.6662 44.2294 34.6662 44.2294C34.4895 44.1252 34.3348 44.0264 34.1691 43.9332C34.0973 43.8893 34.0255 43.8509 33.9537 43.8125C33.882 43.7742 33.8102 43.7412 33.7384 43.6974C33.6445 43.648 33.5506 43.6041 33.4512 43.5548C33.3794 43.5219 33.3076 43.4835 33.2247 43.4506C33.164 43.4177 33.0922 43.3902 33.0314 43.3573C32.9873 43.3464 32.9486 43.3244 32.9099 43.308C32.8602 43.286 32.805 43.2641 32.7553 43.2476C32.7166 43.2367 32.6835 43.2147 32.6393 43.2092C32.5786 43.1873 32.5234 43.1654 32.4736 43.1489C32.4018 43.116 32.3301 43.0995 32.2583 43.0666C32.2086 43.0557 32.1644 43.0337 32.1147 43.0282C32.1036 43.0173 32.0815 43.0173 32.0705 43.0063C32.0208 42.9953 31.9656 42.9734 31.9269 42.9624C31.8772 42.9405 31.822 42.9295 31.7612 42.9131C31.7005 42.8911 31.6397 42.8802 31.5734 42.8637C31.5624 42.8637 31.5513 42.8637 31.5403 42.8527C31.4961 42.8418 31.4575 42.8308 31.4188 42.8198C31.3249 42.7979 31.231 42.776 31.1482 42.7595C30.9715 42.7156 30.7837 42.6772 30.6014 42.6443C30.5075 42.6224 30.4137 42.6169 30.3253 42.595C30.2424 42.584 30.1596 42.573 30.0878 42.5621C30.0381 42.5511 29.9939 42.5511 29.9553 42.5401C29.9056 42.5401 29.8724 42.5291 29.8338 42.5291C29.7951 42.5291 29.762 42.5182 29.7178 42.5182C29.657 42.5072 29.5852 42.5072 29.5245 42.4962C29.5024 42.4962 29.4803 42.4962 29.4637 42.4962C29.3919 42.4853 29.3312 42.4853 29.2594 42.4853C29.2263 42.4743 29.1986 42.4743 29.1655 42.4743C29.0937 42.4743 29.0219 42.4743 28.9612 42.4633C28.9391 42.4633 28.928 42.4633 28.9115 42.4633C28.8286 42.4633 28.7347 42.4633 28.6353 42.4633C28.5414 42.4633 28.4475 42.4633 28.3537 42.4633C28.3426 42.4633 28.3316 42.4633 28.3095 42.4633C28.2487 42.4743 28.1769 42.4743 28.1051 42.4743C28.0775 42.4743 28.0444 42.4743 28.0002 42.4853C27.9394 42.4853 27.8677 42.4853 27.8014 42.4962C27.7682 42.4962 27.7627 42.4962 27.7406 42.4962C27.6799 42.5072 27.6081 42.5072 27.5418 42.5182C27.4976 42.5182 27.47 42.5291 27.4258 42.5291C27.3816 42.5291 27.343 42.5401 27.3043 42.5401C27.2601 42.5511 27.2215 42.5511 27.1718 42.5621C27.0889 42.573 27.0061 42.584 26.9343 42.595C26.8294 42.6169 26.7465 42.6279 26.6582 42.6443C26.4704 42.6772 26.2937 42.7156 26.1114 42.7595C26.0175 42.7814 25.9236 42.7979 25.8408 42.8198C25.8021 42.8308 25.758 42.8418 25.7082 42.8527C25.6972 42.8637 25.6972 42.8637 25.6862 42.8637C25.6254 42.8856 25.5536 42.8966 25.4984 42.9131C25.4376 42.935 25.3824 42.9405 25.3327 42.9624C25.283 42.9734 25.2388 42.9953 25.1891 43.0063C25.1781 43.0173 25.156 43.0173 25.1449 43.0282C25.0952 43.0392 25.04 43.0612 25.0013 43.0666C24.9295 43.0995 24.8577 43.116 24.7859 43.1489C24.7362 43.1708 24.67 43.1873 24.6203 43.2092C24.5871 43.2202 24.5485 43.2421 24.5043 43.2476C24.4546 43.2696 24.3993 43.2915 24.3496 43.308C24.2999 43.3299 24.2668 43.3518 24.2281 43.3573C24.1563 43.3902 24.1066 43.4177 24.0348 43.4506C23.963 43.4835 23.8802 43.5219 23.7974 43.5548C23.7035 43.6041 23.6096 43.648 23.5102 43.6974C23.4494 43.7412 23.3776 43.7687 23.3114 43.8125C23.2285 43.8564 23.1567 43.8948 23.0849 43.9332C22.9192 44.0264 22.7536 44.1252 22.5989 44.2294C22.5768 44.2294 22.5658 44.2403 22.5658 44.2513C22.4332 44.3336 22.3062 44.4159 22.1737 44.5091L22.1626 44.5201C22.1019 44.5639 22.0411 44.6023 21.9749 44.6517C21.9417 44.6736 21.9251 44.6901 21.892 44.712C21.881 44.712 21.881 44.723 21.8589 44.734C21.8202 44.7669 21.765 44.8053 21.7263 44.8382C21.6545 44.8985 21.5827 44.9533 21.5109 45.0137C21.4502 45.063 21.3784 45.1289 21.3176 45.1782C21.2458 45.2385 21.174 45.2989 21.1243 45.3647C21.0525 45.425 20.9808 45.4799 20.9255 45.5402C20.8537 45.6005 20.793 45.6609 20.7212 45.7322C20.6715 45.7925 20.6052 45.8528 20.5445 45.9186C20.4837 45.979 20.423 46.0393 20.3677 46.1051C20.3567 46.1161 20.3456 46.1271 20.3346 46.138C20.3014 46.1709 20.2738 46.1984 20.2517 46.2313C20.2076 46.2697 20.1799 46.3135 20.1468 46.3464C20.1468 46.3574 20.1358 46.3684 20.1247 46.3684C20.1247 46.3794 20.1247 46.3794 20.1247 46.3794C20.1026 46.4123 20.075 46.4287 20.0529 46.4616C20.0419 46.4726 20.0308 46.4945 20.0198 46.5055C20.0087 46.5165 20.0087 46.5274 19.9977 46.5384C19.9756 46.5603 19.9535 46.5768 19.948 46.5987C19.9369 46.6097 19.9259 46.6097 19.9149 46.6207C19.8928 46.6646 19.8652 46.692 19.832 46.7249C19.832 46.7359 19.832 46.7468 19.821 46.7468C19.7713 46.8181 19.716 46.8894 19.6663 46.9607C19.6056 47.0211 19.5504 47.1033 19.5006 47.1746C19.4068 47.3063 19.3129 47.4434 19.219 47.586C19.2079 47.6079 19.1969 47.6189 19.1858 47.6298C19.1417 47.7011 19.092 47.7724 19.0533 47.8437C19.0036 47.915 18.9594 47.9973 18.9208 48.0686C18.8269 48.2332 18.744 48.3867 18.6612 48.5513C18.6115 48.6226 18.5783 48.7048 18.5397 48.7871C18.4955 48.8694 18.4679 48.9516 18.4237 49.0339C18.3795 49.1162 18.3519 49.1875 18.3188 49.2698C18.3077 49.2917 18.2967 49.3081 18.2856 49.3301C18.2635 49.3904 18.2359 49.4617 18.2028 49.5385C18.1697 49.6208 18.142 49.703 18.1089 49.7853C18.0758 49.8676 18.0482 49.9498 18.015 50.0431C18.004 50.0541 18.004 50.076 18.004 50.0815C17.9708 50.1528 17.9543 50.2241 17.9322 50.3063C17.9101 50.3667 17.888 50.438 17.8604 50.5093C17.8604 50.5477 17.8493 50.5806 17.8272 50.6135C17.8162 50.6848 17.7941 50.7561 17.7775 50.8274C17.7554 50.9097 17.7334 51.0029 17.7168 51.0961C17.7168 51.0961 17.7168 51.1071 17.7057 51.1181C17.6947 51.2003 17.6671 51.2826 17.656 51.3649C17.6339 51.4581 17.6119 51.5514 17.6063 51.6446C17.5842 51.7378 17.5732 51.8311 17.5566 51.9188C17.5456 52.0011 17.5345 52.0724 17.5235 52.1547C17.5235 52.1985 17.5124 52.2369 17.5124 52.2698C17.5014 52.3411 17.4904 52.4015 17.4904 52.4728C17.4683 52.566 17.4683 52.6593 17.4572 52.747C17.4462 52.8402 17.4462 52.9335 17.4351 53.0377C17.4351 53.1309 17.4351 53.2242 17.4351 53.3009C17.4351 53.3339 17.4241 53.3503 17.4241 53.3832C17.4241 53.4326 17.4241 53.4984 17.4241 53.5478H9.38292C6.66572 53.5478 4.29092 51.7323 3.6061 49.1272L2.34691 44.3665C1.99345 43.0502 2.59543 41.679 3.79387 41.0318C4.84872 40.456 5.67162 39.5345 6.13001 38.4376L12.6414 22.6145C13.7293 19.9654 16.2864 18.2652 19.1693 18.2652H60.7944C62.0757 18.2652 63.3183 18.6546 64.3621 19.395L83.25 32.6842L106.722 35.9366C107.374 36.0189 107.992 36.1944 108.572 36.4193C109.809 36.9129 110.886 37.7027 111.731 38.6899C112.548 39.6442 113.145 40.796 113.438 42.0355C113.438 42.0465 113.438 42.0465 113.438 42.0465C113.46 42.0959 113.471 42.1507 113.476 42.2001C113.592 42.7321 113.653 43.286 113.653 43.8509V45.9735L113.686 45.9625ZM115.95 43.3957L115.939 43.2421C115.939 43.1708 115.928 43.0886 115.928 43.0173C115.917 42.946 115.906 42.8637 115.906 42.7924C115.895 42.7211 115.884 42.6498 115.873 42.5675C115.862 42.4962 115.851 42.4249 115.84 42.3427C115.829 42.2714 115.818 42.2001 115.807 42.1288C115.796 42.0465 115.774 41.9752 115.768 41.9039C115.746 41.8326 115.735 41.7613 115.718 41.679C115.707 41.6077 115.685 41.5364 115.68 41.4651C115.658 41.4048 115.647 41.3445 115.63 41.2786C115.63 41.2457 115.619 41.2183 115.597 41.1854C115.586 41.136 115.569 41.0812 115.558 41.0318C115.547 40.9605 115.514 40.8892 115.498 40.8179C115.475 40.7466 115.453 40.6753 115.437 40.604C115.404 40.5327 115.387 40.4614 115.354 40.3901C115.332 40.3188 115.304 40.2475 115.282 40.1872C115.249 40.1159 115.232 40.0446 115.199 39.9733C115.166 39.913 115.139 39.8417 115.105 39.7649C115.072 39.6936 115.045 39.6333 115.012 39.562C114.978 39.5016 114.951 39.4303 114.918 39.3645C114.918 39.3535 114.918 39.3535 114.918 39.3426C114.884 39.2822 114.846 39.2219 114.813 39.1561C114.769 39.0848 114.741 39.0135 114.697 38.9422C114.664 38.8819 114.636 38.8215 114.592 38.7557C114.52 38.6351 114.437 38.4979 114.365 38.3773C114.365 38.3773 114.365 38.3773 114.354 38.3773C114.316 38.306 114.283 38.2456 114.233 38.1853C114.2 38.125 114.15 38.0647 114.117 37.9988C114.034 37.8837 113.951 37.774 113.857 37.6588C113.857 37.6478 113.846 37.6369 113.835 37.6369C113.797 37.5765 113.741 37.5162 113.703 37.4504C113.658 37.39 113.609 37.3352 113.559 37.2749C113.443 37.1432 113.333 37.0061 113.206 36.8855C113.172 36.8416 113.134 36.8032 113.101 36.7703L113.056 36.7209C112.952 36.6167 112.852 36.518 112.747 36.4138C111.184 34.9494 109.191 33.9951 107.053 33.6934L84.1392 30.5233L65.7042 17.5412C64.2683 16.5375 62.5838 16 60.8165 16H19.1914C15.3807 16 12.0007 18.2597 10.5538 21.7589L4.05345 37.582C3.79387 38.2073 3.31892 38.7283 2.72246 39.0464C0.612756 40.1982 -0.436571 42.6169 0.170934 44.9369L1.43013 49.6866C2.38004 53.29 5.65505 55.8019 9.40501 55.8019H19.9038L19.7713 54.5514C19.7602 54.5405 19.7602 54.5185 19.7602 54.5021C19.7602 54.4308 19.7492 54.3595 19.7381 54.2882C19.7381 54.2279 19.7271 54.1675 19.7271 54.1017C19.7271 54.0578 19.7271 54.0194 19.7271 53.9865C19.7271 53.9372 19.7271 53.8823 19.7271 53.833C19.716 53.7507 19.716 53.6794 19.716 53.5971C19.716 48.7158 23.7145 44.7449 28.6298 44.7449C33.5451 44.7449 37.5546 48.7158 37.5546 53.5971C37.5546 53.6684 37.5546 53.7288 37.5546 53.7946C37.5546 53.8275 37.5546 53.8549 37.5546 53.8768C37.5436 54.0304 37.5325 54.173 37.5215 54.3156C37.5215 54.3979 37.5104 54.4801 37.4994 54.5514L37.4883 54.6008L37.3668 55.8019H86.0611L85.8844 54.5185C85.8844 54.5076 85.8734 54.4966 85.8734 54.4856C85.8734 54.4747 85.8734 54.4637 85.8734 54.4527C85.8623 54.4198 85.8623 54.3924 85.8623 54.3485C85.8513 54.2992 85.8402 54.2443 85.8402 54.184C85.8292 54.1346 85.8292 54.0688 85.8181 54.0085C85.8181 53.9756 85.8181 53.9372 85.8071 53.8933C85.8071 53.833 85.8071 53.7726 85.8071 53.7068C85.8071 53.6465 85.796 53.5752 85.796 53.5149C85.796 53.4436 85.796 53.3613 85.796 53.29C85.796 48.4087 89.7945 44.4378 94.7153 44.4378C94.8589 44.4378 95.0025 44.4378 95.1461 44.4488C95.1571 44.4488 95.1571 44.4488 95.1792 44.4488C95.2289 44.4488 95.2952 44.4488 95.3449 44.4597C95.3725 44.4597 95.4057 44.4597 95.4278 44.4597C95.4388 44.4597 95.4498 44.4707 95.4609 44.4707C95.5106 44.4707 95.5658 44.4707 95.6266 44.4817C95.6984 44.4926 95.7702 44.5036 95.842 44.5146C95.9248 44.5146 95.9966 44.5255 96.0684 44.5475C96.1402 44.5585 96.212 44.5694 96.2948 44.5804C96.3666 44.5914 96.4384 44.6133 96.5102 44.6243C96.582 44.6462 96.6538 44.6517 96.7201 44.6736C96.7919 44.6846 96.8637 44.7065 96.9244 44.723C96.9355 44.723 96.9465 44.723 96.9465 44.723C97.0183 44.7449 97.0901 44.7669 97.1729 44.7833C97.195 44.7833 97.2171 44.7943 97.2337 44.8053C97.2834 44.8162 97.3386 44.8272 97.3773 44.8491C97.4712 44.882 97.5761 44.9095 97.659 44.9424C98.8905 45.3647 99.9951 46.0503 100.945 46.9607C102.094 48.0796 102.895 49.4453 103.32 50.9426C103.331 50.9919 103.342 51.0468 103.353 51.0852C103.375 51.1565 103.397 51.2278 103.403 51.2991C103.436 51.4417 103.463 51.5843 103.485 51.7323C103.508 51.8036 103.519 51.8859 103.524 51.9572C103.535 51.9956 103.546 52.0505 103.546 52.0998C103.546 52.1108 103.546 52.1218 103.557 52.1327C103.557 52.1766 103.568 52.215 103.579 52.2534C103.579 52.2918 103.579 52.3466 103.59 52.396C103.59 52.4399 103.601 52.4892 103.601 52.5276C103.613 52.5715 103.613 52.5989 103.613 52.6428C103.613 52.7141 103.624 52.7854 103.624 52.8567C103.635 52.928 103.635 52.9993 103.635 53.0706L103.673 54.7544L105.225 54.0798C105.369 54.0194 105.496 53.9591 105.628 53.8933L105.899 53.7726L113.04 50.4764C114.807 49.6537 115.945 47.8931 115.945 45.9625V43.84C115.945 43.6864 115.945 43.5438 115.934 43.4012L115.95 43.3957ZM19.3681 47.3885C19.4178 47.3172 19.473 47.2459 19.5227 47.1746C19.4289 47.3063 19.335 47.4434 19.2411 47.586C19.2853 47.5256 19.3239 47.4543 19.3626 47.394L19.3681 47.3885ZM20.0474 46.4836C20.0584 46.4836 20.0584 46.4726 20.0695 46.4726V46.4616C20.0584 46.4726 20.0474 46.4945 20.0364 46.5055C20.0474 46.4945 20.0474 46.4945 20.0474 46.4836ZM20.1192 46.4013C20.1302 46.4013 20.1302 46.3903 20.1413 46.3903C20.1413 46.3794 20.1413 46.3794 20.1413 46.3794C20.1192 46.4123 20.0916 46.4287 20.0695 46.4616C20.0805 46.4397 20.1137 46.4177 20.1192 46.4013ZM97.2668 42.4743C97.3386 42.4853 97.4104 42.5072 97.4822 42.5237C97.4933 42.5237 97.5154 42.5237 97.5264 42.5346C97.4822 42.5237 97.4436 42.5127 97.4049 42.5017C97.3663 42.4908 97.311 42.4798 97.2724 42.4688L97.2668 42.4743ZM105.325 49.6976C105.336 49.7085 105.336 49.7305 105.336 49.7469C105.336 49.725 105.336 49.714 105.336 49.7085C105.325 49.6976 105.325 49.6976 105.325 49.6976ZM105.363 49.8182C105.385 49.8676 105.396 49.9224 105.413 49.9718C105.435 50.0431 105.452 50.1034 105.463 50.1747C105.474 50.1967 105.485 50.2076 105.496 50.2241C105.446 50.0595 105.391 49.895 105.33 49.7414C105.341 49.7634 105.352 49.7908 105.363 49.8127V49.8182ZM97.5319 42.5346C97.5651 42.5456 97.5706 42.5456 97.5927 42.5566C97.7805 42.6004 97.9572 42.6498 98.1284 42.7101C98.1781 42.7211 98.2333 42.743 98.272 42.7595C98.3051 42.7595 98.3217 42.7705 98.3327 42.7705C98.3824 42.7924 98.4487 42.8089 98.4984 42.8308C98.5316 42.8418 98.5592 42.8527 98.6034 42.8692C98.6862 42.8911 98.758 42.9186 98.8408 42.9624C98.9126 42.9844 98.9844 43.0118 99.0562 43.0447C99.117 43.0666 99.1777 43.0941 99.244 43.127C99.2882 43.1379 99.3268 43.1599 99.3765 43.1763C99.4815 43.2257 99.5809 43.2805 99.6858 43.3299C99.7189 43.3518 99.7687 43.3683 99.8073 43.3902C99.857 43.4231 99.9233 43.4506 99.984 43.4835C100.034 43.5054 100.067 43.5219 100.117 43.5548C100.233 43.6151 100.354 43.6864 100.47 43.7577C100.531 43.7906 100.592 43.829 100.658 43.8619C100.708 43.9003 100.774 43.9332 100.824 43.9771C100.945 44.0484 101.061 44.1307 101.177 44.202C101.216 44.2458 101.271 44.2733 101.321 44.3171C101.332 44.3281 101.343 44.3281 101.343 44.3391C101.392 44.372 101.437 44.3994 101.464 44.4323C101.514 44.4707 101.58 44.5146 101.63 44.553C101.691 44.6023 101.762 44.6572 101.829 44.7065C101.84 44.7175 101.862 44.7285 101.862 44.7394C101.923 44.7833 101.983 44.8327 102.039 44.882C102.05 44.893 102.061 44.904 102.072 44.904C102.121 44.9533 102.177 44.9972 102.237 45.0466C102.353 45.1618 102.486 45.2715 102.602 45.3976C102.635 45.4305 102.663 45.4579 102.696 45.4908C102.729 45.5238 102.756 45.5512 102.801 45.5841C102.933 45.7267 103.071 45.8803 103.204 46.0229C103.254 46.0942 103.309 46.1545 103.37 46.2148C103.546 46.4287 103.723 46.6591 103.883 46.8839C103.927 46.9443 103.977 47.0156 104.016 47.0759C104.099 47.1966 104.181 47.3337 104.264 47.4653C104.297 47.5147 104.336 47.5695 104.369 47.6298C104.485 47.8163 104.573 47.9973 104.678 48.1838C104.706 48.2332 104.728 48.288 104.761 48.3374C104.772 48.3593 104.772 48.3703 104.783 48.3867L104.844 48.5074C104.905 48.65 104.966 48.7816 105.032 48.9297C105.054 48.9681 105.082 49.0229 105.093 49.0723C105.126 49.1326 105.142 49.193 105.164 49.2588C105.198 49.3301 105.225 49.4014 105.247 49.4727C105.28 49.544 105.308 49.6153 105.33 49.6866C104.772 48.0576 103.833 46.5658 102.558 45.3373C101.144 43.9606 99.4152 43.0063 97.5375 42.5237L97.5319 42.5346ZM105.551 50.427C105.573 50.5093 105.584 50.5915 105.612 50.6738C105.601 50.6299 105.579 50.5915 105.579 50.5532C105.568 50.5148 105.557 50.4709 105.545 50.4325L105.551 50.427ZM105.612 50.6738C105.623 50.7177 105.634 50.7561 105.645 50.7945C105.645 50.8384 105.656 50.8767 105.678 50.9151V50.9042C105.645 50.8219 105.634 50.7396 105.617 50.6683L105.612 50.6738ZM105.673 50.9316C105.673 50.9755 105.695 51.0139 105.695 51.0632C105.706 51.1071 105.717 51.1565 105.728 51.1949C105.728 51.1729 105.717 51.1455 105.717 51.1236C105.695 51.0632 105.689 50.9919 105.678 50.9261L105.673 50.9316ZM19.2356 47.586C19.2797 47.5256 19.3184 47.4543 19.3571 47.394C19.4068 47.3227 19.462 47.2514 19.5117 47.1801C19.4178 47.3117 19.3239 47.4489 19.23 47.5915L19.2356 47.586ZM20.0087 46.5384C19.9867 46.5603 19.9646 46.5768 19.959 46.5987C19.9922 46.5549 20.0198 46.5274 20.0419 46.4836C20.0529 46.4836 20.0529 46.4726 20.064 46.4726V46.4616C20.0529 46.4726 20.0419 46.4945 20.0308 46.5055C20.0198 46.5165 20.0198 46.5274 20.0087 46.5384ZM20.0584 46.4671C20.0695 46.4452 20.1026 46.4232 20.1082 46.4068C20.1192 46.4068 20.1192 46.3958 20.1302 46.3958C20.1302 46.3848 20.1302 46.3848 20.1302 46.3848C20.1082 46.4177 20.0805 46.4342 20.0584 46.4671ZM105.673 50.9316C105.673 50.9755 105.695 51.0139 105.695 51.0632C105.695 51.0852 105.706 51.1071 105.717 51.1236C105.695 51.0632 105.689 50.9919 105.678 50.9261L105.673 50.9316ZM97.4767 42.5291C97.4877 42.5291 97.5098 42.5291 97.5209 42.5401C97.4767 42.5291 97.438 42.5182 97.3994 42.5072C97.4325 42.5072 97.4491 42.5182 97.4822 42.5291H97.4767ZM97.5264 42.5401C97.5595 42.5511 97.5651 42.5511 97.5872 42.5621C97.7749 42.6059 97.9517 42.6553 98.1229 42.7156C98.1726 42.7266 98.2278 42.7485 98.2665 42.765C98.2996 42.765 98.3162 42.776 98.3272 42.776C98.3769 42.7979 98.4432 42.8143 98.4929 42.8363C98.526 42.8473 98.5536 42.8582 98.5978 42.8747C98.6807 42.8966 98.7525 42.924 98.8353 42.9679C98.9071 42.9899 98.9789 43.0173 99.0507 43.0502C99.1114 43.0721 99.1722 43.0995 99.2385 43.1325C99.2827 43.1434 99.3213 43.1654 99.371 43.1818C99.476 43.2312 99.5754 43.286 99.6803 43.3354C99.7134 43.3573 99.7631 43.3738 99.8018 43.3957C99.8515 43.4286 99.9178 43.456 99.9785 43.489C100.023 43.5109 100.061 43.5273 100.111 43.5603C100.227 43.6206 100.349 43.6919 100.465 43.7632C100.525 43.7961 100.586 43.8345 100.652 43.8674C100.702 43.9058 100.768 43.9387 100.818 43.9826C100.939 44.0539 101.055 44.1361 101.171 44.2074C101.21 44.2513 101.265 44.2787 101.315 44.3226C101.326 44.3336 101.337 44.3336 101.337 44.3446C101.387 44.3775 101.431 44.4049 101.459 44.4378C101.508 44.4762 101.575 44.5201 101.624 44.5585C101.685 44.6078 101.757 44.6627 101.823 44.712C101.834 44.723 101.856 44.734 101.856 44.7449C101.917 44.7888 101.978 44.8382 102.033 44.8875C102.044 44.8985 102.055 44.9095 102.066 44.9095C102.116 44.9588 102.171 45.0027 102.232 45.0521C102.348 45.1672 102.48 45.2769 102.596 45.4031C102.629 45.436 102.657 45.4634 102.69 45.4963C102.723 45.5292 102.751 45.5567 102.795 45.5896C102.928 45.7322 103.066 45.8857 103.198 46.0283C103.248 46.0996 103.303 46.16 103.364 46.2203C103.541 46.4342 103.717 46.6646 103.878 46.8894C103.922 46.9498 103.971 47.0211 104.01 47.0814C104.093 47.202 104.176 47.3392 104.259 47.4708C104.292 47.5202 104.33 47.575 104.364 47.6353C104.48 47.8218 104.568 48.0028 104.673 48.1893C104.7 48.2386 104.723 48.2935 104.756 48.3428C104.767 48.3648 104.767 48.3758 104.778 48.3922L104.839 48.5129C104.899 48.6555 104.96 48.7871 105.026 48.9352C105.048 48.9736 105.076 49.0284 105.087 49.0778C105.12 49.1381 105.137 49.1985 105.159 49.2643C105.192 49.3356 105.22 49.4069 105.242 49.4782C105.275 49.5495 105.302 49.6208 105.325 49.6921C104.767 48.0631 103.828 46.5713 102.552 45.3428C101.138 43.9661 99.4097 43.0118 97.5319 42.5291L97.5264 42.5401ZM105.325 49.7524C105.336 49.7743 105.347 49.8018 105.358 49.8237C105.38 49.8731 105.391 49.9279 105.407 49.9773C105.429 50.0486 105.446 50.1089 105.457 50.1802C105.468 50.2021 105.479 50.2131 105.49 50.2296C105.441 50.065 105.385 49.9005 105.325 49.7469V49.7524ZM105.314 49.703C105.325 49.714 105.325 49.7359 105.325 49.7524C105.325 49.7305 105.325 49.7195 105.325 49.714C105.314 49.703 105.314 49.703 105.314 49.703ZM105.54 50.4325C105.562 50.5148 105.573 50.597 105.601 50.6793C105.59 50.6354 105.568 50.597 105.568 50.5586C105.557 50.5202 105.545 50.4764 105.534 50.438L105.54 50.4325ZM105.601 50.6793C105.612 50.7232 105.623 50.7616 105.634 50.8C105.634 50.8329 105.645 50.8713 105.667 50.9151C105.634 50.8329 105.623 50.7506 105.606 50.6793H105.601Z" fill="#1F1A1A"/>
<path d="M78.6219 35.0701H53.9406V20.3987H56.216V32.8104H78.6219V35.0701Z" fill="#1F1A1A"/>
<path d="M49.3236 35.0701H29.5244V20.3987H31.7998V32.8104H49.3236V35.0701Z" fill="#1F1A1A"/>
<path d="M6.85895 48.6006C6.85895 47.6572 7.63214 46.9058 8.56549 46.9058C9.5154 46.9058 10.2775 47.6572 10.2775 48.6006C10.2775 49.533 9.5154 50.2953 8.56549 50.2953C7.63766 50.2953 6.85895 49.533 6.85895 48.6006ZM12.5529 48.6006C12.5529 47.6572 13.3206 46.9058 14.2595 46.9058C15.1983 46.9058 15.966 47.6572 15.966 48.6006C15.966 49.533 15.2039 50.2953 14.2595 50.2953C13.3206 50.2953 12.5529 49.533 12.5529 48.6006Z" fill="#1F1A1A"/>
<path d="M40.4982 48.6006C40.4982 47.6572 41.2714 46.9058 42.2048 46.9058C43.1436 46.9058 43.9224 47.6572 43.9224 48.6006C43.9224 49.533 43.1492 50.2953 42.2048 50.2953C41.2769 50.2953 40.4982 49.533 40.4982 48.6006ZM46.1922 48.6006C46.1922 47.6572 46.9544 46.9058 47.8987 46.9058C48.8376 46.9058 49.6053 47.6572 49.6053 48.6006C49.6053 49.533 48.8431 50.2953 47.8987 50.2953C46.9599 50.2953 46.1922 49.533 46.1922 48.6006ZM51.8751 48.6006C51.8751 47.6572 52.6428 46.9058 53.5817 46.9058C54.5206 46.9058 55.2882 47.6572 55.2882 48.6006C55.2882 49.533 54.5261 50.2953 53.5817 50.2953C52.6428 50.2953 51.8751 49.533 51.8751 48.6006ZM57.5581 48.6006C57.5581 47.6572 58.3202 46.9058 59.2646 46.9058C60.2035 46.9058 60.9712 47.6572 60.9712 48.6006C60.9712 49.533 60.2035 50.2953 59.2646 50.2953C58.3257 50.2953 57.5581 49.533 57.5581 48.6006ZM63.241 48.6006C63.241 47.6572 64.0087 46.9058 64.9476 46.9058C65.8864 46.9058 66.6541 47.6572 66.6541 48.6006C66.6541 49.533 65.8919 50.2953 64.9476 50.2953C64.0087 50.2953 63.241 49.533 63.241 48.6006ZM68.924 48.6006C68.924 47.6572 69.6861 46.9058 70.6305 46.9058C71.5694 46.9058 72.337 47.6572 72.337 48.6006C72.337 49.533 71.5694 50.2953 70.6305 50.2953C69.6916 50.2953 68.924 49.533 68.924 48.6006ZM74.6069 48.6006C74.6069 47.6572 75.3746 46.9058 76.3134 46.9058C77.2523 46.9058 78.02 47.6572 78.02 48.6006C78.02 49.533 77.2578 50.2953 76.3134 50.2953C75.3746 50.2953 74.6069 49.533 74.6069 48.6006Z" fill="#1F1A1A"/>
<path d="M106.915 38.04L112.715 37.2667L115.035 43.26H106.915L105.368 40.5533L106.915 38.04Z" fill="url(#paint2_radial_57_192)"/>
<path d="M108.511 42.1781C107.539 42.1781 106.744 41.3883 106.744 40.412C106.744 39.4467 107.539 38.6679 108.511 38.6679H111.775C112.615 39.6332 113.178 40.7905 113.471 42.0136C113.471 42.0245 113.471 42.0245 113.471 42.0245C113.493 42.0739 113.504 42.1287 113.509 42.1781H108.511ZM115.95 43.3902L115.939 43.2366C115.939 43.1653 115.928 43.0831 115.928 43.0118C115.917 42.9405 115.906 42.8582 115.906 42.7869C115.895 42.7156 115.884 42.6443 115.873 42.562C115.862 42.4907 115.851 42.4194 115.84 42.3371C115.829 42.2658 115.818 42.1945 115.807 42.1232C115.796 42.041 115.774 41.9697 115.768 41.8984C115.746 41.8271 115.735 41.7558 115.718 41.6735C115.707 41.6022 115.685 41.5309 115.68 41.4596C115.658 41.3993 115.647 41.3389 115.63 41.2731C115.63 41.2402 115.619 41.2128 115.597 41.1799C115.586 41.1305 115.569 41.0757 115.558 41.0263C115.547 40.955 115.514 40.8837 115.497 40.8124C115.475 40.7411 115.453 40.6698 115.437 40.5985C115.404 40.5272 115.387 40.4559 115.354 40.3846C115.332 40.3133 115.304 40.242 115.282 40.1817C115.249 40.1104 115.232 40.0391 115.199 39.9678C115.166 39.9075 115.138 39.8362 115.105 39.7594C115.072 39.6881 115.045 39.6277 115.011 39.5564C114.978 39.4961 114.951 39.4248 114.918 39.359C114.918 39.348 114.918 39.348 114.918 39.3371C114.884 39.2767 114.846 39.2164 114.813 39.1506C114.768 39.0793 114.741 39.008 114.697 38.9367C114.663 38.8763 114.636 38.816 114.592 38.7502C114.52 38.6295 114.437 38.4924 114.365 38.3718C114.365 38.3718 114.365 38.3718 114.354 38.3718C114.316 38.3005 114.282 38.2401 114.233 38.1798C114.2 38.1195 114.15 38.0591 114.117 37.9933C114.034 37.8781 113.951 37.7685 113.857 37.6533C113.857 37.6423 113.846 37.6313 113.835 37.6313C113.796 37.571 113.741 37.5107 113.703 37.4449C113.658 37.3845 113.609 37.3297 113.559 37.2694C113.443 37.1377 113.333 37.0006 113.205 36.8799C113.172 36.8361 113.134 36.7977 113.101 36.7648L113.056 36.7154L112.758 36.4083H108.5C106.269 36.4083 104.457 38.2127 104.457 40.423C104.457 42.6388 106.269 44.4432 108.5 44.4432H116L115.939 43.3957L115.95 43.3902Z" fill="#1F1A1A"/>
<defs>
<radialGradient id="paint0_radial_57_192" cx="0" cy="0" r="1" gradientUnits="userSpaceOnUse" gradientTransform="translate(43.5178 61.2631) rotate(-151.481) scale(35.7107 41.5545)">
<stop stop-color="#4CB752"/>
<stop offset="1" stop-color="#B0D353"/>
</radialGradient>
<radialGradient id="paint1_radial_57_192" cx="0" cy="0" r="1" gradientUnits="userSpaceOnUse" gradientTransform="translate(108.55 60.3986) rotate(-151.481) scale(33.2929 38.741)">
<stop stop-color="#4CB752"/>
<stop offset="1" stop-color="#B0D353"/>
</radialGradient>
<radialGradient id="paint2_radial_57_192" cx="0" cy="0" r="1" gradientUnits="userSpaceOnUse" gradientTransform="translate(117.686 42.6682) rotate(-161.261) scale(16.7395 14.1259)">
<stop stop-color="#4CB752"/>
<stop offset="1" stop-color="#B0D353"/>
</radialGradient>
</defs>
</svg>
