<svg width="28" height="28" viewBox="0 0 28 28" fill="none" xmlns="http://www.w3.org/2000/svg">
<path d="M21.875 2.625H7.875C7.41087 2.625 6.96575 2.80937 6.63756 3.13756C6.30937 3.46575 6.125 3.91087 6.125 4.375V7H4.375C3.91087 7 3.46575 7.18437 3.13756 7.51256C2.80937 7.84075 2.625 8.28587 2.625 8.75V19.25C2.625 19.7141 2.80937 20.1592 3.13756 20.4874C3.46575 20.8156 3.91087 21 4.375 21H6.125V23.625C6.125 24.0891 6.30937 24.5342 6.63756 24.8624C6.96575 25.1906 7.41087 25.375 7.875 25.375H21.875C22.3391 25.375 22.7842 25.1906 23.1124 24.8624C23.4406 24.5342 23.625 24.0891 23.625 23.625V4.375C23.625 3.91087 23.4406 3.46575 23.1124 3.13756C22.7842 2.80937 22.3391 2.625 21.875 2.625ZM17.5 11.375H21.875V16.625H17.5V11.375ZM21.875 9.625H17.5V8.75C17.5 8.28587 17.3156 7.84075 16.9874 7.51256C16.6592 7.18437 16.2141 7 15.75 7V4.375H21.875V9.625ZM7.875 4.375H14V7H7.875V4.375ZM4.375 8.75H15.75V17.4814C15.75 17.488 15.75 17.4934 15.75 17.5C15.75 17.5066 15.75 17.512 15.75 17.5186V19.25H4.375V8.75ZM7.875 21H14V23.625H7.875V21ZM15.75 23.625V21C16.2141 21 16.6592 20.8156 16.9874 20.4874C17.3156 20.1592 17.5 19.7141 17.5 19.25V18.375H21.875V23.625H15.75ZM7.20234 16.065L8.92391 14L7.20234 11.935C7.05382 11.7566 6.98225 11.5265 7.00338 11.2953C7.02451 11.0642 7.1366 10.8509 7.315 10.7023C7.4934 10.5538 7.72349 10.4823 7.95466 10.5034C8.18583 10.5245 8.39914 10.6366 8.54766 10.815L10.0625 12.6328L11.5773 10.815C11.6509 10.7267 11.7411 10.6537 11.8428 10.6002C11.9446 10.5467 12.0559 10.5138 12.1703 10.5034C12.2848 10.4929 12.4002 10.5051 12.51 10.5392C12.6197 10.5734 12.7217 10.6288 12.81 10.7023C12.8983 10.7759 12.9713 10.8661 13.0248 10.9678C13.0783 11.0696 13.1112 11.1809 13.1216 11.2953C13.1321 11.4098 13.1199 11.5252 13.0858 11.635C13.0516 11.7447 12.9962 11.8467 12.9227 11.935L11.2011 14L12.9227 16.065C13.0712 16.2434 13.1427 16.4735 13.1216 16.7047C13.1005 16.9358 12.9884 17.1491 12.81 17.2977C12.6316 17.4462 12.4015 17.5177 12.1703 17.4966C11.9392 17.4755 11.7259 17.3634 11.5773 17.185L10.0625 15.3672L8.54766 17.185C8.39914 17.3634 8.18583 17.4755 7.95466 17.4966C7.72349 17.5177 7.4934 17.4462 7.315 17.2977C7.1366 17.1491 7.02451 16.9358 7.00338 16.7047C6.98225 16.4735 7.05382 16.2434 7.20234 16.065Z" fill="white"/>
</svg>
