<svg width="116" height="80" viewBox="0 0 116 80" fill="none" xmlns="http://www.w3.org/2000/svg">
<path d="M44.0417 47.0169H70.2917L47.7917 70.1005L34.875 69.4766L44.0417 47.0169Z" fill="url(#paint0_radial_57_179)"/>
<path d="M34.4583 24.1413L37.1666 30.1721H54.25L47.5833 24.1413H34.4583Z" fill="url(#paint1_radial_57_179)"/>
<path d="M32.5929 29.4987L30.882 30.4502L30.0657 28.9912L20.5335 11.9567H11.1773L14.995 28.9912L15.1661 29.7573L13.2548 30.1818L12.9957 29.0254L9.16327 11.9469C9.05573 11.4639 9.17305 10.9759 9.47612 10.5953C9.7792 10.2196 10.2387 10 10.7226 10H20.7485C21.3254 10 21.8631 10.3123 22.1417 10.8198L32.3094 28.9912L32.5929 29.4987Z" fill="#1F1A1A"/>
<path d="M94.425 35.3687H101.748V33.412H94.425V35.3687Z" fill="#1F1A1A"/>
<path d="M36.753 35.9737C36.753 35.1637 37.4129 34.505 38.2244 34.505C39.0358 34.505 39.6957 35.1637 39.6957 35.9737C39.6957 36.7838 39.0358 37.4425 38.2244 37.4425C37.4129 37.4425 36.753 36.7838 36.753 35.9737ZM41.656 35.9737C41.656 35.1637 42.3159 34.505 43.1273 34.505C43.9388 34.505 44.5987 35.1637 44.5987 35.9737C44.5987 36.7838 43.9437 37.4425 43.1273 37.4425C42.3159 37.4425 41.656 36.7838 41.656 35.9737ZM46.5589 35.9737C46.5589 35.1637 47.2188 34.505 48.0303 34.505C48.8418 34.505 49.5017 35.1637 49.5017 35.9737C49.5017 36.7838 48.8466 37.4425 48.0303 37.4425C47.2188 37.4425 46.5589 36.7838 46.5589 35.9737ZM51.4619 35.9737C51.4619 35.1637 52.1218 34.505 52.9333 34.505C53.7447 34.505 54.4047 35.1637 54.4047 35.9737C54.4047 36.7838 53.7496 37.4425 52.9333 37.4425C52.1218 37.4425 51.4619 36.7838 51.4619 35.9737ZM56.3649 35.9737C56.3649 35.1637 57.0248 34.505 57.8362 34.505C58.6477 34.505 59.3076 35.1637 59.3076 35.9737C59.3076 36.7838 58.6526 37.4425 57.8362 37.4425C57.0248 37.4425 56.3649 36.7838 56.3649 35.9737ZM61.2678 35.9737C61.2678 35.1637 61.9277 34.505 62.7392 34.505C63.5507 34.505 64.2106 35.1637 64.2106 35.9737C64.2106 36.7838 63.5556 37.4425 62.7392 37.4425C61.9277 37.4425 61.2678 36.7838 61.2678 35.9737ZM66.1708 35.9737C66.1708 35.1637 66.8307 34.505 67.6422 34.505C68.4536 34.505 69.1136 35.1637 69.1136 35.9737C69.1136 36.7838 68.4585 37.4425 67.6422 37.4425C66.8307 37.4425 66.1708 36.7838 66.1708 35.9737ZM71.0738 35.9737C71.0738 35.1637 71.7337 34.505 72.5451 34.505C73.3566 34.505 74.0165 35.1637 74.0165 35.9737C74.0165 36.7838 73.3615 37.4425 72.5451 37.4425C71.7337 37.4425 71.0738 36.7838 71.0738 35.9737ZM75.9767 35.9737C75.9767 35.1637 76.6367 34.505 77.4481 34.505C78.2596 34.505 78.9195 35.1637 78.9195 35.9737C78.9195 36.7838 78.2645 37.4425 77.4481 37.4425C76.6367 37.4425 75.9767 36.7838 75.9767 35.9737ZM80.8797 35.9737C80.8797 35.1637 81.5396 34.505 82.3511 34.505C83.1625 34.505 83.8225 35.1637 83.8225 35.9737C83.8225 36.7838 83.1674 37.4425 82.3511 37.4425C81.5396 37.4425 80.8797 36.7838 80.8797 35.9737Z" fill="#1F1A1A"/>
<path d="M71.7044 47.4262L71.416 47.7092L48.8565 70.365C48.5583 70.6577 48.1477 70.8334 47.7224 70.8334H35.3013C34.7587 70.8334 34.2601 70.5601 33.9619 70.1063C33.6637 69.6525 33.6197 69.0914 33.8348 68.5937L43.0248 47.7092L43.6309 46.3381L45.4249 47.1188L45.1659 47.7043L35.8536 68.8718H47.5709L68.6493 47.7043L70.3113 46.0404L71.7044 47.4213V47.4262Z" fill="#1F1A1A"/>
<path d="M101.327 45.7572H34.9541C26.3898 45.7572 17.9966 42.8051 11.3289 37.4425C10.4637 36.7496 9.9651 35.7102 9.9651 34.6075C9.9651 32.5873 11.6027 30.9527 13.6215 30.9527H86.164C90.1821 30.9527 94.1466 31.8066 97.7834 33.4168C99.0544 33.978 100.286 34.627 101.464 35.3735C102.452 35.9884 103.4 36.6715 104.309 37.4083C105.409 38.3061 106.04 39.6334 106.04 41.0533C106.04 43.6493 103.923 45.7572 101.323 45.7572H101.327ZM105.551 35.8957C100.096 31.4504 93.2129 28.996 86.164 28.996H13.6215C13.4114 28.996 13.2012 29.0057 12.991 29.0301C10.19 29.3424 8 31.7236 8 34.6075C8 36.3055 8.76258 37.8963 10.0922 38.9649C17.1118 44.6105 25.9352 47.7188 34.9492 47.7188H101.323C105.003 47.7188 108 44.7276 108 41.0582C108 39.0478 107.105 37.1692 105.546 35.9005L105.551 35.8957Z" fill="#1F1A1A"/>
<path fill-rule="evenodd" clip-rule="evenodd" d="M30.066 28.9913H14.9953L11.1776 11.9568H20.5338L30.066 28.9913Z" fill="url(#paint2_radial_57_179)"/>
<path d="M37.76 28.9912L35.8536 24.6581H47.5708L51.8872 28.9912H37.7649H37.76ZM54.6491 28.9912L48.8516 23.1747C48.5534 22.8722 48.1428 22.7014 47.7175 22.7014H35.2963C34.7537 22.7014 34.2551 22.9698 33.9569 23.4236C33.6587 23.8774 33.6147 24.4483 33.8298 24.9411L35.6141 28.9912L36.4744 30.9479H56.5947L54.6442 28.9912H54.6491Z" fill="#1F1A1A"/>
<path d="M14.7263 63.192C14.7263 62.3722 15.3862 61.7135 16.1977 61.7135C17.0092 61.7135 17.6642 62.3722 17.6642 63.192C17.6642 64.002 17.0092 64.6607 16.1977 64.6607C15.3862 64.6607 14.7263 64.002 14.7263 63.192ZM19.6293 63.192C19.6293 62.3722 20.2843 61.7135 21.1007 61.7135C21.9121 61.7135 22.572 62.3722 22.572 63.192C22.572 64.002 21.9121 64.6607 21.1007 64.6607C20.2892 64.6607 19.6293 64.002 19.6293 63.192ZM24.5323 63.192C24.5323 62.3722 25.1922 61.7135 26.0036 61.7135C26.8151 61.7135 27.475 62.3722 27.475 63.192C27.475 64.002 26.8151 64.6607 26.0036 64.6607C25.1922 64.6607 24.5323 64.002 24.5323 63.192ZM29.4352 63.192C29.4352 62.3722 30.0903 61.7135 30.9066 61.7135C31.7181 61.7135 32.3731 62.3722 32.3731 63.192C32.3731 64.002 31.7181 64.6607 30.9066 64.6607C30.0951 64.6607 29.4352 64.002 29.4352 63.192Z" fill="#1F1A1A"/>
<path d="M19.3605 53.0962C19.3605 52.2862 20.0204 51.6275 20.8319 51.6275C21.6433 51.6275 22.3032 52.2862 22.3032 53.0962C22.3032 53.9063 21.6433 54.565 20.8319 54.565C20.0204 54.565 19.3605 53.9063 19.3605 53.0962ZM24.2634 53.0962C24.2634 52.2862 24.9234 51.6275 25.7348 51.6275C26.5463 51.6275 27.2062 52.2862 27.2062 53.0962C27.2062 53.9063 26.5463 54.565 25.7348 54.565C24.9234 54.565 24.2634 53.9063 24.2634 53.0962ZM29.1664 53.0962C29.1664 52.2862 29.8263 51.6275 30.6378 51.6275C31.4492 51.6275 32.1092 52.2862 32.1092 53.0962C32.1092 53.9063 31.4541 54.565 30.6378 54.565C29.8263 54.565 29.1664 53.9063 29.1664 53.0962ZM34.0694 53.0962C34.0694 52.2862 34.7293 51.6275 35.5408 51.6275C36.3522 51.6275 37.0121 52.2862 37.0121 53.0962C37.0121 53.9063 36.3522 54.565 35.5408 54.565C34.7293 54.565 34.0694 53.9063 34.0694 53.0962Z" fill="#1F1A1A"/>
<defs>
<radialGradient id="paint0_radial_57_179" cx="0" cy="0" r="1" gradientUnits="userSpaceOnUse" gradientTransform="translate(80.0068 67.8214) rotate(-160.372) scale(61.6617 54.1137)">
<stop stop-color="#4CB752"/>
<stop offset="1" stop-color="#B0D353"/>
</radialGradient>
<radialGradient id="paint1_radial_57_179" cx="0" cy="0" r="1" gradientUnits="userSpaceOnUse" gradientTransform="translate(59.679 29.5767) rotate(-170.534) scale(32.9039 14.8056)">
<stop stop-color="#4CB752"/>
<stop offset="1" stop-color="#B0D353"/>
</radialGradient>
<radialGradient id="paint2_radial_57_179" cx="0" cy="0" r="1" gradientUnits="userSpaceOnUse" gradientTransform="translate(35.2472 27.3094) rotate(-153.735) scale(34.5406 38.0196)">
<stop stop-color="#4CB752"/>
<stop offset="1" stop-color="#B0D353"/>
</radialGradient>
</defs>
</svg>
